<?xml version="1.0" standalone="yes"?>

<svg version="1.1" viewBox="0.0 0.0 1557.0 799.0" fill="none" stroke="none" stroke-linecap="square" stroke-miterlimit="10" xmlns="http://www.w3.org/2000/svg" xmlns:xlink="http://www.w3.org/1999/xlink"><clipPath id="p.0"><path d="m0 0l1557.0 0l0 799.0l-1557.0 0l0 -799.0z" clip-rule="nonzero"></path></clipPath><g clip-path="url(#p.0)"><path fill="#000000" fill-opacity="0.0" d="m0 0l1557.4069 0l0 799.1181l-1557.4069 0z" fill-rule="nonzero"></path><path fill="#000000" fill-opacity="0.0" d="m1145.1602 20.795275l385.5747 0l0 248.8189l-385.5747 0z" fill-rule="nonzero"></path><path stroke="#000000" stroke-width="2.0" stroke-linejoin="round" stroke-linecap="butt" d="m1145.1602 20.795275l385.5747 0l0 248.8189l-385.5747 0z" fill-rule="nonzero"></path><path fill="#cfe2f3" d="m1145.1602 297.07874l385.5747 0l0 306.70868l-385.5747 0z" fill-rule="nonzero"></path><path stroke="#000000" stroke-width="2.0" stroke-linejoin="round" stroke-linecap="butt" d="m1145.1602 297.07874l385.5747 0l0 306.70868l-385.5747 0z" fill-rule="nonzero"></path><path fill="#d9ead3" d="m1361.7585 425.28302l92.057495 0l0 50.6438c-46.026367 0 -46.026367 19.485168 -92.057495 9.742584zm7.5843506 0l0 -6.5656433l91.42871 0l0 50.961487c-3.4753418 0 -6.9555664 0.35299683 -6.9555664 0.35299683l0 -44.74884zm7.1290283 -6.5656433l0 -6.4067993l92.220825 0l0 50.802612c-3.9605713 0 -7.9211426 0.26474 -7.9211426 0.26474l0 -44.660553z" fill-rule="nonzero"></path><path fill="#000000" fill-opacity="0.0" d="m1361.7585 425.28302l92.057495 0l0 50.6438c-46.026367 0 -46.026367 19.485168 -92.057495 9.742584zm7.5843506 0l0 -6.5656433l91.42871 0l0 50.961487c-3.4753418 0 -6.9555664 0.35299683 -6.9555664 0.35299683m-77.34412 -51.314484l0 -6.4067993l92.220825 0l0 50.802612c-3.9605713 0 -7.9211426 0.26474 -7.9211426 0.26474" fill-rule="nonzero"></path><path fill="#000000" fill-opacity="0.0" d="m1361.7585 485.6694c46.031128 9.742584 46.031128 -9.742584 92.057495 -9.742584l0 -5.8949585c0 0 3.4802246 -0.35299683 6.9555664 -0.35299683l0 -6.300934c0 0 3.9605713 -0.26474 7.9211426 -0.26474l0 -50.802612l-92.220825 0l0 6.4067993l-7.1290283 0l0 6.5656433l-7.5843506 0z" fill-rule="nonzero"></path><path stroke="#000000" stroke-width="2.0" stroke-linejoin="round" stroke-linecap="butt" d="m1361.7585 425.28302l92.057495 0l0 50.6438c-46.026367 0 -46.026367 19.485168 -92.057495 9.742584zm7.5843506 0l0 -6.5656433l91.42871 0l0 50.961487c-3.4753418 0 -6.9555664 0.35299683 -6.9555664 0.35299683m-77.34412 -51.314484l0 -6.4067993l92.220825 0l0 50.802612c-3.9605713 0 -7.9211426 0.26474 -7.9211426 0.26474" fill-rule="nonzero"></path><path fill="#d9ead3" d="m1239.2362 334.1964l92.057495 0l0 50.6438c-46.026245 0 -46.026245 19.485168 -92.057495 9.742584zm7.5844727 0l0 -6.5656433l91.42871 0l0 50.961456c-3.4754639 0 -6.9556885 0.35299683 -6.9556885 0.35299683l0 -44.74881zm7.1289062 -6.5656433l0 -6.4067993l92.220825 0l0 50.802612c-3.9605713 0 -7.9210205 0.26474 -7.9210205 0.26474l0 -44.660553z" fill-rule="nonzero"></path><path fill="#000000" fill-opacity="0.0" d="m1239.2362 334.1964l92.057495 0l0 50.6438c-46.026245 0 -46.026245 19.485168 -92.057495 9.742584zm7.5844727 0l0 -6.5656433l91.42871 0l0 50.961456c-3.4754639 0 -6.9556885 0.35299683 -6.9556885 0.35299683m-77.34412 -51.314453l0 -6.4067993l92.220825 0l0 50.802612c-3.9605713 0 -7.9210205 0.26474 -7.9210205 0.26474" fill-rule="nonzero"></path><path fill="#000000" fill-opacity="0.0" d="m1239.2362 394.5828c46.03125 9.742584 46.03125 -9.742584 92.057495 -9.742584l0 -5.894989c0 0 3.4802246 -0.35299683 6.9556885 -0.35299683l0 -6.3009033c0 0 3.9604492 -0.26474 7.9210205 -0.26474l0 -50.802612l-92.220825 0l0 6.4067993l-7.1289062 0l0 6.5656433l-7.5844727 0z" fill-rule="nonzero"></path><path stroke="#000000" stroke-width="2.0" stroke-linejoin="round" stroke-linecap="butt" d="m1239.2362 334.1964l92.057495 0l0 50.6438c-46.026245 0 -46.026245 19.485168 -92.057495 9.742584zm7.5844727 0l0 -6.5656433l91.42871 0l0 50.961456c-3.4754639 0 -6.9556885 0.35299683 -6.9556885 0.35299683m-77.34412 -51.314453l0 -6.4067993l92.220825 0l0 50.802612c-3.9605713 0 -7.9210205 0.26474 -7.9210205 0.26474" fill-rule="nonzero"></path><path fill="#d9ead3" d="m1239.2362 521.40375l92.057495 0l0 50.6438c-46.026245 0 -46.026245 19.485168 -92.057495 9.742615zm7.5844727 0l0 -6.565613l91.42871 0l0 50.961426c-3.4754639 0 -6.9556885 0.35302734 -6.9556885 0.35302734l0 -44.74884zm7.1289062 -6.565613l0 -6.40683l92.220825 0l0 50.802643c-3.9605713 0 -7.9210205 0.26470947 -7.9210205 0.26470947l0 -44.660522z" fill-rule="nonzero"></path><path fill="#000000" fill-opacity="0.0" d="m1239.2362 521.40375l92.057495 0l0 50.6438c-46.026245 0 -46.026245 19.485168 -92.057495 9.742615zm7.5844727 0l0 -6.565613l91.42871 0l0 50.961426c-3.4754639 0 -6.9556885 0.35302734 -6.9556885 0.35302734m-77.34412 -51.314453l0 -6.40683l92.220825 0l0 50.802643c-3.9605713 0 -7.9210205 0.26470947 -7.9210205 0.26470947" fill-rule="nonzero"></path><path fill="#000000" fill-opacity="0.0" d="m1239.2362 581.79016c46.03125 9.742554 46.03125 -9.742615 92.057495 -9.742615l0 -5.8949585c0 0 3.4802246 -0.35302734 6.9556885 -0.35302734l0 -6.3009033c0 0 3.9604492 -0.26470947 7.9210205 -0.26470947l0 -50.802643l-92.220825 0l0 6.40683l-7.1289062 0l0 6.565613l-7.5844727 0z" fill-rule="nonzero"></path><path stroke="#000000" stroke-width="2.0" stroke-linejoin="round" stroke-linecap="butt" d="m1239.2362 521.40375l92.057495 0l0 50.6438c-46.026245 0 -46.026245 19.485168 -92.057495 9.742615zm7.5844727 0l0 -6.565613l91.42871 0l0 50.961426c-3.4754639 0 -6.9556885 0.35302734 -6.9556885 0.35302734m-77.34412 -51.314453l0 -6.40683l92.220825 0l0 50.802643c-3.9605713 0 -7.9210205 0.26470947 -7.9210205 0.26470947" fill-rule="nonzero"></path><path fill="#000000" fill-opacity="0.0" d="m1145.1602 450.43307l94.078735 -91.08661" fill-rule="nonzero"></path><path stroke="#000000" stroke-width="2.0" stroke-linejoin="round" stroke-linecap="butt" d="m1145.1602 450.43307l94.078735 -91.08661" fill-rule="nonzero"></path><path fill="#000000" fill-opacity="0.0" d="m1145.1602 450.43307l216.59839 0" fill-rule="nonzero"></path><path stroke="#000000" stroke-width="2.0" stroke-linejoin="round" stroke-linecap="butt" d="m1145.1602 450.43307l216.59839 0" fill-rule="nonzero"></path><path fill="#000000" fill-opacity="0.0" d="m1145.1602 450.43307l94.078735 96.12601" fill-rule="nonzero"></path><path stroke="#000000" stroke-width="2.0" stroke-linejoin="round" stroke-linecap="butt" d="m1145.1602 450.43307l94.078735 96.12601" fill-rule="nonzero"></path><path fill="#fce5cd" d="m23.393702 453.1951l0 0c0 -25.37033 34.91474 -45.93701 77.98425 -45.93701l0 0c43.06951 0 77.98426 20.56668 77.98426 45.93701l0 0c0 25.3703 -34.91475 45.93701 -77.98426 45.93701l0 0c-43.06951 0 -77.98425 -20.566711 -77.98425 -45.93701z" fill-rule="nonzero"></path><path stroke="#000000" stroke-width="2.0" stroke-linejoin="round" stroke-linecap="butt" d="m23.393702 453.1951l0 0c0 -25.37033 34.91474 -45.93701 77.98425 -45.93701l0 0c43.06951 0 77.98426 20.56668 77.98426 45.93701l0 0c0 25.3703 -34.91475 45.93701 -77.98426 45.93701l0 0c-43.06951 0 -77.98425 -20.566711 -77.98425 -45.93701z" fill-rule="nonzero"></path><path fill="#a4c2f4" d="m23.393702 297.0796l0 0c0 -25.3703 34.91474 -45.936996 77.98425 -45.936996l0 0c43.06951 0 77.98426 20.566696 77.98426 45.936996l0 0c0 25.37033 -34.91475 45.93701 -77.98426 45.93701l0 0c-43.06951 0 -77.98425 -20.56668 -77.98425 -45.93701z" fill-rule="nonzero"></path><path stroke="#000000" stroke-width="2.0" stroke-linejoin="round" stroke-linecap="butt" d="m23.393702 297.0796l0 0c0 -25.3703 34.91474 -45.936996 77.98425 -45.936996l0 0c43.06951 0 77.98426 20.566696 77.98426 45.936996l0 0c0 25.37033 -34.91475 45.93701 -77.98426 45.93701l0 0c-43.06951 0 -77.98425 -20.56668 -77.98425 -45.93701z" fill-rule="nonzero"></path><path fill="#000000" fill-opacity="0.0" d="m23.393702 603.0507l0 0c0 -25.3703 34.91474 -45.93701 77.98425 -45.93701l0 0c43.06951 0 77.98426 20.566711 77.98426 45.93701l0 0c0 25.3703 -34.91475 45.93701 -77.98426 45.93701l0 0c-43.06951 0 -77.98425 -20.566711 -77.98425 -45.93701z" fill-rule="nonzero"></path><path stroke="#000000" stroke-width="2.0" stroke-linejoin="round" stroke-linecap="butt" d="m23.393702 603.0507l0 0c0 -25.3703 34.91474 -45.93701 77.98425 -45.93701l0 0c43.06951 0 77.98426 20.566711 77.98426 45.93701l0 0c0 25.3703 -34.91475 45.93701 -77.98426 45.93701l0 0c-43.06951 0 -77.98425 -20.566711 -77.98425 -45.93701z" fill-rule="nonzero"></path><path fill="#ead1dc" d="m1194.0378 94.225006l0 0c0 -10.289017 18.345825 -18.629921 40.97644 -18.629921l0 0c22.630615 0 40.97632 8.340904 40.97632 18.629921l0 0c0 10.289024 -18.345703 18.629921 -40.97632 18.629921l0 0c-22.630615 0 -40.97644 -8.340897 -40.97644 -18.629921z" fill-rule="nonzero"></path><path stroke="#000000" stroke-width="2.0" stroke-linejoin="round" stroke-linecap="butt" d="m1194.0378 94.225006l0 0c0 -10.289017 18.345825 -18.629921 40.97644 -18.629921l0 0c22.630615 0 40.97632 8.340904 40.97632 18.629921l0 0c0 10.289024 -18.345703 18.629921 -40.97632 18.629921l0 0c-22.630615 0 -40.97644 -8.340897 -40.97644 -18.629921z" fill-rule="nonzero"></path><path fill="#fff2cc" d="m1257.9828 146.33986l0 0c0 -16.272842 42.282593 -29.46457 94.44092 -29.46457l0 0c52.158325 0 94.44092 13.191727 94.44092 29.46457l0 0c0 16.272827 -42.282593 29.464554 -94.44092 29.464554l0 0c-52.158325 0 -94.44092 -13.191727 -94.44092 -29.464554z" fill-rule="nonzero"></path><path stroke="#000000" stroke-width="2.0" stroke-linejoin="round" stroke-linecap="butt" d="m1257.9828 146.33986l0 0c0 -16.272842 42.282593 -29.46457 94.44092 -29.46457l0 0c52.158325 0 94.44092 13.191727 94.44092 29.46457l0 0c0 16.272827 -42.282593 29.464554 -94.44092 29.464554l0 0c-52.158325 0 -94.44092 -13.191727 -94.44092 -29.464554z" fill-rule="nonzero"></path><path fill="#ead1dc" d="m1432.0983 206.01503l0 0c0 -10.289017 18.345703 -18.629913 40.97632 -18.629913l0 0c22.630737 0 40.97644 8.340897 40.97644 18.629913l0 0c0 10.289017 -18.345703 18.629929 -40.97644 18.629929l0 0c-22.630615 0 -40.97632 -8.340912 -40.97632 -18.629929z" fill-rule="nonzero"></path><path stroke="#000000" stroke-width="2.0" stroke-linejoin="round" stroke-linecap="butt" d="m1432.0983 206.01503l0 0c0 -10.289017 18.345703 -18.629913 40.97632 -18.629913l0 0c22.630737 0 40.97644 8.340897 40.97644 18.629913l0 0c0 10.289017 -18.345703 18.629929 -40.97644 18.629929l0 0c-22.630615 0 -40.97632 -8.340912 -40.97632 -18.629929z" fill-rule="nonzero"></path><path fill="#ead1dc" d="m1311.4474 227.32999l0 0c0 -10.289017 18.345703 -18.629913 40.97632 -18.629913l0 0c22.630615 0 40.97644 8.340897 40.97644 18.629913l0 0c0 10.289032 -18.345825 18.629929 -40.97644 18.629929l0 0c-22.630615 0 -40.97632 -8.340897 -40.97632 -18.629929z" fill-rule="nonzero"></path><path stroke="#000000" stroke-width="2.0" stroke-linejoin="round" stroke-linecap="butt" d="m1311.4474 227.32999l0 0c0 -10.289017 18.345703 -18.629913 40.97632 -18.629913l0 0c22.630615 0 40.97644 8.340897 40.97644 18.629913l0 0c0 10.289032 -18.345825 18.629929 -40.97644 18.629929l0 0c-22.630615 0 -40.97632 -8.340897 -40.97632 -18.629929z" fill-rule="nonzero"></path><path fill="#ead1dc" d="m1417.3109 94.225006l0 0c0 -10.289017 18.345703 -18.629921 40.97632 -18.629921l0 0c22.630615 0 40.97644 8.340904 40.97644 18.629921l0 0c0 10.289024 -18.345825 18.629921 -40.97644 18.629921l0 0c-22.630615 0 -40.97632 -8.340897 -40.97632 -18.629921z" fill-rule="nonzero"></path><path stroke="#000000" stroke-width="2.0" stroke-linejoin="round" stroke-linecap="butt" d="m1417.3109 94.225006l0 0c0 -10.289017 18.345703 -18.629921 40.97632 -18.629921l0 0c22.630615 0 40.97644 8.340904 40.97644 18.629921l0 0c0 10.289024 -18.345825 18.629921 -40.97644 18.629921l0 0c-22.630615 0 -40.97632 -8.340897 -40.97632 -18.629921z" fill-rule="nonzero"></path><path fill="#ead1dc" d="m1303.9408 66.38774l0 0c0 -10.289024 18.345703 -18.629925 40.97632 -18.629925l0 0c22.630615 0 40.97644 8.3409 40.97644 18.629925l0 0c0 10.289017 -18.345825 18.629921 -40.97644 18.629921l0 0c-22.630615 0 -40.97632 -8.340904 -40.97632 -18.629921z" fill-rule="nonzero"></path><path stroke="#000000" stroke-width="2.0" stroke-linejoin="round" stroke-linecap="butt" d="m1303.9408 66.38774l0 0c0 -10.289024 18.345703 -18.629925 40.97632 -18.629925l0 0c22.630615 0 40.97644 8.3409 40.97644 18.629925l0 0c0 10.289017 -18.345825 18.629921 -40.97644 18.629921l0 0c-22.630615 0 -40.97632 -8.340904 -40.97632 -18.629921z" fill-rule="nonzero"></path><path fill="#dd7e6b" d="m1119.9039 127.73867l48.129517 0c6.6452637 0 12.032349 8.340904 12.032349 18.629921c0 10.289017 -5.387085 18.629929 -12.032349 18.629929l-48.129517 0l0 0c-6.6452637 0 -12.032349 -8.340912 -12.032349 -18.629929c0 -10.289017 5.387085 -18.629921 12.032349 -18.629921z" fill-rule="nonzero"></path><path fill="#000000" fill-opacity="0.0" d="m1168.0334 164.99852c-6.6453857 0 -12.032349 -8.340912 -12.032349 -18.629929c0 -10.289017 5.386963 -18.629921 12.032349 -18.629921" fill-rule="nonzero"></path><path fill="#000000" fill-opacity="0.0" d="m1119.9039 127.73867l48.129517 0c6.6452637 0 12.032349 8.340904 12.032349 18.629921c0 10.289017 -5.387085 18.629929 -12.032349 18.629929l-48.129517 0l0 0c-6.6452637 0 -12.032349 -8.340912 -12.032349 -18.629929c0 -10.289017 5.387085 -18.629921 12.032349 -18.629921z" fill-rule="nonzero"></path><path stroke="#000000" stroke-width="2.0" stroke-linejoin="round" stroke-linecap="butt" d="m1168.0334 164.99852c-6.6453857 0 -12.032349 -8.340912 -12.032349 -18.629929c0 -10.289017 5.386963 -18.629921 12.032349 -18.629921" fill-rule="nonzero"></path><path stroke="#000000" stroke-width="2.0" stroke-linejoin="round" stroke-linecap="butt" d="m1119.9039 127.73867l48.129517 0c6.6452637 0 12.032349 8.340904 12.032349 18.629921c0 10.289017 -5.387085 18.629929 -12.032349 18.629929l-48.129517 0l0 0c-6.6452637 0 -12.032349 -8.340912 -12.032349 -18.629929c0 -10.289017 5.387085 -18.629921 12.032349 -18.629921z" fill-rule="nonzero"></path><path fill="#dd7e6b" d="m1119.917 431.8043l48.129517 0c6.6452637 0 12.032349 8.340912 12.032349 18.629913c0 10.289032 -5.387085 18.629944 -12.032349 18.629944l-48.129517 0l0 0c-6.6452637 0 -12.032349 -8.340912 -12.032349 -18.629944c0 -10.289001 5.387085 -18.629913 12.032349 -18.629913z" fill-rule="nonzero"></path><path fill="#000000" fill-opacity="0.0" d="m1168.0465 469.06415c-6.6452637 0 -12.032349 -8.340912 -12.032349 -18.629944c0 -10.289001 5.387085 -18.629913 12.032349 -18.629913" fill-rule="nonzero"></path><path fill="#000000" fill-opacity="0.0" d="m1119.917 431.8043l48.129517 0c6.6452637 0 12.032349 8.340912 12.032349 18.629913c0 10.289032 -5.387085 18.629944 -12.032349 18.629944l-48.129517 0l0 0c-6.6452637 0 -12.032349 -8.340912 -12.032349 -18.629944c0 -10.289001 5.387085 -18.629913 12.032349 -18.629913z" fill-rule="nonzero"></path><path stroke="#000000" stroke-width="2.0" stroke-linejoin="round" stroke-linecap="butt" d="m1168.0465 469.06415c-6.6452637 0 -12.032349 -8.340912 -12.032349 -18.629944c0 -10.289001 5.387085 -18.629913 12.032349 -18.629913" fill-rule="nonzero"></path><path stroke="#000000" stroke-width="2.0" stroke-linejoin="round" stroke-linecap="butt" d="m1119.917 431.8043l48.129517 0c6.6452637 0 12.032349 8.340912 12.032349 18.629913c0 10.289032 -5.387085 18.629944 -12.032349 18.629944l-48.129517 0l0 0c-6.6452637 0 -12.032349 -8.340912 -12.032349 -18.629944c0 -10.289001 5.387085 -18.629913 12.032349 -18.629913z" fill-rule="nonzero"></path><path fill="#dd7e6b" d="m150.18211 278.44998l48.129486 0c6.6453094 0 12.032379 8.340881 12.032379 18.629913c0 10.289001 -5.3870697 18.629913 -12.032379 18.629913l-48.129486 0l0 0c-6.645294 0 -12.032364 -8.340912 -12.032364 -18.629913c0 -10.289032 5.3870697 -18.629913 12.032364 -18.629913z" fill-rule="nonzero"></path><path fill="#000000" fill-opacity="0.0" d="m198.3116 315.7098c-6.645294 0 -12.032364 -8.340912 -12.032364 -18.629913c0 -10.289032 5.3870697 -18.629913 12.032364 -18.629913" fill-rule="nonzero"></path><path fill="#000000" fill-opacity="0.0" d="m150.18211 278.44998l48.129486 0c6.6453094 0 12.032379 8.340881 12.032379 18.629913c0 10.289001 -5.3870697 18.629913 -12.032379 18.629913l-48.129486 0l0 0c-6.645294 0 -12.032364 -8.340912 -12.032364 -18.629913c0 -10.289032 5.3870697 -18.629913 12.032364 -18.629913z" fill-rule="nonzero"></path><path stroke="#000000" stroke-width="2.0" stroke-linejoin="round" stroke-linecap="butt" d="m198.3116 315.7098c-6.645294 0 -12.032364 -8.340912 -12.032364 -18.629913c0 -10.289032 5.3870697 -18.629913 12.032364 -18.629913" fill-rule="nonzero"></path><path stroke="#000000" stroke-width="2.0" stroke-linejoin="round" stroke-linecap="butt" d="m150.18211 278.44998l48.129486 0c6.6453094 0 12.032379 8.340881 12.032379 18.629913c0 10.289001 -5.3870697 18.629913 -12.032379 18.629913l-48.129486 0l0 0c-6.645294 0 -12.032364 -8.340912 -12.032364 -18.629913c0 -10.289032 5.3870697 -18.629913 12.032364 -18.629913z" fill-rule="nonzero"></path><path fill="#dd7e6b" d="m150.18211 434.56415l48.129486 0c6.6453094 0 12.032379 8.340881 12.032379 18.629913c0 10.289032 -5.3870697 18.629913 -12.032379 18.629913l-48.129486 0l0 0c-6.645294 0 -12.032364 -8.340881 -12.032364 -18.629913c0 -10.289032 5.3870697 -18.629913 12.032364 -18.629913z" fill-rule="nonzero"></path><path fill="#000000" fill-opacity="0.0" d="m198.3116 471.82397c-6.645294 0 -12.032364 -8.340881 -12.032364 -18.629913c0 -10.289032 5.3870697 -18.629913 12.032364 -18.629913" fill-rule="nonzero"></path><path fill="#000000" fill-opacity="0.0" d="m150.18211 434.56415l48.129486 0c6.6453094 0 12.032379 8.340881 12.032379 18.629913c0 10.289032 -5.3870697 18.629913 -12.032379 18.629913l-48.129486 0l0 0c-6.645294 0 -12.032364 -8.340881 -12.032364 -18.629913c0 -10.289032 5.3870697 -18.629913 12.032364 -18.629913z" fill-rule="nonzero"></path><path stroke="#000000" stroke-width="2.0" stroke-linejoin="round" stroke-linecap="butt" d="m198.3116 471.82397c-6.645294 0 -12.032364 -8.340881 -12.032364 -18.629913c0 -10.289032 5.3870697 -18.629913 12.032364 -18.629913" fill-rule="nonzero"></path><path stroke="#000000" stroke-width="2.0" stroke-linejoin="round" stroke-linecap="butt" d="m150.18211 434.56415l48.129486 0c6.6453094 0 12.032379 8.340881 12.032379 18.629913c0 10.289032 -5.3870697 18.629913 -12.032379 18.629913l-48.129486 0l0 0c-6.645294 0 -12.032364 -8.340881 -12.032364 -18.629913c0 -10.289032 5.3870697 -18.629913 12.032364 -18.629913z" fill-rule="nonzero"></path><path fill="#dd7e6b" d="m150.18211 584.4237l48.129486 0c6.6453094 0 12.032379 8.340942 12.032379 18.629944c0 10.289001 -5.3870697 18.629883 -12.032379 18.629883l-48.129486 0l0 0c-6.645294 0 -12.032364 -8.340881 -12.032364 -18.629883c0 -10.289001 5.3870697 -18.629944 12.032364 -18.629944z" fill-rule="nonzero"></path><path fill="#000000" fill-opacity="0.0" d="m198.3116 621.68353c-6.645294 0 -12.032364 -8.340881 -12.032364 -18.629883c0 -10.289001 5.3870697 -18.629944 12.032364 -18.629944" fill-rule="nonzero"></path><path fill="#000000" fill-opacity="0.0" d="m150.18211 584.4237l48.129486 0c6.6453094 0 12.032379 8.340942 12.032379 18.629944c0 10.289001 -5.3870697 18.629883 -12.032379 18.629883l-48.129486 0l0 0c-6.645294 0 -12.032364 -8.340881 -12.032364 -18.629883c0 -10.289001 5.3870697 -18.629944 12.032364 -18.629944z" fill-rule="nonzero"></path><path stroke="#000000" stroke-width="2.0" stroke-linejoin="round" stroke-linecap="butt" d="m198.3116 621.68353c-6.645294 0 -12.032364 -8.340881 -12.032364 -18.629883c0 -10.289001 5.3870697 -18.629944 12.032364 -18.629944" fill-rule="nonzero"></path><path stroke="#000000" stroke-width="2.0" stroke-linejoin="round" stroke-linecap="butt" d="m150.18211 584.4237l48.129486 0c6.6453094 0 12.032379 8.340942 12.032379 18.629944c0 10.289001 -5.3870697 18.629883 -12.032379 18.629883l-48.129486 0l0 0c-6.645294 0 -12.032364 -8.340881 -12.032364 -18.629883c0 -10.289001 5.3870697 -18.629944 12.032364 -18.629944z" fill-rule="nonzero"></path><path fill="#000000" fill-opacity="0.0" d="m1263.9889 107.39835l21.669312 18.110237" fill-rule="nonzero"></path><path stroke="#000000" stroke-width="2.0" stroke-linejoin="round" stroke-linecap="butt" d="m1263.9889 107.39835l21.669312 18.110237" fill-rule="nonzero"></path><path fill="#000000" fill-opacity="0.0" d="m1344.9171 85.01766l7.4960938 31.842514" fill-rule="nonzero"></path><path stroke="#000000" stroke-width="2.0" stroke-linejoin="round" stroke-linecap="butt" d="m1344.9171 85.01766l7.4960938 31.842514" fill-rule="nonzero"></path><path fill="#000000" fill-opacity="0.0" d="m1429.3126 107.39835l-10.110352 18.110237" fill-rule="nonzero"></path><path stroke="#000000" stroke-width="2.0" stroke-linejoin="round" stroke-linecap="butt" d="m1429.3126 107.39835l-10.110352 18.110237" fill-rule="nonzero"></path><path fill="#000000" fill-opacity="0.0" d="m1444.1 192.84169l-24.881958 -25.669296" fill-rule="nonzero"></path><path stroke="#000000" stroke-width="2.0" stroke-linejoin="round" stroke-linecap="butt" d="m1444.1 192.84169l-24.881958 -25.669296" fill-rule="nonzero"></path><path fill="#000000" fill-opacity="0.0" d="m1352.4237 208.70007l0 -32.881897" fill-rule="nonzero"></path><path stroke="#000000" stroke-width="2.0" stroke-linejoin="round" stroke-linecap="butt" d="m1352.4237 208.70007l0 -32.881897" fill-rule="nonzero"></path><path fill="#000000" fill-opacity="0.0" d="m267.3622 145.12325l0 0c0 -25.370308 34.914734 -45.937004 77.98425 -45.937004l0 0c43.06952 0 77.98425 20.566696 77.98425 45.937004l0 0c0 25.370316 -34.914734 45.93701 -77.98425 45.93701l0 0c-43.06952 0 -77.98425 -20.566696 -77.98425 -45.93701z" fill-rule="nonzero"></path><path stroke="#000000" stroke-width="2.0" stroke-linejoin="round" stroke-linecap="butt" d="m267.3622 145.12325l0 0c0 -25.370308 34.914734 -45.937004 77.98425 -45.937004l0 0c43.06952 0 77.98425 20.566696 77.98425 45.937004l0 0c0 25.370316 -34.914734 45.93701 -77.98425 45.93701l0 0c-43.06952 0 -77.98425 -20.566696 -77.98425 -45.93701z" fill-rule="nonzero"></path><path fill="#dd7e6b" d="m394.1506 126.49624l48.129486 0c6.645294 0 12.032379 8.340904 12.032379 18.629921c0 10.289017 -5.387085 18.629913 -12.032379 18.629913l-48.129486 0l0 0c-6.645294 0 -12.032379 -8.340897 -12.032379 -18.629913c0 -10.289017 5.387085 -18.629921 12.032379 -18.629921z" fill-rule="nonzero"></path><path fill="#000000" fill-opacity="0.0" d="m442.2801 163.75607c-6.645294 0 -12.032379 -8.340897 -12.032379 -18.629913c0 -10.289017 5.387085 -18.629921 12.032379 -18.629921" fill-rule="nonzero"></path><path fill="#000000" fill-opacity="0.0" d="m394.1506 126.49624l48.129486 0c6.645294 0 12.032379 8.340904 12.032379 18.629921c0 10.289017 -5.387085 18.629913 -12.032379 18.629913l-48.129486 0l0 0c-6.645294 0 -12.032379 -8.340897 -12.032379 -18.629913c0 -10.289017 5.387085 -18.629921 12.032379 -18.629921z" fill-rule="nonzero"></path><path stroke="#000000" stroke-width="2.0" stroke-linejoin="round" stroke-linecap="butt" d="m442.2801 163.75607c-6.645294 0 -12.032379 -8.340897 -12.032379 -18.629913c0 -10.289017 5.387085 -18.629921 12.032379 -18.629921" fill-rule="nonzero"></path><path stroke="#000000" stroke-width="2.0" stroke-linejoin="round" stroke-linecap="butt" d="m394.1506 126.49624l48.129486 0c6.645294 0 12.032379 8.340904 12.032379 18.629921c0 10.289017 -5.387085 18.629913 -12.032379 18.629913l-48.129486 0l0 0c-6.645294 0 -12.032379 -8.340897 -12.032379 -18.629913c0 -10.289017 5.387085 -18.629921 12.032379 -18.629921z" fill-rule="nonzero"></path><path fill="#000000" fill-opacity="0.0" d="m251.87138 688.98083l0 0c0 -25.3703 34.91475 -45.93701 77.98427 -45.93701l0 0c43.06952 0 77.98425 20.566711 77.98425 45.93701l0 0c0 25.3703 -34.914734 45.93701 -77.98425 45.93701l0 0c-43.06952 0 -77.98427 -20.566711 -77.98427 -45.93701z" fill-rule="nonzero"></path><path stroke="#000000" stroke-width="2.0" stroke-linejoin="round" stroke-linecap="butt" d="m251.87138 688.98083l0 0c0 -25.3703 34.91475 -45.93701 77.98427 -45.93701l0 0c43.06952 0 77.98425 20.566711 77.98425 45.93701l0 0c0 25.3703 -34.914734 45.93701 -77.98425 45.93701l0 0c-43.06952 0 -77.98427 -20.566711 -77.98427 -45.93701z" fill-rule="nonzero"></path><path fill="#dd7e6b" d="m378.6598 670.3538l48.129486 0c6.645294 0 12.032379 8.340942 12.032379 18.629944c0 10.289001 -5.387085 18.629944 -12.032379 18.629944l-48.129486 0l0 0c-6.645294 0 -12.032379 -8.340942 -12.032379 -18.629944c0 -10.289001 5.387085 -18.629944 12.032379 -18.629944z" fill-rule="nonzero"></path><path fill="#000000" fill-opacity="0.0" d="m426.78928 707.6137c-6.645294 0 -12.032379 -8.340942 -12.032379 -18.629944c0 -10.289001 5.387085 -18.629944 12.032379 -18.629944" fill-rule="nonzero"></path><path fill="#000000" fill-opacity="0.0" d="m378.6598 670.3538l48.129486 0c6.645294 0 12.032379 8.340942 12.032379 18.629944c0 10.289001 -5.387085 18.629944 -12.032379 18.629944l-48.129486 0l0 0c-6.645294 0 -12.032379 -8.340942 -12.032379 -18.629944c0 -10.289001 5.387085 -18.629944 12.032379 -18.629944z" fill-rule="nonzero"></path><path stroke="#000000" stroke-width="2.0" stroke-linejoin="round" stroke-linecap="butt" d="m426.78928 707.6137c-6.645294 0 -12.032379 -8.340942 -12.032379 -18.629944c0 -10.289001 5.387085 -18.629944 12.032379 -18.629944" fill-rule="nonzero"></path><path stroke="#000000" stroke-width="2.0" stroke-linejoin="round" stroke-linecap="butt" d="m378.6598 670.3538l48.129486 0c6.645294 0 12.032379 8.340942 12.032379 18.629944c0 10.289001 -5.387085 18.629944 -12.032379 18.629944l-48.129486 0l0 0c-6.645294 0 -12.032379 -8.340942 -12.032379 -18.629944c0 -10.289001 5.387085 -18.629944 12.032379 -18.629944z" fill-rule="nonzero"></path><path fill="#cfe2f3" d="m785.4675 145.20505l0 0c0 -55.845993 48.487183 -101.11811 108.299194 -101.11811l0 0c59.81201 0 108.299194 45.272118 108.299194 101.11811l0 0c0 55.845978 -48.487183 101.1181 -108.299194 101.1181l0 0c-59.81201 0 -108.299194 -45.272125 -108.299194 -101.1181z" fill-rule="nonzero"></path><path stroke="#000000" stroke-width="2.0" stroke-linejoin="round" stroke-linecap="butt" d="m785.4675 145.20505l0 0c0 -55.845993 48.487183 -101.11811 108.299194 -101.11811l0 0c59.81201 0 108.299194 45.272118 108.299194 101.11811l0 0c0 55.845978 -48.487183 101.1181 -108.299194 101.1181l0 0c-59.81201 0 -108.299194 -45.272125 -108.299194 -101.1181z" fill-rule="nonzero"></path><path fill="#dd7e6b" d="m762.91736 126.57594l48.129517 0c6.6452637 0 12.032349 8.340897 12.032349 18.629913c0 10.289032 -5.387085 18.629929 -12.032349 18.629929l-48.129517 0l0 0c-6.6452637 0 -12.032349 -8.340897 -12.032349 -18.629929c0 -10.289017 5.387085 -18.629913 12.032349 -18.629913z" fill-rule="nonzero"></path><path fill="#000000" fill-opacity="0.0" d="m811.0469 163.83578c-6.6453247 0 -12.03241 -8.340897 -12.03241 -18.629929c0 -10.289017 5.387085 -18.629913 12.03241 -18.629913" fill-rule="nonzero"></path><path fill="#000000" fill-opacity="0.0" d="m762.91736 126.57594l48.129517 0c6.6452637 0 12.032349 8.340897 12.032349 18.629913c0 10.289032 -5.387085 18.629929 -12.032349 18.629929l-48.129517 0l0 0c-6.6452637 0 -12.032349 -8.340897 -12.032349 -18.629929c0 -10.289017 5.387085 -18.629913 12.032349 -18.629913z" fill-rule="nonzero"></path><path stroke="#000000" stroke-width="2.0" stroke-linejoin="round" stroke-linecap="butt" d="m811.0469 163.83578c-6.6453247 0 -12.03241 -8.340897 -12.03241 -18.629929c0 -10.289017 5.387085 -18.629913 12.03241 -18.629913" fill-rule="nonzero"></path><path stroke="#000000" stroke-width="2.0" stroke-linejoin="round" stroke-linecap="butt" d="m762.91736 126.57594l48.129517 0c6.6452637 0 12.032349 8.340897 12.032349 18.629913c0 10.289032 -5.387085 18.629929 -12.032349 18.629929l-48.129517 0l0 0c-6.6452637 0 -12.032349 -8.340897 -12.032349 -18.629929c0 -10.289017 5.387085 -18.629913 12.032349 -18.629913z" fill-rule="nonzero"></path><path fill="#dd7e6b" d="m979.63654 127.73867l48.129456 0c6.6453857 0 12.032349 8.340904 12.032349 18.629921c0 10.289017 -5.386963 18.629929 -12.032349 18.629929l-48.129456 0l0 0c-6.6452637 0 -12.032349 -8.340912 -12.032349 -18.629929c0 -10.289017 5.387085 -18.629921 12.032349 -18.629921z" fill-rule="nonzero"></path><path fill="#000000" fill-opacity="0.0" d="m1027.766 164.99852c-6.6452637 0 -12.032349 -8.340912 -12.032349 -18.629929c0 -10.289017 5.387085 -18.629921 12.032349 -18.629921" fill-rule="nonzero"></path><path fill="#000000" fill-opacity="0.0" d="m979.63654 127.73867l48.129456 0c6.6453857 0 12.032349 8.340904 12.032349 18.629921c0 10.289017 -5.386963 18.629929 -12.032349 18.629929l-48.129456 0l0 0c-6.6452637 0 -12.032349 -8.340912 -12.032349 -18.629929c0 -10.289017 5.387085 -18.629921 12.032349 -18.629921z" fill-rule="nonzero"></path><path stroke="#000000" stroke-width="2.0" stroke-linejoin="round" stroke-linecap="butt" d="m1027.766 164.99852c-6.6452637 0 -12.032349 -8.340912 -12.032349 -18.629929c0 -10.289017 5.387085 -18.629921 12.032349 -18.629921" fill-rule="nonzero"></path><path stroke="#000000" stroke-width="2.0" stroke-linejoin="round" stroke-linecap="butt" d="m979.63654 127.73867l48.129456 0c6.6453857 0 12.032349 8.340904 12.032349 18.629921c0 10.289017 -5.386963 18.629929 -12.032349 18.629929l-48.129456 0l0 0c-6.6452637 0 -12.032349 -8.340912 -12.032349 -18.629929c0 -10.289017 5.387085 -18.629921 12.032349 -18.629921z" fill-rule="nonzero"></path><path fill="#000000" fill-opacity="0.0" d="m1107.8716 146.36859l-68.06299 0" fill-rule="nonzero"></path><path stroke="#000000" stroke-width="2.0" stroke-linejoin="round" stroke-linecap="butt" d="m1107.8716 146.36859l-68.06299 0" fill-rule="nonzero"></path><path fill="#000000" fill-opacity="0.0" d="m750.885 145.20586l-296.56693 -0.09448242" fill-rule="nonzero"></path><path stroke="#000000" stroke-width="2.0" stroke-linejoin="round" stroke-linecap="butt" d="m750.885 145.20586l-296.56693 -0.09448242" fill-rule="nonzero"></path><path fill="#00ffff" d="m335.33072 395.5465l0 0c0 -15.919464 12.905243 -28.824738 28.824707 -28.824738l260.8387 0c7.6448364 0 14.976501 3.0368958 20.382202 8.442566c5.4056396 5.4057007 8.442566 12.737366 8.442566 20.382172l0 115.29544c0 15.919464 -12.905273 28.824738 -28.824768 28.824738l-260.8387 0c-15.919464 0 -28.824707 -12.905273 -28.824707 -28.824738z" fill-rule="nonzero"></path><path stroke="#000000" stroke-width="2.0" stroke-linejoin="round" stroke-linecap="butt" d="m335.33072 395.5465l0 0c0 -15.919464 12.905243 -28.824738 28.824707 -28.824738l260.8387 0c7.6448364 0 14.976501 3.0368958 20.382202 8.442566c5.4056396 5.4057007 8.442566 12.737366 8.442566 20.382172l0 115.29544c0 15.919464 -12.905273 28.824738 -28.824768 28.824738l-260.8387 0c-15.919464 0 -28.824707 -12.905273 -28.824707 -28.824738z" fill-rule="nonzero"></path><path fill="#dd7e6b" d="m630.7438 431.8043l48.129517 0c6.6452637 0 12.032349 8.340912 12.032349 18.629913c0 10.289032 -5.387085 18.629944 -12.032349 18.629944l-48.129517 0l0 0c-6.6452637 0 -12.032349 -8.340912 -12.032349 -18.629944c0 -10.289001 5.387085 -18.629913 12.032349 -18.629913z" fill-rule="nonzero"></path><path fill="#000000" fill-opacity="0.0" d="m678.8733 469.06415c-6.6453247 0 -12.03241 -8.340912 -12.03241 -18.629944c0 -10.289001 5.387085 -18.629913 12.03241 -18.629913" fill-rule="nonzero"></path><path fill="#000000" fill-opacity="0.0" d="m630.7438 431.8043l48.129517 0c6.6452637 0 12.032349 8.340912 12.032349 18.629913c0 10.289032 -5.387085 18.629944 -12.032349 18.629944l-48.129517 0l0 0c-6.6452637 0 -12.032349 -8.340912 -12.032349 -18.629944c0 -10.289001 5.387085 -18.629913 12.032349 -18.629913z" fill-rule="nonzero"></path><path stroke="#000000" stroke-width="2.0" stroke-linejoin="round" stroke-linecap="butt" d="m678.8733 469.06415c-6.6453247 0 -12.03241 -8.340912 -12.03241 -18.629944c0 -10.289001 5.387085 -18.629913 12.03241 -18.629913" fill-rule="nonzero"></path><path stroke="#000000" stroke-width="2.0" stroke-linejoin="round" stroke-linecap="butt" d="m630.7438 431.8043l48.129517 0c6.6452637 0 12.032349 8.340912 12.032349 18.629913c0 10.289032 -5.387085 18.629944 -12.032349 18.629944l-48.129517 0l0 0c-6.6452637 0 -12.032349 -8.340912 -12.032349 -18.629944c0 -10.289001 5.387085 -18.629913 12.032349 -18.629913z" fill-rule="nonzero"></path><path fill="#dd7e6b" d="m311.253 434.56546l48.129486 0c6.645294 0 12.032379 8.340881 12.032379 18.629913c0 10.289032 -5.387085 18.629913 -12.032379 18.629913l-48.129486 0l0 0c-6.645294 0 -12.032379 -8.340881 -12.032379 -18.629913c0 -10.289032 5.387085 -18.629913 12.032379 -18.629913z" fill-rule="nonzero"></path><path fill="#000000" fill-opacity="0.0" d="m359.38248 471.8253c-6.645294 0 -12.032379 -8.340881 -12.032379 -18.629913c0 -10.289032 5.387085 -18.629913 12.032379 -18.629913" fill-rule="nonzero"></path><path fill="#000000" fill-opacity="0.0" d="m311.253 434.56546l48.129486 0c6.645294 0 12.032379 8.340881 12.032379 18.629913c0 10.289032 -5.387085 18.629913 -12.032379 18.629913l-48.129486 0l0 0c-6.645294 0 -12.032379 -8.340881 -12.032379 -18.629913c0 -10.289032 5.387085 -18.629913 12.032379 -18.629913z" fill-rule="nonzero"></path><path stroke="#000000" stroke-width="2.0" stroke-linejoin="round" stroke-linecap="butt" d="m359.38248 471.8253c-6.645294 0 -12.032379 -8.340881 -12.032379 -18.629913c0 -10.289032 5.387085 -18.629913 12.032379 -18.629913" fill-rule="nonzero"></path><path stroke="#000000" stroke-width="2.0" stroke-linejoin="round" stroke-linecap="butt" d="m311.253 434.56546l48.129486 0c6.645294 0 12.032379 8.340881 12.032379 18.629913c0 10.289032 -5.387085 18.629913 -12.032379 18.629913l-48.129486 0l0 0c-6.645294 0 -12.032379 -8.340881 -12.032379 -18.629913c0 -10.289032 5.387085 -18.629913 12.032379 -18.629913z" fill-rule="nonzero"></path><path fill="#000000" fill-opacity="0.0" d="m210.34398 297.0799l88.88188 156.12598" fill-rule="nonzero"></path><path stroke="#000000" stroke-width="2.0" stroke-linejoin="round" stroke-linecap="butt" d="m210.34398 297.0799l88.88188 156.12598" fill-rule="nonzero"></path><path fill="#000000" fill-opacity="0.0" d="m210.33873 453.19537l88.88188 0" fill-rule="nonzero"></path><path stroke="#000000" stroke-width="2.0" stroke-linejoin="round" stroke-linecap="butt" d="m210.33873 453.19537l88.88188 0" fill-rule="nonzero"></path><path fill="#000000" fill-opacity="0.0" d="m210.34398 603.05365l88.88188 -149.85828" fill-rule="nonzero"></path><path stroke="#000000" stroke-width="2.0" stroke-linejoin="round" stroke-linecap="butt" d="m210.34398 603.05365l88.88188 -149.85828" fill-rule="nonzero"></path><path fill="#000000" fill-opacity="0.0" d="m690.90564 450.4342l416.97632 0" fill-rule="nonzero"></path><path stroke="#000000" stroke-width="2.0" stroke-linejoin="round" stroke-linecap="butt" d="m690.90564 450.4342l416.97632 0" fill-rule="nonzero"></path><path fill="#000000" fill-opacity="0.0" d="m690.90564 450.4342l59.968506 -305.22833" fill-rule="nonzero"></path><path stroke="#000000" stroke-width="2.0" stroke-linejoin="round" stroke-linecap="butt" d="m690.90564 450.4342l59.968506 -305.22833" fill-rule="nonzero"></path><path fill="#00ffff" d="m785.46716 631.8772l0 0c0 -15.919434 12.905273 -28.824707 28.824768 -28.824707l260.83868 0c7.6447754 0 14.97644 3.0368652 20.382202 8.442566c5.4056396 5.4057007 8.442505 12.737366 8.442505 20.382141l0 115.29547c0 15.919434 -12.905273 28.824707 -28.824707 28.824707l-260.83868 0c-15.919495 0 -28.824768 -12.905273 -28.824768 -28.824707z" fill-rule="nonzero"></path><path stroke="#000000" stroke-width="2.0" stroke-linejoin="round" stroke-linecap="butt" d="m785.46716 631.8772l0 0c0 -15.919434 12.905273 -28.824707 28.824768 -28.824707l260.83868 0c7.6447754 0 14.97644 3.0368652 20.382202 8.442566c5.4056396 5.4057007 8.442505 12.737366 8.442505 20.382141l0 115.29547c0 15.919434 -12.905273 28.824707 -28.824707 28.824707l-260.83868 0c-15.919495 0 -28.824768 -12.905273 -28.824768 -28.824707z" fill-rule="nonzero"></path><path fill="#dd7e6b" d="m762.91705 670.8952l48.129456 0c6.6453247 0 12.03241 8.340881 12.03241 18.629883c0 10.2890625 -5.387085 18.629944 -12.03241 18.629944l-48.129456 0l0 0c-6.6453247 0 -12.032349 -8.340881 -12.032349 -18.629944c0 -10.289001 5.387024 -18.629883 12.032349 -18.629883z" fill-rule="nonzero"></path><path fill="#000000" fill-opacity="0.0" d="m811.0465 708.155c-6.6452637 0 -12.032349 -8.340881 -12.032349 -18.629944c0 -10.289001 5.387085 -18.629883 12.032349 -18.629883" fill-rule="nonzero"></path><path fill="#000000" fill-opacity="0.0" d="m762.91705 670.8952l48.129456 0c6.6453247 0 12.03241 8.340881 12.03241 18.629883c0 10.2890625 -5.387085 18.629944 -12.03241 18.629944l-48.129456 0l0 0c-6.6453247 0 -12.032349 -8.340881 -12.032349 -18.629944c0 -10.289001 5.387024 -18.629883 12.032349 -18.629883z" fill-rule="nonzero"></path><path stroke="#000000" stroke-width="2.0" stroke-linejoin="round" stroke-linecap="butt" d="m811.0465 708.155c-6.6452637 0 -12.032349 -8.340881 -12.032349 -18.629944c0 -10.289001 5.387085 -18.629883 12.032349 -18.629883" fill-rule="nonzero"></path><path stroke="#000000" stroke-width="2.0" stroke-linejoin="round" stroke-linecap="butt" d="m762.91705 670.8952l48.129456 0c6.6453247 0 12.03241 8.340881 12.03241 18.629883c0 10.2890625 -5.387085 18.629944 -12.03241 18.629944l-48.129456 0l0 0c-6.6453247 0 -12.032349 -8.340881 -12.032349 -18.629944c0 -10.289001 5.387024 -18.629883 12.032349 -18.629883z" fill-rule="nonzero"></path><path fill="#000000" fill-opacity="0.0" d="m690.90564 450.4342l59.968506 239.08661" fill-rule="nonzero"></path><path stroke="#000000" stroke-width="2.0" stroke-linejoin="round" stroke-linecap="butt" d="m690.90564 450.4342l59.968506 239.08661" fill-rule="nonzero"></path><path fill="#93c47d" d="m1293.5066 651.80786l0 0c0 -10.264648 19.89685 -18.585754 44.440918 -18.585754c24.544067 0 44.440918 8.321106 44.440918 18.585754l0 74.34296c0 10.264587 -19.89685 18.585754 -44.440918 18.585754c-24.544067 0 -44.440918 -8.321167 -44.440918 -18.585754z" fill-rule="nonzero"></path><path fill="#000000" fill-opacity="0.0" d="m1382.3884 651.80786l0 0c0 10.264587 -19.89685 18.585754 -44.440918 18.585754c-24.544067 0 -44.440918 -8.321167 -44.440918 -18.585754" fill-rule="nonzero"></path><path fill="#000000" fill-opacity="0.0" d="m1293.5066 651.80786l0 0c0 -10.264648 19.89685 -18.585754 44.440918 -18.585754c24.544067 0 44.440918 8.321106 44.440918 18.585754l0 74.34296c0 10.264587 -19.89685 18.585754 -44.440918 18.585754c-24.544067 0 -44.440918 -8.321167 -44.440918 -18.585754z" fill-rule="nonzero"></path><path stroke="#000000" stroke-width="2.0" stroke-linejoin="round" stroke-linecap="butt" d="m1382.3884 651.80786l0 0c0 10.264587 -19.89685 18.585754 -44.440918 18.585754c-24.544067 0 -44.440918 -8.321167 -44.440918 -18.585754" fill-rule="nonzero"></path><path stroke="#000000" stroke-width="2.0" stroke-linejoin="round" stroke-linecap="butt" d="m1293.5066 651.80786l0 0c0 -10.264648 19.89685 -18.585754 44.440918 -18.585754c24.544067 0 44.440918 8.321106 44.440918 18.585754l0 74.34296c0 10.264587 -19.89685 18.585754 -44.440918 18.585754c-24.544067 0 -44.440918 -8.321167 -44.440918 -18.585754z" fill-rule="nonzero"></path><path fill="#000000" fill-opacity="0.0" d="m1103.9553 689.5249l189.54333 -0.5354004" fill-rule="nonzero"></path><path stroke="#000000" stroke-width="2.0" stroke-linejoin="round" stroke-linecap="butt" d="m1103.9553 689.5249l189.54333 -0.5354004" fill-rule="nonzero"></path><path fill="#000000" fill-opacity="0.0" d="m371.41486 453.19537l247.30707 -2.7716675" fill-rule="nonzero"></path><path stroke="#ffff00" stroke-width="2.0" stroke-linejoin="round" stroke-linecap="butt" d="m371.41486 453.19537l247.30707 -2.7716675" fill-rule="nonzero"></path><path fill="#000000" fill-opacity="0.0" d="m438.82166 688.98376l312.063 0.5354004" fill-rule="nonzero"></path><path stroke="#000000" stroke-width="2.0" stroke-linejoin="round" stroke-linecap="butt" d="m438.82166 688.98376l312.063 0.5354004" fill-rule="nonzero"></path><path fill="#000000" fill-opacity="0.0" d="m1180.0658 146.36859l77.921265 -0.03149414" fill-rule="nonzero"></path><path stroke="#000000" stroke-width="2.0" stroke-linejoin="round" stroke-linecap="butt" d="m1180.0658 146.36859l77.921265 -0.03149414" fill-rule="nonzero"></path><path fill="#ffd966" d="m139.10704 297.07874l0 0c0 -5.9664 4.836731 -10.803131 10.803146 -10.803131l0 0c2.8651733 0 5.6129913 1.1381836 7.638977 3.164154c2.0259857 2.0259705 3.1641693 4.7738037 3.1641693 7.638977l0 0c0 5.9664307 -4.836731 10.803162 -10.803146 10.803162l0 0c-5.9664154 0 -10.803146 -4.836731 -10.803146 -10.803162z" fill-rule="nonzero"></path><path stroke="#000000" stroke-width="2.0" stroke-linejoin="round" stroke-linecap="butt" d="m139.10704 297.07874l0 0c0 -5.9664 4.836731 -10.803131 10.803146 -10.803131l0 0c2.8651733 0 5.6129913 1.1381836 7.638977 3.164154c2.0259857 2.0259705 3.1641693 4.7738037 3.1641693 7.638977l0 0c0 5.9664307 -4.836731 10.803162 -10.803146 10.803162l0 0c-5.9664154 0 -10.803146 -4.836731 -10.803146 -10.803162z" fill-rule="nonzero"></path><path fill="#ffd966" d="m139.10704 603.1998l0 0c0 -5.9664307 4.836731 -10.803162 10.803146 -10.803162l0 0c2.8651733 0 5.6129913 1.1381836 7.638977 3.1641846c2.0259857 2.02594 3.1641693 4.7738037 3.1641693 7.638977l0 0c0 5.9663696 -4.836731 10.803101 -10.803146 10.803101l0 0c-5.9664154 0 -10.803146 -4.836731 -10.803146 -10.803101z" fill-rule="nonzero"></path><path stroke="#000000" stroke-width="2.0" stroke-linejoin="round" stroke-linecap="butt" d="m139.10704 603.1998l0 0c0 -5.9664307 4.836731 -10.803162 10.803146 -10.803162l0 0c2.8651733 0 5.6129913 1.1381836 7.638977 3.1641846c2.0259857 2.02594 3.1641693 4.7738037 3.1641693 7.638977l0 0c0 5.9663696 -4.836731 10.803101 -10.803146 10.803101l0 0c-5.9664154 0 -10.803146 -4.836731 -10.803146 -10.803101z" fill-rule="nonzero"></path><path fill="#ffd966" d="m1108.1569 450.86334l0 0c0 -5.9664 4.836792 -10.803131 10.803223 -10.803131l0 0c2.8651123 0 5.612915 1.1381836 7.638916 3.164154c2.026001 2.026001 3.1641846 4.7738037 3.1641846 7.638977l0 0c0 5.9664307 -4.83667 10.803162 -10.803101 10.803162l0 0c-5.9664307 0 -10.803223 -4.836731 -10.803223 -10.803162z" fill-rule="nonzero"></path><path stroke="#000000" stroke-width="2.0" stroke-linejoin="round" stroke-linecap="butt" d="m1108.1569 450.86334l0 0c0 -5.9664 4.836792 -10.803131 10.803223 -10.803131l0 0c2.8651123 0 5.612915 1.1381836 7.638916 3.164154c2.026001 2.026001 3.1641846 4.7738037 3.1641846 7.638977l0 0c0 5.9664307 -4.83667 10.803162 -10.803101 10.803162l0 0c-5.9664307 0 -10.803223 -4.836731 -10.803223 -10.803162z" fill-rule="nonzero"></path><path fill="#ffd966" d="m382.11752 145.12335l0 0c0 -5.9664 4.8367615 -10.803146 10.803162 -10.803146l0 0c2.8651733 0 5.6130066 1.1381836 7.638977 3.1641693c2.026001 2.0259857 3.1641846 4.7738037 3.1641846 7.638977l0 0c0 5.9664154 -4.8367615 10.803162 -10.803162 10.803162l0 0c-5.9664 0 -10.803162 -4.836746 -10.803162 -10.803162z" fill-rule="nonzero"></path><path stroke="#000000" stroke-width="2.0" stroke-linejoin="round" stroke-linecap="butt" d="m382.11752 145.12335l0 0c0 -5.9664 4.8367615 -10.803146 10.803162 -10.803146l0 0c2.8651733 0 5.6130066 1.1381836 7.638977 3.1641693c2.026001 2.0259857 3.1641846 4.7738037 3.1641846 7.638977l0 0c0 5.9664154 -4.8367615 10.803162 -10.803162 10.803162l0 0c-5.9664 0 -10.803162 -4.836746 -10.803162 -10.803162z" fill-rule="nonzero"></path><path fill="#ffd966" d="m367.63394 689.75604l0 0c0 -5.9663696 4.836731 -10.803101 10.803162 -10.803101l0 0c2.8651733 0 5.612976 1.1381836 7.638977 3.1641235c2.0259705 2.026001 3.164154 4.7738037 3.164154 7.638977l0 0c0 5.9664307 -4.836731 10.803162 -10.803131 10.803162l0 0c-5.9664307 0 -10.803162 -4.836731 -10.803162 -10.803162z" fill-rule="nonzero"></path><path stroke="#000000" stroke-width="2.0" stroke-linejoin="round" stroke-linecap="butt" d="m367.63394 689.75604l0 0c0 -5.9663696 4.836731 -10.803101 10.803162 -10.803101l0 0c2.8651733 0 5.612976 1.1381836 7.638977 3.1641235c2.0259705 2.026001 3.164154 4.7738037 3.164154 7.638977l0 0c0 5.9664307 -4.836731 10.803162 -10.803131 10.803162l0 0c-5.9664307 0 -10.803162 -4.836731 -10.803162 -10.803162z" fill-rule="nonzero"></path></g></svg>

