<?xml version="1.0" standalone="yes"?>

<svg version="1.1" viewBox="0.0 0.0 854.0 542.0" fill="none" stroke="none" stroke-linecap="square" stroke-miterlimit="10" xmlns="http://www.w3.org/2000/svg" xmlns:xlink="http://www.w3.org/1999/xlink"><clipPath id="p.0"><path d="m0 0l854.0 0l0 542.0l-854.0 0l0 -542.0z" clip-rule="nonzero"></path></clipPath><g clip-path="url(#p.0)"><path fill="#000000" fill-opacity="0.0" d="m0 0l854.2966 0l0 542.3832l-854.2966 0z" fill-rule="nonzero"></path><path fill="#cfe2f3" d="m404.62204 95.394264l385.5748 0l0 354.3622l-385.5748 0z" fill-rule="nonzero"></path><path stroke="#000000" stroke-width="2.0" stroke-linejoin="round" stroke-linecap="butt" d="m404.62204 95.394264l385.5748 0l0 354.3622l-385.5748 0z" fill-rule="nonzero"></path><path fill="#d9ead3" d="m616.895 247.42448l92.057434 0l0 50.643784c-46.026245 0 -46.026245 19.485168 -92.057434 9.742584zm7.5844116 0l0 -6.5656586l91.42871 0l0 50.961487c-3.4753418 0 -6.9556885 0.3529663 -6.9556885 0.3529663l0 -44.748795zm7.1289062 -6.5656586l0 -6.4068146l92.220825 0l0 50.802628c-3.9605103 0 -7.9210205 0.26474 -7.9210205 0.26474l0 -44.660553z" fill-rule="nonzero"></path><path fill="#000000" fill-opacity="0.0" d="m616.895 247.42448l92.057434 0l0 50.643784c-46.026245 0 -46.026245 19.485168 -92.057434 9.742584zm7.5844116 0l0 -6.5656586l91.42871 0l0 50.961487c-3.4753418 0 -6.9556885 0.3529663 -6.9556885 0.3529663m-77.34412 -51.314453l0 -6.4068146l92.220825 0l0 50.802628c-3.9605103 0 -7.9210205 0.26474 -7.9210205 0.26474" fill-rule="nonzero"></path><path fill="#000000" fill-opacity="0.0" d="m616.895 307.81085c46.03119 9.742584 46.03119 -9.742584 92.057434 -9.742584l0 -5.894989c0 0 3.4803467 -0.3529663 6.9556885 -0.3529663l0 -6.300934c0 0 3.9605103 -0.26474 7.9210205 -0.26474l0 -50.802628l-92.220825 0l0 6.4068146l-7.1289062 0l0 6.5656586l-7.5844116 0z" fill-rule="nonzero"></path><path stroke="#000000" stroke-width="2.0" stroke-linejoin="round" stroke-linecap="butt" d="m616.895 247.42448l92.057434 0l0 50.643784c-46.026245 0 -46.026245 19.485168 -92.057434 9.742584zm7.5844116 0l0 -6.5656586l91.42871 0l0 50.961487c-3.4753418 0 -6.9556885 0.3529663 -6.9556885 0.3529663m-77.34412 -51.314453l0 -6.4068146l92.220825 0l0 50.802628c-3.9605103 0 -7.9210205 0.26474 -7.9210205 0.26474" fill-rule="nonzero"></path><path fill="#d9ead3" d="m498.69815 152.09114l92.057465 0l0 50.64377c-46.026245 0 -46.026245 19.485168 -92.057465 9.742584zm7.5844116 0l0 -6.5656586l91.42874 0l0 50.96147c-3.4754028 0 -6.9556885 0.35299683 -6.9556885 0.35299683l0 -44.74881zm7.128937 -6.5656586l0 -6.4068146l92.220825 0l0 50.802628c-3.9605103 0 -7.9210205 0.26475525 -7.9210205 0.26475525l0 -44.66057z" fill-rule="nonzero"></path><path fill="#000000" fill-opacity="0.0" d="m498.69815 152.09114l92.057465 0l0 50.64377c-46.026245 0 -46.026245 19.485168 -92.057465 9.742584zm7.5844116 0l0 -6.5656586l91.42874 0l0 50.96147c-3.4754028 0 -6.9556885 0.35299683 -6.9556885 0.35299683m-77.34412 -51.31447l0 -6.4068146l92.220825 0l0 50.802628c-3.9605103 0 -7.9210205 0.26475525 -7.9210205 0.26475525" fill-rule="nonzero"></path><path fill="#000000" fill-opacity="0.0" d="m498.69815 212.4775c46.03122 9.742584 46.03122 -9.742584 92.057465 -9.742584l0 -5.8949585c0 0 3.4802856 -0.35299683 6.9556885 -0.35299683l0 -6.3009033c0 0 3.9605103 -0.26475525 7.9210205 -0.26475525l0 -50.802628l-92.220825 0l0 6.4068146l-7.128937 0l0 6.5656586l-7.5844116 0z" fill-rule="nonzero"></path><path stroke="#000000" stroke-width="2.0" stroke-linejoin="round" stroke-linecap="butt" d="m498.69815 152.09114l92.057465 0l0 50.64377c-46.026245 0 -46.026245 19.485168 -92.057465 9.742584zm7.5844116 0l0 -6.5656586l91.42874 0l0 50.96147c-3.4754028 0 -6.9556885 0.35299683 -6.9556885 0.35299683m-77.34412 -51.31447l0 -6.4068146l92.220825 0l0 50.802628c-3.9605103 0 -7.9210205 0.26475525 -7.9210205 0.26475525" fill-rule="nonzero"></path><path fill="#d9ead3" d="m498.69815 339.2985l92.057465 0l0 50.64377c-46.026245 0 -46.026245 19.485168 -92.057465 9.742584zm7.5844116 0l0 -6.5656433l91.42874 0l0 50.961456c-3.4754028 0 -6.9556885 0.35299683 -6.9556885 0.35299683l0 -44.74881zm7.128937 -6.5656433l0 -6.40683l92.220825 0l0 50.802643c-3.9605103 0 -7.9210205 0.26474 -7.9210205 0.26474l0 -44.660553z" fill-rule="nonzero"></path><path fill="#000000" fill-opacity="0.0" d="m498.69815 339.2985l92.057465 0l0 50.64377c-46.026245 0 -46.026245 19.485168 -92.057465 9.742584zm7.5844116 0l0 -6.5656433l91.42874 0l0 50.961456c-3.4754028 0 -6.9556885 0.35299683 -6.9556885 0.35299683m-77.34412 -51.314453l0 -6.40683l92.220825 0l0 50.802643c-3.9605103 0 -7.9210205 0.26474 -7.9210205 0.26474" fill-rule="nonzero"></path><path fill="#000000" fill-opacity="0.0" d="m498.69815 399.68484c46.03122 9.742584 46.03122 -9.742584 92.057465 -9.742584l0 -5.8949585c0 0 3.4802856 -0.35299683 6.9556885 -0.35299683l0 -6.3009033c0 0 3.9605103 -0.26474 7.9210205 -0.26474l0 -50.802643l-92.220825 0l0 6.40683l-7.128937 0l0 6.5656433l-7.5844116 0z" fill-rule="nonzero"></path><path stroke="#000000" stroke-width="2.0" stroke-linejoin="round" stroke-linecap="butt" d="m498.69815 339.2985l92.057465 0l0 50.64377c-46.026245 0 -46.026245 19.485168 -92.057465 9.742584zm7.5844116 0l0 -6.5656433l91.42874 0l0 50.961456c-3.4754028 0 -6.9556885 0.35299683 -6.9556885 0.35299683m-77.34412 -51.314453l0 -6.40683l92.220825 0l0 50.802643c-3.9605103 0 -7.9210205 0.26474 -7.9210205 0.26474" fill-rule="nonzero"></path><path fill="#000000" fill-opacity="0.0" d="m404.62204 272.57538l94.078735 -95.33859" fill-rule="nonzero"></path><path stroke="#000000" stroke-width="2.0" stroke-linejoin="round" stroke-linecap="butt" d="m404.62204 272.57538l94.078735 -95.33859" fill-rule="nonzero"></path><path fill="#000000" fill-opacity="0.0" d="m404.62204 272.57538l212.28348 0" fill-rule="nonzero"></path><path stroke="#000000" stroke-width="2.0" stroke-linejoin="round" stroke-linecap="butt" d="m404.62204 272.57538l212.28348 0" fill-rule="nonzero"></path><path fill="#000000" fill-opacity="0.0" d="m404.62204 272.57538l94.078735 91.87399" fill-rule="nonzero"></path><path stroke="#000000" stroke-width="2.0" stroke-linejoin="round" stroke-linecap="butt" d="m404.62204 272.57538l94.078735 91.87399" fill-rule="nonzero"></path><path fill="#fce5cd" d="m23.393702 272.57538l0 0c0 -25.370316 34.91474 -45.93701 77.98425 -45.93701l0 0c43.06951 0 77.98426 20.566696 77.98426 45.93701l0 0c0 25.3703 -34.91475 45.93701 -77.98426 45.93701l0 0c-43.06951 0 -77.98425 -20.566711 -77.98425 -45.93701z" fill-rule="nonzero"></path><path stroke="#000000" stroke-width="2.0" stroke-linejoin="round" stroke-linecap="butt" d="m23.393702 272.57538l0 0c0 -25.370316 34.91474 -45.93701 77.98425 -45.93701l0 0c43.06951 0 77.98426 20.566696 77.98426 45.93701l0 0c0 25.3703 -34.91475 45.93701 -77.98426 45.93701l0 0c-43.06951 0 -77.98425 -20.566711 -77.98425 -45.93701z" fill-rule="nonzero"></path><path fill="#000000" fill-opacity="0.0" d="m179.36221 272.57538l225.25983 0" fill-rule="nonzero"></path><path stroke="#000000" stroke-width="2.0" stroke-linejoin="round" stroke-linecap="butt" d="m179.36221 272.57538l225.25983 0" fill-rule="nonzero"></path><path fill="#fce5cd" d="m23.393702 96.64099l0 0c0 -25.370308 34.91474 -45.93701 77.98425 -45.93701l0 0c43.06951 0 77.98426 20.566704 77.98426 45.93701l0 0c0 25.370308 -34.91475 45.93701 -77.98426 45.93701l0 0c-43.06951 0 -77.98425 -20.566704 -77.98425 -45.93701z" fill-rule="nonzero"></path><path stroke="#000000" stroke-width="2.0" stroke-linejoin="round" stroke-linecap="butt" d="m23.393702 96.64099l0 0c0 -25.370308 34.91474 -45.93701 77.98425 -45.93701l0 0c43.06951 0 77.98426 20.566704 77.98426 45.93701l0 0c0 25.370308 -34.91475 45.93701 -77.98426 45.93701l0 0c-43.06951 0 -77.98425 -20.566704 -77.98425 -45.93701z" fill-rule="nonzero"></path><path fill="#fce5cd" d="m23.393702 448.50977l0 0c0 -25.3703 34.91474 -45.93701 77.98425 -45.93701l0 0c43.06951 0 77.98426 20.566711 77.98426 45.93701l0 0c0 25.3703 -34.91475 45.93701 -77.98426 45.93701l0 0c-43.06951 0 -77.98425 -20.566711 -77.98425 -45.93701z" fill-rule="nonzero"></path><path stroke="#000000" stroke-width="2.0" stroke-linejoin="round" stroke-linecap="butt" d="m23.393702 448.50977l0 0c0 -25.3703 34.91474 -45.93701 77.98425 -45.93701l0 0c43.06951 0 77.98426 20.566711 77.98426 45.93701l0 0c0 25.3703 -34.91475 45.93701 -77.98426 45.93701l0 0c-43.06951 0 -77.98425 -20.566711 -77.98425 -45.93701z" fill-rule="nonzero"></path><path fill="#000000" fill-opacity="0.0" d="m179.36221 96.64099l225.25983 175.93701" fill-rule="nonzero"></path><path stroke="#000000" stroke-width="2.0" stroke-linejoin="round" stroke-linecap="butt" d="m179.36221 96.64099l225.25983 175.93701" fill-rule="nonzero"></path><path fill="#000000" fill-opacity="0.0" d="m179.36221 448.50977l225.25983 -175.93701" fill-rule="nonzero"></path><path stroke="#000000" stroke-width="2.0" stroke-linejoin="round" stroke-linecap="butt" d="m179.36221 448.50977l225.25983 -175.93701" fill-rule="nonzero"></path><path fill="#000000" fill-opacity="0.0" d="m67.3326 250.93423l96.37795 0l0 34.173218l-96.37795 0z" fill-rule="nonzero"></path><path fill="#000000" d="m86.00448 265.46362l0 2.5625l-0.921875 0q-0.21875 -0.796875 -0.5625 -1.28125q-0.34375 -0.484375 -0.796875 -0.6875q-0.453125 -0.203125 -1.09375 -0.203125q-0.96875 0 -1.71875 0.640625q-0.734375 0.640625 -1.171875 1.921875q-0.421875 1.265625 -0.421875 3.078125q0 1.8125 0.34375 3.109375q0.359375 1.28125 1.046875 1.9375q0.6875 0.640625 1.6875 0.640625q0.765625 0 1.25 -0.21875q0.484375 -0.21875 0.8125 -0.6875q0.328125 -0.46875 0.625 -1.390625l0.921875 0l0 2.65625q-0.875 0.234375 -1.796875 0.34375q-0.90625 0.125 -2.0 0.125q-2.359375 0 -3.5625 -1.59375q-1.203125 -1.609375 -1.203125 -4.765625q0 -1.984375 0.625 -3.46875q0.625 -1.5 1.828125 -2.3125q1.21875 -0.828125 2.90625 -0.828125q0.84375 0 1.5625 0.09375q0.71875 0.078125 1.640625 0.328125zm4.1972656 10.078125q0 0.796875 0.078125 1.109375q0.078125 0.296875 0.28125 0.46875q0.203125 0.15625 0.6875 0.28125l0 0.453125l-3.6875 0l0 -0.453125q0.46875 -0.125 0.640625 -0.25q0.1875 -0.125 0.265625 -0.3125q0.078125 -0.1875 0.109375 -0.484375q0.03125 -0.3125 0.03125 -0.8125l0 -7.765625q0 -0.890625 -0.015625 -1.25q-0.015625 -0.359375 -0.078125 -0.59375q-0.046875 -0.25 -0.15625 -0.390625q-0.109375 -0.140625 -0.296875 -0.21875q-0.171875 -0.09375 -0.65625 -0.171875l0 -0.484375l2.25 -0.09375l0.546875 0l0 10.96875zm5.2367554 -10.1875l0 1.796875l-1.703125 0l0 -1.796875l1.703125 0zm-2.640625 12.046875q0.359375 -0.109375 0.5 -0.1875q0.15625 -0.09375 0.265625 -0.234375q0.109375 -0.15625 0.171875 -0.453125q0.0625 -0.3125 0.0625 -0.96875l0 -4.046875q0 -0.59375 -0.03125 -0.953125q-0.015625 -0.359375 -0.125 -0.578125q-0.109375 -0.21875 -0.34375 -0.3125q-0.21875 -0.109375 -0.640625 -0.1875l0 -0.5l2.171875 -0.078125l0.5625 0l0 6.640625q0 0.796875 0.0625 1.109375q0.078125 0.296875 0.28125 0.46875q0.21875 0.15625 0.6875 0.28125l0 0.453125l-3.625 0l0 -0.453125zm12.589554 -1.125q-0.59375 0.625 -1.09375 0.984375q-0.5 0.34375 -1.09375 0.546875q-0.59375 0.203125 -1.296875 0.203125q-1.921875 0 -2.890625 -1.140625q-0.96875 -1.15625 -0.96875 -3.390625q0 -1.390625 0.484375 -2.4375q0.5 -1.0625 1.421875 -1.640625q0.921875 -0.578125 2.109375 -0.578125q0.9375 0 1.59375 0.296875q0.671875 0.296875 1.0625 0.8125q0.390625 0.515625 0.609375 1.3125q0.21875 0.78125 0.25 2.03125l-5.84375 0l0 0.171875q0 1.09375 0.234375 1.84375q0.25 0.75 0.8125 1.171875q0.5625 0.421875 1.46875 0.421875q0.75 0 1.359375 -0.28125q0.609375 -0.296875 1.21875 -0.9375l0.5625 0.609375zm-1.5625 -3.765625q-0.046875 -1.0 -0.25 -1.625q-0.1875 -0.640625 -0.578125 -0.984375q-0.390625 -0.34375 -1.015625 -0.34375q-0.96875 0 -1.546875 0.765625q-0.5625 0.765625 -0.65625 2.1875l4.046875 0zm12.287888 5.34375l-3.65625 0l0 -0.453125q0.359375 -0.109375 0.515625 -0.1875q0.15625 -0.09375 0.265625 -0.234375q0.109375 -0.15625 0.171875 -0.46875q0.0625 -0.3125 0.0625 -0.9375l0 -2.4375q0 -0.640625 -0.046875 -1.171875q-0.03125 -0.53125 -0.125 -0.859375q-0.078125 -0.34375 -0.203125 -0.53125q-0.125 -0.203125 -0.296875 -0.328125q-0.171875 -0.140625 -0.40625 -0.21875q-0.21875 -0.078125 -0.578125 -0.078125q-0.359375 0 -0.6875 0.15625q-0.328125 0.140625 -0.71875 0.5q-0.390625 0.34375 -0.5625 0.6875q-0.171875 0.34375 -0.171875 0.78125l0 3.46875q0 0.796875 0.0625 1.109375q0.078125 0.296875 0.28125 0.46875q0.21875 0.15625 0.6875 0.28125l0 0.453125l-3.625 0l0 -0.453125q0.359375 -0.109375 0.5 -0.1875q0.15625 -0.09375 0.265625 -0.234375q0.109375 -0.15625 0.171875 -0.453125q0.0625 -0.3125 0.0625 -0.96875l0 -4.046875q0 -0.59375 -0.03125 -0.953125q-0.015625 -0.359375 -0.125 -0.578125q-0.109375 -0.21875 -0.34375 -0.3125q-0.21875 -0.109375 -0.640625 -0.1875l0 -0.5l2.171875 -0.078125l0.5625 0l-0.09375 1.515625l0.125 0.03125q0.6875 -0.6875 1.109375 -0.984375q0.421875 -0.296875 0.84375 -0.453125q0.4375 -0.171875 0.921875 -0.171875q0.5 0 0.890625 0.125q0.40625 0.109375 0.703125 0.359375q0.296875 0.234375 0.484375 0.59375q0.203125 0.34375 0.296875 0.84375q0.109375 0.5 0.109375 1.28125l0 3.5q0 0.640625 0.03125 0.921875q0.046875 0.28125 0.125 0.453125q0.09375 0.15625 0.265625 0.265625q0.1875 0.09375 0.625 0.21875l0 0.453125zm0.81840515 -8.40625q0.46875 -0.078125 0.75 -0.25q0.28125 -0.1875 0.4375 -0.484375q0.171875 -0.296875 0.265625 -0.734375q0.09375 -0.4375 0.203125 -1.28125l1.3125 0l0 2.28125l3.0 0l0 0.9375l-3.0 0l0 4.140625q0 0.890625 0.0625 1.421875q0.078125 0.53125 0.28125 0.84375q0.21875 0.296875 0.46875 0.4375q0.265625 0.125 0.671875 0.125q0.375 0 0.6875 -0.15625q0.328125 -0.15625 0.640625 -0.4375l0.421875 0.5q-0.65625 0.640625 -1.25 0.9375q-0.578125 0.28125 -1.21875 0.28125q-1.1875 0 -1.78125 -0.703125q-0.578125 -0.71875 -0.578125 -2.234375l0 -5.15625l-1.375 0l0 -0.46875z" fill-rule="nonzero"></path><path fill="#000000" fill-opacity="0.0" d="m67.33359 52.0841l96.377945 0l0 34.173233l-96.377945 0z" fill-rule="nonzero"></path><path fill="#000000" d="m86.00546 66.61347l0 2.5625l-0.921875 0q-0.21875 -0.796875 -0.5625 -1.28125q-0.34375 -0.484375 -0.796875 -0.6875q-0.453125 -0.203125 -1.09375 -0.203125q-0.96875 0 -1.71875 0.640625q-0.734375 0.640625 -1.171875 1.921875q-0.421875 1.265625 -0.421875 3.078125q0 1.8125 0.34375 3.109375q0.359375 1.28125 1.046875 1.9375q0.6875 0.640625 1.6875 0.640625q0.765625 0 1.25 -0.21875q0.484375 -0.21875 0.8125 -0.6875q0.328125 -0.46875 0.625 -1.390625l0.921875 0l0 2.65625q-0.875 0.234375 -1.796875 0.34375q-0.90625 0.125 -2.0 0.125q-2.359375 0 -3.5625 -1.59375q-1.203125 -1.609375 -1.203125 -4.765625q0 -1.984375 0.625 -3.46875q0.625 -1.5 1.828125 -2.3125q1.21875 -0.828125 2.90625 -0.828125q0.84375 0 1.5625 0.09375q0.71875 0.078125 1.640625 0.328125zm4.1972656 10.078125q0 0.796875 0.078125 1.109375q0.078125 0.296875 0.28125 0.46875q0.203125 0.15625 0.6875 0.28125l0 0.453125l-3.6875 0l0 -0.453125q0.46875 -0.125 0.640625 -0.25q0.1875 -0.125 0.265625 -0.3125q0.078125 -0.1875 0.109375 -0.484375q0.03125 -0.3125 0.03125 -0.8125l0 -7.765625q0 -0.890625 -0.015625 -1.25q-0.015625 -0.359375 -0.078125 -0.59375q-0.046875 -0.25 -0.15625 -0.390625q-0.109375 -0.140625 -0.296875 -0.21875q-0.171875 -0.09375 -0.65625 -0.171875l0 -0.484375l2.25 -0.09375l0.546875 0l0 10.96875zm5.2367554 -10.1875l0 1.796875l-1.703125 0l0 -1.796875l1.703125 0zm-2.640625 12.046875q0.359375 -0.109375 0.5 -0.1875q0.15625 -0.09375 0.265625 -0.234375q0.109375 -0.15625 0.171875 -0.453125q0.0625 -0.3125 0.0625 -0.96875l0 -4.046875q0 -0.59375 -0.03125 -0.953125q-0.015625 -0.359375 -0.125 -0.578125q-0.109375 -0.21875 -0.34375 -0.3125q-0.21875 -0.109375 -0.640625 -0.1875l0 -0.5l2.171875 -0.078125l0.5625 0l0 6.640625q0 0.796875 0.0625 1.109375q0.078125 0.296875 0.28125 0.46875q0.21875 0.15625 0.6875 0.28125l0 0.453125l-3.625 0l0 -0.453125zm12.589554 -1.125q-0.59375 0.625 -1.09375 0.984375q-0.5 0.34375 -1.09375 0.546875q-0.59375 0.203125 -1.296875 0.203125q-1.921875 0 -2.890625 -1.140625q-0.96875 -1.15625 -0.96875 -3.390625q0 -1.390625 0.484375 -2.4375q0.5 -1.0625 1.421875 -1.640625q0.921875 -0.578125 2.109375 -0.578125q0.9375 0 1.59375 0.296875q0.671875 0.296875 1.0625 0.8125q0.390625 0.515625 0.609375 1.3125q0.21875 0.78125 0.25 2.03125l-5.84375 0l0 0.171875q0 1.09375 0.234375 1.84375q0.25 0.75 0.8125 1.171875q0.5625 0.421875 1.46875 0.421875q0.75 0 1.359375 -0.28125q0.609375 -0.296875 1.21875 -0.9375l0.5625 0.609375zm-1.5625 -3.765625q-0.046875 -1.0 -0.25 -1.625q-0.1875 -0.640625 -0.578125 -0.984375q-0.390625 -0.34375 -1.015625 -0.34375q-0.96875 0 -1.546875 0.765625q-0.5625 0.765625 -0.65625 2.1875l4.046875 0zm12.287888 5.34375l-3.65625 0l0 -0.453125q0.359375 -0.109375 0.515625 -0.1875q0.15625 -0.09375 0.265625 -0.234375q0.109375 -0.15625 0.171875 -0.46875q0.0625 -0.3125 0.0625 -0.9375l0 -2.4375q0 -0.640625 -0.046875 -1.171875q-0.03125 -0.53125 -0.125 -0.859375q-0.078125 -0.34375 -0.203125 -0.53125q-0.125 -0.203125 -0.296875 -0.328125q-0.171875 -0.140625 -0.40625 -0.21875q-0.21875 -0.078125 -0.578125 -0.078125q-0.359375 0 -0.6875 0.15625q-0.328125 0.140625 -0.71875 0.5q-0.390625 0.34375 -0.5625 0.6875q-0.171875 0.34375 -0.171875 0.78125l0 3.46875q0 0.796875 0.0625 1.109375q0.078125 0.296875 0.28125 0.46875q0.21875 0.15625 0.6875 0.28125l0 0.453125l-3.625 0l0 -0.453125q0.359375 -0.109375 0.5 -0.1875q0.15625 -0.09375 0.265625 -0.234375q0.109375 -0.15625 0.171875 -0.453125q0.0625 -0.3125 0.0625 -0.96875l0 -4.046875q0 -0.59375 -0.03125 -0.953125q-0.015625 -0.359375 -0.125 -0.578125q-0.109375 -0.21875 -0.34375 -0.3125q-0.21875 -0.109375 -0.640625 -0.1875l0 -0.5l2.171875 -0.078125l0.5625 0l-0.09375 1.515625l0.125 0.03125q0.6875 -0.6875 1.109375 -0.984375q0.421875 -0.296875 0.84375 -0.453125q0.4375 -0.171875 0.921875 -0.171875q0.5 0 0.890625 0.125q0.40625 0.109375 0.703125 0.359375q0.296875 0.234375 0.484375 0.59375q0.203125 0.34375 0.296875 0.84375q0.109375 0.5 0.109375 1.28125l0 3.5q0 0.640625 0.03125 0.921875q0.046875 0.28125 0.125 0.453125q0.09375 0.15625 0.265625 0.265625q0.1875 0.09375 0.625 0.21875l0 0.453125zm0.81840515 -8.40625q0.46875 -0.078125 0.75 -0.25q0.28125 -0.1875 0.4375 -0.484375q0.171875 -0.296875 0.265625 -0.734375q0.09375 -0.4375 0.203125 -1.28125l1.3125 0l0 2.28125l3.0 0l0 0.9375l-3.0 0l0 4.140625q0 0.890625 0.0625 1.421875q0.078125 0.53125 0.28125 0.84375q0.21875 0.296875 0.46875 0.4375q0.265625 0.125 0.671875 0.125q0.375 0 0.6875 -0.15625q0.328125 -0.15625 0.640625 -0.4375l0.421875 0.5q-0.65625 0.640625 -1.25 0.9375q-0.578125 0.28125 -1.21875 0.28125q-1.1875 0 -1.78125 -0.703125q-0.578125 -0.71875 -0.578125 -2.234375l0 -5.15625l-1.375 0l0 -0.46875z" fill-rule="nonzero"></path><path fill="#000000" d="m102.813 96.22285l0 3.515625l-1.359375 0l0 -3.515625l-3.421875 0l0 -1.296875l3.421875 0l0 -3.5l1.359375 0l0 3.5l3.4375 0l0 1.296875l-3.4375 0z" fill-rule="nonzero"></path><path fill="#000000" d="m86.00546 110.61347l0 2.5625l-0.921875 0q-0.21875 -0.796875 -0.5625 -1.28125q-0.34375 -0.484375 -0.796875 -0.6875q-0.453125 -0.203125 -1.09375 -0.203125q-0.96875 0 -1.71875 0.640625q-0.734375 0.640625 -1.171875 1.921875q-0.421875 1.265625 -0.421875 3.078125q0 1.8125 0.34375 3.109375q0.359375 1.28125 1.046875 1.9375q0.6875 0.640625 1.6875 0.640625q0.765625 0 1.25 -0.21875q0.484375 -0.21875 0.8125 -0.6875q0.328125 -0.46875 0.625 -1.390625l0.921875 0l0 2.65625q-0.875 0.234375 -1.796875 0.34375q-0.90625 0.125 -2.0 0.125q-2.359375 0 -3.5625 -1.59375q-1.203125 -1.609375 -1.203125 -4.765625q0 -1.984375 0.625 -3.46875q0.625 -1.5 1.828125 -2.3125q1.21875 -0.828125 2.90625 -0.828125q0.84375 0 1.5625 0.09375q0.71875 0.078125 1.640625 0.328125zm7.0878906 11.0625l-0.140625 -0.03125q-0.8125 0.828125 -1.53125 1.171875q-0.703125 0.34375 -1.5 0.34375q-0.703125 0 -1.25 -0.28125q-0.53125 -0.28125 -0.8125 -0.765625q-0.28125 -0.5 -0.28125 -1.15625q0 -1.34375 1.328125 -2.078125q1.34375 -0.75 4.03125 -0.859375l0 -0.609375q0 -0.96875 -0.1875 -1.515625q-0.1875 -0.5625 -0.59375 -0.8125q-0.390625 -0.265625 -1.0625 -0.265625q-0.71875 0 -1.171875 0.375q-0.4375 0.375 -0.65625 1.140625l-1.21875 0l0 -1.203125q0.890625 -0.46875 1.484375 -0.6875q0.59375 -0.21875 1.1875 -0.34375q0.59375 -0.125 1.21875 -0.125q0.90625 0 1.46875 0.296875q0.5625 0.296875 0.828125 0.90625q0.28125 0.59375 0.28125 1.8125l0 3.21875q0 0.6875 0 0.96875q0.015625 0.28125 0.0625 0.53125q0.046875 0.234375 0.140625 0.390625q0.09375 0.140625 0.265625 0.25q0.1875 0.09375 0.609375 0.203125l0 0.453125l-2.546875 0l0.046875 -1.328125zm-0.15625 -2.90625q-1.890625 0.015625 -2.828125 0.5q-0.9375 0.484375 -0.9375 1.46875q0 0.515625 0.21875 0.828125q0.21875 0.3125 0.53125 0.421875q0.328125 0.109375 0.78125 0.109375q0.625 0 1.140625 -0.296875q0.515625 -0.3125 0.796875 -0.78125q0.296875 -0.46875 0.296875 -0.9375l0 -1.3125zm10.812622 -4.421875l0 1.9375l-1.171875 0q-0.171875 -0.59375 -0.40625 -0.9375q-0.21875 -0.359375 -0.53125 -0.5q-0.296875 -0.140625 -0.765625 -0.140625q-0.640625 0 -1.140625 0.421875q-0.5 0.421875 -0.796875 1.28125q-0.296875 0.84375 -0.296875 2.078125q0 0.78125 0.109375 1.4375q0.125 0.65625 0.390625 1.125q0.265625 0.453125 0.703125 0.71875q0.453125 0.265625 1.109375 0.265625q0.640625 0 1.1875 -0.25q0.5625 -0.25 1.15625 -0.890625l0.53125 0.609375q-0.484375 0.53125 -0.84375 0.8125q-0.359375 0.28125 -0.78125 0.46875q-0.40625 0.1875 -0.8125 0.28125q-0.390625 0.09375 -0.875 0.09375q-1.75 0 -2.6875 -1.171875q-0.921875 -1.171875 -0.921875 -3.359375q0 -1.375 0.515625 -2.4375q0.53125 -1.0625 1.46875 -1.640625q0.9375 -0.578125 2.15625 -0.578125q0.765625 0 1.40625 0.09375q0.640625 0.09375 1.296875 0.28125zm3.8040009 1.25l0.03125 0q0.71875 -0.734375 1.140625 -1.015625q0.421875 -0.296875 0.828125 -0.4375q0.421875 -0.15625 0.90625 -0.15625q0.5 0 0.890625 0.125q0.40625 0.109375 0.703125 0.359375q0.3125 0.25 0.5 0.609375q0.1875 0.34375 0.28125 0.84375q0.09375 0.5 0.09375 1.265625l0 3.5q0 0.796875 0.0625 1.09375q0.078125 0.296875 0.25 0.453125q0.1875 0.15625 0.734375 0.3125l0 0.453125l-3.65625 0l0 -0.453125q0.359375 -0.109375 0.515625 -0.1875q0.171875 -0.09375 0.265625 -0.234375q0.109375 -0.15625 0.171875 -0.46875q0.0625 -0.3125 0.0625 -0.9375l0 -2.4375q0 -1.234375 -0.125 -1.875q-0.125 -0.65625 -0.5 -0.984375q-0.359375 -0.328125 -1.015625 -0.328125q-0.375 0 -0.671875 0.140625q-0.296875 0.125 -0.6875 0.453125q-0.390625 0.328125 -0.59375 0.6875q-0.1875 0.359375 -0.1875 0.75l0 3.5625q0 0.625 0.03125 0.890625q0.03125 0.265625 0.125 0.453125q0.09375 0.1875 0.28125 0.296875q0.1875 0.109375 0.59375 0.21875l0 0.453125l-3.671875 0l0 -0.453125q0.40625 -0.109375 0.578125 -0.203125q0.171875 -0.109375 0.265625 -0.265625q0.109375 -0.15625 0.15625 -0.453125q0.046875 -0.296875 0.046875 -0.9375l0 -7.765625q0 -0.890625 -0.015625 -1.25q-0.015625 -0.359375 -0.078125 -0.59375q-0.0625 -0.25 -0.171875 -0.390625q-0.109375 -0.140625 -0.296875 -0.21875q-0.171875 -0.09375 -0.640625 -0.171875l0 -0.484375l2.234375 -0.09375l0.5625 0l0 5.875zm15.215607 5.828125q-0.59375 0.625 -1.09375 0.984375q-0.5 0.34375 -1.09375 0.546875q-0.59375 0.203125 -1.296875 0.203125q-1.921875 0 -2.890625 -1.140625q-0.96875 -1.15625 -0.96875 -3.390625q0 -1.390625 0.484375 -2.4375q0.5 -1.0625 1.421875 -1.640625q0.921875 -0.578125 2.109375 -0.578125q0.9375 0 1.59375 0.296875q0.671875 0.296875 1.0625 0.8125q0.390625 0.515625 0.609375 1.3125q0.21875 0.78125 0.25 2.03125l-5.84375 0l0 0.171875q0 1.09375 0.234375 1.84375q0.25 0.75 0.8125 1.171875q0.5625 0.421875 1.46875 0.421875q0.75 0 1.359375 -0.28125q0.609375 -0.296875 1.21875 -0.9375l0.5625 0.609375zm-1.5625 -3.765625q-0.046875 -1.0 -0.25 -1.625q-0.1875 -0.640625 -0.578125 -0.984375q-0.390625 -0.34375 -1.015625 -0.34375q-0.96875 0 -1.546875 0.765625q-0.5625 0.765625 -0.65625 2.1875l4.046875 0z" fill-rule="nonzero"></path><path fill="#000000" fill-opacity="0.0" d="m560.1459 90.97848l84.409424 0l0 34.173233l-84.409424 0z" fill-rule="nonzero"></path><path fill="#000000" d="m571.1146 115.00785q0.1875 0.828125 0.5 1.296875q0.3125 0.46875 0.8125 0.703125q0.5 0.21875 1.296875 0.21875q1.078125 0 1.65625 -0.5625q0.578125 -0.5625 0.578125 -1.65625q0 -0.6875 -0.234375 -1.15625q-0.234375 -0.484375 -0.796875 -0.890625q-0.546875 -0.421875 -1.65625 -0.984375q-1.09375 -0.53125 -1.734375 -1.046875q-0.625 -0.515625 -0.9375 -1.109375q-0.296875 -0.609375 -0.296875 -1.328125q0 -1.046875 0.484375 -1.8125q0.484375 -0.765625 1.421875 -1.171875q0.953125 -0.421875 2.15625 -0.421875q0.703125 0 1.375 0.078125q0.6875 0.078125 1.6875 0.328125l0 2.5l-0.921875 0q-0.203125 -0.8125 -0.53125 -1.265625q-0.328125 -0.453125 -0.765625 -0.625q-0.4375 -0.1875 -1.125 -0.1875q-0.609375 0 -1.09375 0.21875q-0.46875 0.21875 -0.75 0.671875q-0.265625 0.453125 -0.265625 1.078125q0 0.65625 0.234375 1.109375q0.234375 0.453125 0.734375 0.84375q0.5 0.390625 1.484375 0.875q1.1875 0.59375 1.84375 1.109375q0.65625 0.5 1.015625 1.15625q0.359375 0.65625 0.359375 1.53125q0 0.96875 -0.3125 1.640625q-0.296875 0.671875 -0.84375 1.09375q-0.53125 0.421875 -1.296875 0.625q-0.75 0.1875 -1.65625 0.1875q-1.453125 0 -3.34375 -0.5l0 -2.546875l0.921875 0zm15.598999 1.3125q-0.59375 0.625 -1.09375 0.984375q-0.5 0.34375 -1.09375 0.546875q-0.59375 0.203125 -1.296875 0.203125q-1.921875 0 -2.890625 -1.140625q-0.96875 -1.15625 -0.96875 -3.390625q0 -1.390625 0.484375 -2.4375q0.5 -1.0625 1.421875 -1.640625q0.921875 -0.578125 2.109375 -0.578125q0.9375 0 1.59375 0.296875q0.671875 0.296875 1.0625 0.8125q0.390625 0.515625 0.609375 1.3125q0.21875 0.78125 0.25 2.03125l-5.84375 0l0 0.171875q0 1.09375 0.234375 1.84375q0.25 0.75 0.8125 1.171875q0.5625 0.421875 1.46875 0.421875q0.75 0 1.359375 -0.28125q0.609375 -0.296875 1.21875 -0.9375l0.5625 0.609375zm-1.5625 -3.765625q-0.046875 -1.0 -0.25 -1.625q-0.1875 -0.640625 -0.578125 -0.984375q-0.390625 -0.34375 -1.015625 -0.34375q-0.96875 0 -1.546875 0.765625q-0.5625 0.765625 -0.65625 2.1875l4.046875 0zm5.756653 -1.984375l0.125 0.03125q0.515625 -0.625 0.953125 -0.984375q0.4375 -0.359375 0.9375 -0.546875q0.5 -0.203125 1.140625 -0.203125q0.546875 0 0.984375 0.0625l0 2.125l-1.046875 0q-0.234375 -0.5 -0.484375 -0.71875q-0.25 -0.234375 -0.6875 -0.234375q-0.328125 0 -0.65625 0.203125q-0.328125 0.1875 -0.640625 0.5625q-0.296875 0.375 -0.421875 0.703125q-0.109375 0.3125 -0.109375 0.765625l0 3.25q0 0.84375 0.09375 1.171875q0.109375 0.3125 0.34375 0.46875q0.234375 0.140625 0.703125 0.21875l0 0.453125l-3.734375 0l0 -0.453125q0.359375 -0.109375 0.5 -0.1875q0.15625 -0.09375 0.265625 -0.234375q0.125 -0.15625 0.171875 -0.453125q0.0625 -0.3125 0.0625 -0.96875l0 -4.046875q0 -0.59375 -0.03125 -0.953125q-0.015625 -0.359375 -0.125 -0.578125q-0.109375 -0.21875 -0.34375 -0.3125q-0.21875 -0.109375 -0.640625 -0.1875l0 -0.484375l2.171875 -0.09375l0.5625 0l-0.09375 1.625zm8.278259 -1.546875l0 0.453125q-0.4375 0.109375 -0.609375 0.203125q-0.171875 0.09375 -0.265625 0.25q-0.09375 0.140625 -0.09375 0.390625q0 0.25 0.0625 0.53125q0.0625 0.265625 0.1875 0.625l1.625 4.703125l1.890625 -4.5q0.1875 -0.453125 0.25 -0.734375q0.078125 -0.296875 0.078125 -0.546875q0 -0.390625 -0.203125 -0.59375q-0.203125 -0.203125 -0.765625 -0.328125l0 -0.453125l3.46875 0l0 0.453125q-0.359375 0.078125 -0.5625 0.234375q-0.1875 0.15625 -0.390625 0.484375q-0.1875 0.328125 -0.453125 0.921875l-3.125 6.875l-1.09375 0l-2.515625 -6.9375q-0.265625 -0.703125 -0.421875 -0.96875q-0.15625 -0.265625 -0.34375 -0.390625q-0.171875 -0.140625 -0.515625 -0.21875l0 -0.453125l3.796875 0zm13.744751 7.296875q-0.59375 0.625 -1.09375 0.984375q-0.5 0.34375 -1.09375 0.546875q-0.59375 0.203125 -1.296875 0.203125q-1.921875 0 -2.890625 -1.140625q-0.96875 -1.15625 -0.96875 -3.390625q0 -1.390625 0.484375 -2.4375q0.5 -1.0625 1.421875 -1.640625q0.921875 -0.578125 2.109375 -0.578125q0.9375 0 1.59375 0.296875q0.671875 0.296875 1.0625 0.8125q0.390625 0.515625 0.609375 1.3125q0.21875 0.78125 0.25 2.03125l-5.84375 0l0 0.171875q0 1.09375 0.234375 1.84375q0.25 0.75 0.8125 1.171875q0.5625 0.421875 1.46875 0.421875q0.75 0 1.359375 -0.28125q0.609375 -0.296875 1.21875 -0.9375l0.5625 0.609375zm-1.5625 -3.765625q-0.046875 -1.0 -0.25 -1.625q-0.1875 -0.640625 -0.578125 -0.984375q-0.390625 -0.34375 -1.015625 -0.34375q-0.96875 0 -1.546875 0.765625q-0.5625 0.765625 -0.65625 2.1875l4.046875 0zm5.756592 -1.984375l0.125 0.03125q0.515625 -0.625 0.953125 -0.984375q0.4375 -0.359375 0.9375 -0.546875q0.5 -0.203125 1.140625 -0.203125q0.546875 0 0.984375 0.0625l0 2.125l-1.046875 0q-0.234375 -0.5 -0.484375 -0.71875q-0.25 -0.234375 -0.6875 -0.234375q-0.328125 0 -0.65625 0.203125q-0.328125 0.1875 -0.640625 0.5625q-0.296875 0.375 -0.421875 0.703125q-0.109375 0.3125 -0.109375 0.765625l0 3.25q0 0.84375 0.09375 1.171875q0.109375 0.3125 0.34375 0.46875q0.234375 0.140625 0.703125 0.21875l0 0.453125l-3.734375 0l0 -0.453125q0.359375 -0.109375 0.5 -0.1875q0.15625 -0.09375 0.265625 -0.234375q0.125 -0.15625 0.171875 -0.453125q0.0625 -0.3125 0.0625 -0.96875l0 -4.046875q0 -0.59375 -0.03125 -0.953125q-0.015625 -0.359375 -0.125 -0.578125q-0.109375 -0.21875 -0.34375 -0.3125q-0.21875 -0.109375 -0.640625 -0.1875l0 -0.484375l2.171875 -0.09375l0.5625 0l-0.09375 1.625z" fill-rule="nonzero"></path><path fill="#ffd966" d="m157.7559 448.08923l0 0c0 -5.9664 4.836731 -10.803131 10.803146 -10.803131l0 0c2.8651733 0 5.6130066 1.1381836 7.638977 3.164154c2.0259857 2.0259705 3.1641693 4.7738037 3.1641693 7.638977l0 0c0 5.9664307 -4.836731 10.803162 -10.803146 10.803162l0 0c-5.9664154 0 -10.803146 -4.836731 -10.803146 -10.803162z" fill-rule="nonzero"></path><path stroke="#000000" stroke-width="2.0" stroke-linejoin="round" stroke-linecap="butt" d="m157.7559 448.08923l0 0c0 -5.9664 4.836731 -10.803131 10.803146 -10.803131l0 0c2.8651733 0 5.6130066 1.1381836 7.638977 3.164154c2.0259857 2.0259705 3.1641693 4.7738037 3.1641693 7.638977l0 0c0 5.9664307 -4.836731 10.803162 -10.803146 10.803162l0 0c-5.9664154 0 -10.803146 -4.836731 -10.803146 -10.803162z" fill-rule="nonzero"></path><path fill="#ffd966" d="m157.7559 97.06036l0 0c0 -5.966408 4.836731 -10.803146 10.803146 -10.803146l0 0c2.8651733 0 5.6130066 1.1381836 7.638977 3.1641693c2.0259857 2.0259857 3.1641693 4.7738037 3.1641693 7.638977l0 0c0 5.9664154 -4.836731 10.803154 -10.803146 10.803154l0 0c-5.9664154 0 -10.803146 -4.8367386 -10.803146 -10.803154z" fill-rule="nonzero"></path><path stroke="#000000" stroke-width="2.0" stroke-linejoin="round" stroke-linecap="butt" d="m157.7559 97.06036l0 0c0 -5.966408 4.836731 -10.803146 10.803146 -10.803146l0 0c2.8651733 0 5.6130066 1.1381836 7.638977 3.1641693c2.0259857 2.0259857 3.1641693 4.7738037 3.1641693 7.638977l0 0c0 5.9664154 -4.836731 10.803154 -10.803146 10.803154l0 0c-5.9664154 0 -10.803146 -4.8367386 -10.803146 -10.803154z" fill-rule="nonzero"></path><path fill="#000000" fill-opacity="0.0" d="m67.33359 403.87668l96.377945 0l0 34.17325l-96.377945 0z" fill-rule="nonzero"></path><path fill="#000000" d="m86.00546 418.40607l0 2.5625l-0.921875 0q-0.21875 -0.796875 -0.5625 -1.28125q-0.34375 -0.484375 -0.796875 -0.6875q-0.453125 -0.203125 -1.09375 -0.203125q-0.96875 0 -1.71875 0.640625q-0.734375 0.640625 -1.171875 1.921875q-0.421875 1.265625 -0.421875 3.078125q0 1.8125 0.34375 3.109375q0.359375 1.28125 1.046875 1.9375q0.6875 0.640625 1.6875 0.640625q0.765625 0 1.25 -0.21875q0.484375 -0.21875 0.8125 -0.6875q0.328125 -0.46875 0.625 -1.390625l0.921875 0l0 2.65625q-0.875 0.234375 -1.796875 0.34375q-0.90625 0.125 -2.0 0.125q-2.359375 0 -3.5625 -1.59375q-1.203125 -1.609375 -1.203125 -4.765625q0 -1.984375 0.625 -3.46875q0.625 -1.5 1.828125 -2.3125q1.21875 -0.828125 2.90625 -0.828125q0.84375 0 1.5625 0.09375q0.71875 0.078125 1.640625 0.328125zm4.1972656 10.078125q0 0.796875 0.078125 1.109375q0.078125 0.296875 0.28125 0.46875q0.203125 0.15625 0.6875 0.28125l0 0.453125l-3.6875 0l0 -0.453125q0.46875 -0.125 0.640625 -0.25q0.1875 -0.125 0.265625 -0.3125q0.078125 -0.1875 0.109375 -0.484375q0.03125 -0.3125 0.03125 -0.8125l0 -7.765625q0 -0.890625 -0.015625 -1.25q-0.015625 -0.359375 -0.078125 -0.59375q-0.046875 -0.25 -0.15625 -0.390625q-0.109375 -0.140625 -0.296875 -0.21875q-0.171875 -0.09375 -0.65625 -0.171875l0 -0.484375l2.25 -0.09375l0.546875 0l0 10.96875zm5.2367554 -10.1875l0 1.796875l-1.703125 0l0 -1.796875l1.703125 0zm-2.640625 12.046875q0.359375 -0.109375 0.5 -0.1875q0.15625 -0.09375 0.265625 -0.234375q0.109375 -0.15625 0.171875 -0.453125q0.0625 -0.3125 0.0625 -0.96875l0 -4.046875q0 -0.59375 -0.03125 -0.953125q-0.015625 -0.359375 -0.125 -0.578125q-0.109375 -0.21875 -0.34375 -0.3125q-0.21875 -0.109375 -0.640625 -0.1875l0 -0.5l2.171875 -0.078125l0.5625 0l0 6.640625q0 0.796875 0.0625 1.109375q0.078125 0.296875 0.28125 0.46875q0.21875 0.15625 0.6875 0.28125l0 0.453125l-3.625 0l0 -0.453125zm12.589554 -1.125q-0.59375 0.625 -1.09375 0.984375q-0.5 0.34375 -1.09375 0.546875q-0.59375 0.203125 -1.296875 0.203125q-1.921875 0 -2.890625 -1.140625q-0.96875 -1.15625 -0.96875 -3.390625q0 -1.390625 0.484375 -2.4375q0.5 -1.0625 1.421875 -1.640625q0.921875 -0.578125 2.109375 -0.578125q0.9375 0 1.59375 0.296875q0.671875 0.296875 1.0625 0.8125q0.390625 0.515625 0.609375 1.3125q0.21875 0.78125 0.25 2.03125l-5.84375 0l0 0.171875q0 1.09375 0.234375 1.84375q0.25 0.75 0.8125 1.171875q0.5625 0.421875 1.46875 0.421875q0.75 0 1.359375 -0.28125q0.609375 -0.296875 1.21875 -0.9375l0.5625 0.609375zm-1.5625 -3.765625q-0.046875 -1.0 -0.25 -1.625q-0.1875 -0.640625 -0.578125 -0.984375q-0.390625 -0.34375 -1.015625 -0.34375q-0.96875 0 -1.546875 0.765625q-0.5625 0.765625 -0.65625 2.1875l4.046875 0zm12.287888 5.34375l-3.65625 0l0 -0.453125q0.359375 -0.109375 0.515625 -0.1875q0.15625 -0.09375 0.265625 -0.234375q0.109375 -0.15625 0.171875 -0.46875q0.0625 -0.3125 0.0625 -0.9375l0 -2.4375q0 -0.640625 -0.046875 -1.171875q-0.03125 -0.53125 -0.125 -0.859375q-0.078125 -0.34375 -0.203125 -0.53125q-0.125 -0.203125 -0.296875 -0.328125q-0.171875 -0.140625 -0.40625 -0.21875q-0.21875 -0.078125 -0.578125 -0.078125q-0.359375 0 -0.6875 0.15625q-0.328125 0.140625 -0.71875 0.5q-0.390625 0.34375 -0.5625 0.6875q-0.171875 0.34375 -0.171875 0.78125l0 3.46875q0 0.796875 0.0625 1.109375q0.078125 0.296875 0.28125 0.46875q0.21875 0.15625 0.6875 0.28125l0 0.453125l-3.625 0l0 -0.453125q0.359375 -0.109375 0.5 -0.1875q0.15625 -0.09375 0.265625 -0.234375q0.109375 -0.15625 0.171875 -0.453125q0.0625 -0.3125 0.0625 -0.96875l0 -4.046875q0 -0.59375 -0.03125 -0.953125q-0.015625 -0.359375 -0.125 -0.578125q-0.109375 -0.21875 -0.34375 -0.3125q-0.21875 -0.109375 -0.640625 -0.1875l0 -0.5l2.171875 -0.078125l0.5625 0l-0.09375 1.515625l0.125 0.03125q0.6875 -0.6875 1.109375 -0.984375q0.421875 -0.296875 0.84375 -0.453125q0.4375 -0.171875 0.921875 -0.171875q0.5 0 0.890625 0.125q0.40625 0.109375 0.703125 0.359375q0.296875 0.234375 0.484375 0.59375q0.203125 0.34375 0.296875 0.84375q0.109375 0.5 0.109375 1.28125l0 3.5q0 0.640625 0.03125 0.921875q0.046875 0.28125 0.125 0.453125q0.09375 0.15625 0.265625 0.265625q0.1875 0.09375 0.625 0.21875l0 0.453125zm0.81840515 -8.40625q0.46875 -0.078125 0.75 -0.25q0.28125 -0.1875 0.4375 -0.484375q0.171875 -0.296875 0.265625 -0.734375q0.09375 -0.4375 0.203125 -1.28125l1.3125 0l0 2.28125l3.0 0l0 0.9375l-3.0 0l0 4.140625q0 0.890625 0.0625 1.421875q0.078125 0.53125 0.28125 0.84375q0.21875 0.296875 0.46875 0.4375q0.265625 0.125 0.671875 0.125q0.375 0 0.6875 -0.15625q0.328125 -0.15625 0.640625 -0.4375l0.421875 0.5q-0.65625 0.640625 -1.25 0.9375q-0.578125 0.28125 -1.21875 0.28125q-1.1875 0 -1.78125 -0.703125q-0.578125 -0.71875 -0.578125 -2.234375l0 -5.15625l-1.375 0l0 -0.46875z" fill-rule="nonzero"></path><path fill="#000000" d="m102.813 448.01544l0 3.515625l-1.359375 0l0 -3.515625l-3.421875 0l0 -1.296875l3.421875 0l0 -3.5l1.359375 0l0 3.5l3.4375 0l0 1.296875l-3.4375 0z" fill-rule="nonzero"></path><path fill="#000000" d="m86.00546 462.40607l0 2.5625l-0.921875 0q-0.21875 -0.796875 -0.5625 -1.28125q-0.34375 -0.484375 -0.796875 -0.6875q-0.453125 -0.203125 -1.09375 -0.203125q-0.96875 0 -1.71875 0.640625q-0.734375 0.640625 -1.171875 1.921875q-0.421875 1.265625 -0.421875 3.078125q0 1.8125 0.34375 3.109375q0.359375 1.28125 1.046875 1.9375q0.6875 0.640625 1.6875 0.640625q0.765625 0 1.25 -0.21875q0.484375 -0.21875 0.8125 -0.6875q0.328125 -0.46875 0.625 -1.390625l0.921875 0l0 2.65625q-0.875 0.234375 -1.796875 0.34375q-0.90625 0.125 -2.0 0.125q-2.359375 0 -3.5625 -1.59375q-1.203125 -1.609375 -1.203125 -4.765625q0 -1.984375 0.625 -3.46875q0.625 -1.5 1.828125 -2.3125q1.21875 -0.828125 2.90625 -0.828125q0.84375 0 1.5625 0.09375q0.71875 0.078125 1.640625 0.328125zm7.0878906 11.0625l-0.140625 -0.03125q-0.8125 0.828125 -1.53125 1.171875q-0.703125 0.34375 -1.5 0.34375q-0.703125 0 -1.25 -0.28125q-0.53125 -0.28125 -0.8125 -0.765625q-0.28125 -0.5 -0.28125 -1.15625q0 -1.34375 1.328125 -2.078125q1.34375 -0.75 4.03125 -0.859375l0 -0.609375q0 -0.96875 -0.1875 -1.515625q-0.1875 -0.5625 -0.59375 -0.8125q-0.390625 -0.265625 -1.0625 -0.265625q-0.71875 0 -1.171875 0.375q-0.4375 0.375 -0.65625 1.140625l-1.21875 0l0 -1.203125q0.890625 -0.46875 1.484375 -0.6875q0.59375 -0.21875 1.1875 -0.34375q0.59375 -0.125 1.21875 -0.125q0.90625 0 1.46875 0.296875q0.5625 0.296875 0.828125 0.90625q0.28125 0.59375 0.28125 1.8125l0 3.21875q0 0.6875 0 0.96875q0.015625 0.28125 0.0625 0.53125q0.046875 0.234375 0.140625 0.390625q0.09375 0.140625 0.265625 0.25q0.1875 0.09375 0.609375 0.203125l0 0.453125l-2.546875 0l0.046875 -1.328125zm-0.15625 -2.90625q-1.890625 0.015625 -2.828125 0.5q-0.9375 0.484375 -0.9375 1.46875q0 0.515625 0.21875 0.828125q0.21875 0.3125 0.53125 0.421875q0.328125 0.109375 0.78125 0.109375q0.625 0 1.140625 -0.296875q0.515625 -0.3125 0.796875 -0.78125q0.296875 -0.46875 0.296875 -0.9375l0 -1.3125zm10.812622 -4.421875l0 1.9375l-1.171875 0q-0.171875 -0.59375 -0.40625 -0.9375q-0.21875 -0.359375 -0.53125 -0.5q-0.296875 -0.140625 -0.765625 -0.140625q-0.640625 0 -1.140625 0.421875q-0.5 0.421875 -0.796875 1.28125q-0.296875 0.84375 -0.296875 2.078125q0 0.78125 0.109375 1.4375q0.125 0.65625 0.390625 1.125q0.265625 0.453125 0.703125 0.71875q0.453125 0.265625 1.109375 0.265625q0.640625 0 1.1875 -0.25q0.5625 -0.25 1.15625 -0.890625l0.53125 0.609375q-0.484375 0.53125 -0.84375 0.8125q-0.359375 0.28125 -0.78125 0.46875q-0.40625 0.1875 -0.8125 0.28125q-0.390625 0.09375 -0.875 0.09375q-1.75 0 -2.6875 -1.171875q-0.921875 -1.171875 -0.921875 -3.359375q0 -1.375 0.515625 -2.4375q0.53125 -1.0625 1.46875 -1.640625q0.9375 -0.578125 2.15625 -0.578125q0.765625 0 1.40625 0.09375q0.640625 0.09375 1.296875 0.28125zm3.8040009 1.25l0.03125 0q0.71875 -0.734375 1.140625 -1.015625q0.421875 -0.296875 0.828125 -0.4375q0.421875 -0.15625 0.90625 -0.15625q0.5 0 0.890625 0.125q0.40625 0.109375 0.703125 0.359375q0.3125 0.25 0.5 0.609375q0.1875 0.34375 0.28125 0.84375q0.09375 0.5 0.09375 1.265625l0 3.5q0 0.796875 0.0625 1.09375q0.078125 0.296875 0.25 0.453125q0.1875 0.15625 0.734375 0.3125l0 0.453125l-3.65625 0l0 -0.453125q0.359375 -0.109375 0.515625 -0.1875q0.171875 -0.09375 0.265625 -0.234375q0.109375 -0.15625 0.171875 -0.46875q0.0625 -0.3125 0.0625 -0.9375l0 -2.4375q0 -1.234375 -0.125 -1.875q-0.125 -0.65625 -0.5 -0.984375q-0.359375 -0.328125 -1.015625 -0.328125q-0.375 0 -0.671875 0.140625q-0.296875 0.125 -0.6875 0.453125q-0.390625 0.328125 -0.59375 0.6875q-0.1875 0.359375 -0.1875 0.75l0 3.5625q0 0.625 0.03125 0.890625q0.03125 0.265625 0.125 0.453125q0.09375 0.1875 0.28125 0.296875q0.1875 0.109375 0.59375 0.21875l0 0.453125l-3.671875 0l0 -0.453125q0.40625 -0.109375 0.578125 -0.203125q0.171875 -0.109375 0.265625 -0.265625q0.109375 -0.15625 0.15625 -0.453125q0.046875 -0.296875 0.046875 -0.9375l0 -7.765625q0 -0.890625 -0.015625 -1.25q-0.015625 -0.359375 -0.078125 -0.59375q-0.0625 -0.25 -0.171875 -0.390625q-0.109375 -0.140625 -0.296875 -0.21875q-0.171875 -0.09375 -0.640625 -0.171875l0 -0.484375l2.234375 -0.09375l0.5625 0l0 5.875zm15.215607 5.828125q-0.59375 0.625 -1.09375 0.984375q-0.5 0.34375 -1.09375 0.546875q-0.59375 0.203125 -1.296875 0.203125q-1.921875 0 -2.890625 -1.140625q-0.96875 -1.15625 -0.96875 -3.390625q0 -1.390625 0.484375 -2.4375q0.5 -1.0625 1.421875 -1.640625q0.921875 -0.578125 2.109375 -0.578125q0.9375 0 1.59375 0.296875q0.671875 0.296875 1.0625 0.8125q0.390625 0.515625 0.609375 1.3125q0.21875 0.78125 0.25 2.03125l-5.84375 0l0 0.171875q0 1.09375 0.234375 1.84375q0.25 0.75 0.8125 1.171875q0.5625 0.421875 1.46875 0.421875q0.75 0 1.359375 -0.28125q0.609375 -0.296875 1.21875 -0.9375l0.5625 0.609375zm-1.5625 -3.765625q-0.046875 -1.0 -0.25 -1.625q-0.1875 -0.640625 -0.578125 -0.984375q-0.390625 -0.34375 -1.015625 -0.34375q-0.96875 0 -1.546875 0.765625q-0.5625 0.765625 -0.65625 2.1875l4.046875 0z" fill-rule="nonzero"></path></g></svg>

