<?xml version="1.0" standalone="yes"?>

<svg version="1.1" viewBox="0.0 0.0 1071.0 674.0" fill="none" stroke="none" stroke-linecap="square" stroke-miterlimit="10" xmlns="http://www.w3.org/2000/svg" xmlns:xlink="http://www.w3.org/1999/xlink"><clipPath id="p.0"><path d="m0 0l1071.0 0l0 674.0l-1071.0 0l0 -674.0z" clip-rule="nonzero"></path></clipPath><g clip-path="url(#p.0)"><path fill="#000000" fill-opacity="0.0" d="m0 0l1071.5013 0l0 674.07874l-1071.5013 0z" fill-rule="nonzero"></path><path fill="#000000" fill-opacity="0.0" d="m484.63516 22.777777l385.5748 0l0 248.81891l-385.5748 0z" fill-rule="nonzero"></path><path stroke="#000000" stroke-width="2.0" stroke-linejoin="round" stroke-linecap="butt" d="m484.63516 22.777777l385.5748 0l0 248.81891l-385.5748 0z" fill-rule="nonzero"></path><path fill="#cfe2f3" d="m484.62204 308.6964l385.5748 0l0 306.70868l-385.5748 0z" fill-rule="nonzero"></path><path stroke="#000000" stroke-width="2.0" stroke-linejoin="round" stroke-linecap="butt" d="m484.62204 308.6964l385.5748 0l0 306.70868l-385.5748 0z" fill-rule="nonzero"></path><path fill="#d9ead3" d="m701.22046 436.9007l92.057495 0l0 50.64377c-46.026306 0 -46.026306 19.485168 -92.057495 9.742584zm7.5844116 0l0 -6.5656433l91.42871 0l0 50.961456c-3.4753418 0 -6.9556274 0.35299683 -6.9556274 0.35299683l0 -44.74881zm7.1289673 -6.5656433l0 -6.40683l92.220825 0l0 50.802643c-3.9605713 0 -7.9210815 0.26474 -7.9210815 0.26474l0 -44.660553z" fill-rule="nonzero"></path><path fill="#000000" fill-opacity="0.0" d="m701.22046 436.9007l92.057495 0l0 50.64377c-46.026306 0 -46.026306 19.485168 -92.057495 9.742584zm7.5844116 0l0 -6.5656433l91.42871 0l0 50.961456c-3.4753418 0 -6.9556274 0.35299683 -6.9556274 0.35299683m-77.34412 -51.314453l0 -6.40683l92.220825 0l0 50.802643c-3.9605713 0 -7.9210815 0.26474 -7.9210815 0.26474" fill-rule="nonzero"></path><path fill="#000000" fill-opacity="0.0" d="m701.22046 497.28705c46.03119 9.742584 46.03119 -9.742584 92.057495 -9.742584l0 -5.8949585c0 0 3.4802856 -0.35299683 6.9556274 -0.35299683l0 -6.3009033c0 0 3.9605103 -0.26474 7.9210815 -0.26474l0 -50.802643l-92.220825 0l0 6.40683l-7.1289673 0l0 6.5656433l-7.5844116 0z" fill-rule="nonzero"></path><path stroke="#000000" stroke-width="2.0" stroke-linejoin="round" stroke-linecap="butt" d="m701.22046 436.9007l92.057495 0l0 50.64377c-46.026306 0 -46.026306 19.485168 -92.057495 9.742584zm7.5844116 0l0 -6.5656433l91.42871 0l0 50.961456c-3.4753418 0 -6.9556274 0.35299683 -6.9556274 0.35299683m-77.34412 -51.314453l0 -6.40683l92.220825 0l0 50.802643c-3.9605713 0 -7.9210815 0.26474 -7.9210815 0.26474" fill-rule="nonzero"></path><path fill="#d9ead3" d="m578.6982 345.8141l92.057434 0l0 50.64377c-46.026245 0 -46.026245 19.485168 -92.057434 9.742584zm7.5844116 0l0 -6.5656433l91.42871 0l0 50.961456c-3.4754028 0 -6.9556885 0.35299683 -6.9556885 0.35299683l0 -44.74881zm7.1289062 -6.5656433l0 -6.40683l92.220825 0l0 50.802643c-3.9605103 0 -7.9210205 0.26474 -7.9210205 0.26474l0 -44.660553z" fill-rule="nonzero"></path><path fill="#000000" fill-opacity="0.0" d="m578.6982 345.8141l92.057434 0l0 50.64377c-46.026245 0 -46.026245 19.485168 -92.057434 9.742584zm7.5844116 0l0 -6.5656433l91.42871 0l0 50.961456c-3.4754028 0 -6.9556885 0.35299683 -6.9556885 0.35299683m-77.34412 -51.314453l0 -6.40683l92.220825 0l0 50.802643c-3.9605103 0 -7.9210205 0.26474 -7.9210205 0.26474" fill-rule="nonzero"></path><path fill="#000000" fill-opacity="0.0" d="m578.6982 406.20044c46.03119 9.742584 46.03119 -9.742584 92.057434 -9.742584l0 -5.8949585c0 0 3.4802856 -0.35299683 6.9556885 -0.35299683l0 -6.3009033c0 0 3.9605103 -0.26474 7.9210205 -0.26474l0 -50.802643l-92.220825 0l0 6.40683l-7.1289062 0l0 6.5656433l-7.5844116 0z" fill-rule="nonzero"></path><path stroke="#000000" stroke-width="2.0" stroke-linejoin="round" stroke-linecap="butt" d="m578.6982 345.8141l92.057434 0l0 50.64377c-46.026245 0 -46.026245 19.485168 -92.057434 9.742584zm7.5844116 0l0 -6.5656433l91.42871 0l0 50.961456c-3.4754028 0 -6.9556885 0.35299683 -6.9556885 0.35299683m-77.34412 -51.314453l0 -6.40683l92.220825 0l0 50.802643c-3.9605103 0 -7.9210205 0.26474 -7.9210205 0.26474" fill-rule="nonzero"></path><path fill="#d9ead3" d="m578.6982 533.0214l92.057434 0l0 50.6438c-46.026245 0 -46.026245 19.485168 -92.057434 9.742554zm7.5844116 0l0 -6.565674l91.42871 0l0 50.961487c-3.4754028 0 -6.9556885 0.35302734 -6.9556885 0.35302734l0 -44.74884zm7.1289062 -6.565674l0 -6.4067993l92.220825 0l0 50.802673c-3.9605103 0 -7.9210205 0.26470947 -7.9210205 0.26470947l0 -44.660583z" fill-rule="nonzero"></path><path fill="#000000" fill-opacity="0.0" d="m578.6982 533.0214l92.057434 0l0 50.6438c-46.026245 0 -46.026245 19.485168 -92.057434 9.742554zm7.5844116 0l0 -6.565674l91.42871 0l0 50.961487c-3.4754028 0 -6.9556885 0.35302734 -6.9556885 0.35302734m-77.34412 -51.314514l0 -6.4067993l92.220825 0l0 50.802673c-3.9605103 0 -7.9210205 0.26470947 -7.9210205 0.26470947" fill-rule="nonzero"></path><path fill="#000000" fill-opacity="0.0" d="m578.6982 593.4078c46.03119 9.742615 46.03119 -9.742554 92.057434 -9.742554l0 -5.8949585c0 0 3.4802856 -0.35302734 6.9556885 -0.35302734l0 -6.3009033c0 0 3.9605103 -0.26470947 7.9210205 -0.26470947l0 -50.802673l-92.220825 0l0 6.4067993l-7.1289062 0l0 6.565674l-7.5844116 0z" fill-rule="nonzero"></path><path stroke="#000000" stroke-width="2.0" stroke-linejoin="round" stroke-linecap="butt" d="m578.6982 533.0214l92.057434 0l0 50.6438c-46.026245 0 -46.026245 19.485168 -92.057434 9.742554zm7.5844116 0l0 -6.565674l91.42871 0l0 50.961487c-3.4754028 0 -6.9556885 0.35302734 -6.9556885 0.35302734m-77.34412 -51.314514l0 -6.4067993l92.220825 0l0 50.802673c-3.9605103 0 -7.9210205 0.26470947 -7.9210205 0.26470947" fill-rule="nonzero"></path><path fill="#000000" fill-opacity="0.0" d="m484.62204 462.05075l94.078766 -91.08661" fill-rule="nonzero"></path><path stroke="#000000" stroke-width="2.0" stroke-linejoin="round" stroke-linecap="butt" d="m484.62204 462.05075l94.078766 -91.08661" fill-rule="nonzero"></path><path fill="#000000" fill-opacity="0.0" d="m484.62204 462.05075l216.59842 0" fill-rule="nonzero"></path><path stroke="#000000" stroke-width="2.0" stroke-linejoin="round" stroke-linecap="butt" d="m484.62204 462.05075l216.59842 0" fill-rule="nonzero"></path><path fill="#000000" fill-opacity="0.0" d="m484.62204 462.05075l94.078766 96.12601" fill-rule="nonzero"></path><path stroke="#000000" stroke-width="2.0" stroke-linejoin="round" stroke-linecap="butt" d="m484.62204 462.05075l94.078766 96.12601" fill-rule="nonzero"></path><path fill="#fce5cd" d="m103.3937 462.0516l0 0c0 -25.37033 34.91474 -45.93701 77.98426 -45.93701l0 0c43.069504 0 77.98425 20.56668 77.98425 45.93701l0 0c0 25.3703 -34.91475 45.93701 -77.98425 45.93701l0 0c-43.06952 0 -77.98426 -20.566711 -77.98426 -45.93701z" fill-rule="nonzero"></path><path stroke="#000000" stroke-width="2.0" stroke-linejoin="round" stroke-linecap="butt" d="m103.3937 462.0516l0 0c0 -25.37033 34.91474 -45.93701 77.98426 -45.93701l0 0c43.069504 0 77.98425 20.56668 77.98425 45.93701l0 0c0 25.3703 -34.91475 45.93701 -77.98425 45.93701l0 0c-43.06952 0 -77.98426 -20.566711 -77.98426 -45.93701z" fill-rule="nonzero"></path><path fill="#000000" fill-opacity="0.0" d="m290.34396 462.05057l194.26773 -0.03149414" fill-rule="nonzero"></path><path stroke="#000000" stroke-width="2.0" stroke-linejoin="round" stroke-linecap="butt" d="m290.34396 462.05057l194.26773 -0.03149414" fill-rule="nonzero"></path><path fill="#a4c2f4" d="m103.3937 305.9361l0 0c0 -25.3703 34.91474 -45.93698 77.98426 -45.93698l0 0c43.069504 0 77.98425 20.56668 77.98425 45.93698l0 0c0 25.37033 -34.91475 45.93701 -77.98425 45.93701l0 0c-43.06952 0 -77.98426 -20.56668 -77.98426 -45.93701z" fill-rule="nonzero"></path><path stroke="#000000" stroke-width="2.0" stroke-linejoin="round" stroke-linecap="butt" d="m103.3937 305.9361l0 0c0 -25.3703 34.91474 -45.93698 77.98426 -45.93698l0 0c43.069504 0 77.98425 20.56668 77.98425 45.93698l0 0c0 25.37033 -34.91475 45.93701 -77.98425 45.93701l0 0c-43.06952 0 -77.98426 -20.56668 -77.98426 -45.93701z" fill-rule="nonzero"></path><path fill="#000000" fill-opacity="0.0" d="m103.3937 611.9072l0 0c0 -25.3703 34.91474 -45.93701 77.98426 -45.93701l0 0c43.069504 0 77.98425 20.566711 77.98425 45.93701l0 0c0 25.3703 -34.91475 45.93701 -77.98425 45.93701l0 0c-43.06952 0 -77.98426 -20.566711 -77.98426 -45.93701z" fill-rule="nonzero"></path><path stroke="#000000" stroke-width="2.0" stroke-linejoin="round" stroke-linecap="butt" d="m103.3937 611.9072l0 0c0 -25.3703 34.91474 -45.93701 77.98426 -45.93701l0 0c43.069504 0 77.98425 20.566711 77.98425 45.93701l0 0c0 25.3703 -34.91475 45.93701 -77.98425 45.93701l0 0c-43.06952 0 -77.98426 -20.566711 -77.98426 -45.93701z" fill-rule="nonzero"></path><path fill="#000000" fill-opacity="0.0" d="m290.34396 305.9364l194.26773 156.12598" fill-rule="nonzero"></path><path stroke="#000000" stroke-width="2.0" stroke-linejoin="round" stroke-linecap="butt" d="m290.34396 305.9364l194.26773 156.12598" fill-rule="nonzero"></path><path fill="#000000" fill-opacity="0.0" d="m290.34396 611.91016l194.26773 -149.85828" fill-rule="nonzero"></path><path stroke="#000000" stroke-width="2.0" stroke-linejoin="round" stroke-linecap="butt" d="m290.34396 611.91016l194.26773 -149.85828" fill-rule="nonzero"></path><path fill="#ead1dc" d="m533.51294 96.20751l0 0c0 -10.289024 18.345764 -18.629921 40.97638 -18.629921l0 0c22.630615 0 40.97638 8.340897 40.97638 18.629921l0 0c0 10.289024 -18.345764 18.629921 -40.97638 18.629921l0 0c-22.630615 0 -40.97638 -8.340897 -40.97638 -18.629921z" fill-rule="nonzero"></path><path stroke="#000000" stroke-width="2.0" stroke-linejoin="round" stroke-linecap="butt" d="m533.51294 96.20751l0 0c0 -10.289024 18.345764 -18.629921 40.97638 -18.629921l0 0c22.630615 0 40.97638 8.340897 40.97638 18.629921l0 0c0 10.289024 -18.345764 18.629921 -40.97638 18.629921l0 0c-22.630615 0 -40.97638 -8.340897 -40.97638 -18.629921z" fill-rule="nonzero"></path><path fill="#fff2cc" d="m597.4578 148.15836l0 0c0 -16.272827 42.282654 -29.46457 94.44098 -29.46457l0 0c52.158264 0 94.44092 13.191742 94.44092 29.46457l0 0c0 16.272827 -42.282654 29.46457 -94.44092 29.46457l0 0c-52.158325 0 -94.44098 -13.191742 -94.44098 -29.46457z" fill-rule="nonzero"></path><path stroke="#000000" stroke-width="2.0" stroke-linejoin="round" stroke-linecap="butt" d="m597.4578 148.15836l0 0c0 -16.272827 42.282654 -29.46457 94.44098 -29.46457l0 0c52.158264 0 94.44092 13.191742 94.44092 29.46457l0 0c0 16.272827 -42.282654 29.46457 -94.44092 29.46457l0 0c-52.158325 0 -94.44098 -13.191742 -94.44098 -29.46457z" fill-rule="nonzero"></path><path fill="#ead1dc" d="m771.5733 207.99754l0 0c0 -10.289032 18.345764 -18.629929 40.97638 -18.629929l0 0c22.630615 0 40.97638 8.340897 40.97638 18.629929l0 0c0 10.289017 -18.345764 18.629913 -40.97638 18.629913l0 0c-22.630615 0 -40.97638 -8.340897 -40.97638 -18.629913z" fill-rule="nonzero"></path><path stroke="#000000" stroke-width="2.0" stroke-linejoin="round" stroke-linecap="butt" d="m771.5733 207.99754l0 0c0 -10.289032 18.345764 -18.629929 40.97638 -18.629929l0 0c22.630615 0 40.97638 8.340897 40.97638 18.629929l0 0c0 10.289017 -18.345764 18.629913 -40.97638 18.629913l0 0c-22.630615 0 -40.97638 -8.340897 -40.97638 -18.629913z" fill-rule="nonzero"></path><path fill="#ead1dc" d="m650.9224 229.3125l0 0c0 -10.289017 18.345703 -18.629929 40.97638 -18.629929l0 0c22.630615 0 40.97638 8.340912 40.97638 18.629929l0 0c0 10.289017 -18.345764 18.629913 -40.97638 18.629913l0 0c-22.630676 0 -40.97638 -8.340897 -40.97638 -18.629913z" fill-rule="nonzero"></path><path stroke="#000000" stroke-width="2.0" stroke-linejoin="round" stroke-linecap="butt" d="m650.9224 229.3125l0 0c0 -10.289017 18.345703 -18.629929 40.97638 -18.629929l0 0c22.630615 0 40.97638 8.340912 40.97638 18.629929l0 0c0 10.289017 -18.345764 18.629913 -40.97638 18.629913l0 0c-22.630676 0 -40.97638 -8.340897 -40.97638 -18.629913z" fill-rule="nonzero"></path><path fill="#ead1dc" d="m756.7859 96.20751l0 0c0 -10.289024 18.345764 -18.629921 40.97638 -18.629921l0 0c22.630676 0 40.97638 8.340897 40.97638 18.629921l0 0c0 10.289024 -18.345703 18.629921 -40.97638 18.629921l0 0c-22.630615 0 -40.97638 -8.340897 -40.97638 -18.629921z" fill-rule="nonzero"></path><path stroke="#000000" stroke-width="2.0" stroke-linejoin="round" stroke-linecap="butt" d="m756.7859 96.20751l0 0c0 -10.289024 18.345764 -18.629921 40.97638 -18.629921l0 0c22.630676 0 40.97638 8.340897 40.97638 18.629921l0 0c0 10.289024 -18.345703 18.629921 -40.97638 18.629921l0 0c-22.630615 0 -40.97638 -8.340897 -40.97638 -18.629921z" fill-rule="nonzero"></path><path fill="#ead1dc" d="m643.41583 68.37024l0 0c0 -10.289021 18.345764 -18.629921 40.97638 -18.629921l0 0c22.630615 0 40.97638 8.3409 40.97638 18.629921l0 0c0 10.289024 -18.345764 18.629921 -40.97638 18.629921l0 0c-22.630615 0 -40.97638 -8.340897 -40.97638 -18.629921z" fill-rule="nonzero"></path><path stroke="#000000" stroke-width="2.0" stroke-linejoin="round" stroke-linecap="butt" d="m643.41583 68.37024l0 0c0 -10.289021 18.345764 -18.629921 40.97638 -18.629921l0 0c22.630615 0 40.97638 8.3409 40.97638 18.629921l0 0c0 10.289024 -18.345764 18.629921 -40.97638 18.629921l0 0c-22.630615 0 -40.97638 -8.340897 -40.97638 -18.629921z" fill-rule="nonzero"></path><path fill="#dd7e6b" d="m459.37897 129.72118l48.129486 0c6.645294 0 12.032379 8.340897 12.032379 18.629913c0 10.289032 -5.387085 18.629929 -12.032379 18.629929l-48.129486 0l0 0c-6.645294 0 -12.032379 -8.340897 -12.032379 -18.629929c0 -10.289017 5.387085 -18.629913 12.032379 -18.629913z" fill-rule="nonzero"></path><path fill="#000000" fill-opacity="0.0" d="m507.50845 166.98102c-6.645294 0 -12.032379 -8.340897 -12.032379 -18.629929c0 -10.289017 5.387085 -18.629913 12.032379 -18.629913" fill-rule="nonzero"></path><path fill="#000000" fill-opacity="0.0" d="m459.37897 129.72118l48.129486 0c6.645294 0 12.032379 8.340897 12.032379 18.629913c0 10.289032 -5.387085 18.629929 -12.032379 18.629929l-48.129486 0l0 0c-6.645294 0 -12.032379 -8.340897 -12.032379 -18.629929c0 -10.289017 5.387085 -18.629913 12.032379 -18.629913z" fill-rule="nonzero"></path><path stroke="#000000" stroke-width="2.0" stroke-linejoin="round" stroke-linecap="butt" d="m507.50845 166.98102c-6.645294 0 -12.032379 -8.340897 -12.032379 -18.629929c0 -10.289017 5.387085 -18.629913 12.032379 -18.629913" fill-rule="nonzero"></path><path stroke="#000000" stroke-width="2.0" stroke-linejoin="round" stroke-linecap="butt" d="m459.37897 129.72118l48.129486 0c6.645294 0 12.032379 8.340897 12.032379 18.629913c0 10.289032 -5.387085 18.629929 -12.032379 18.629929l-48.129486 0l0 0c-6.645294 0 -12.032379 -8.340897 -12.032379 -18.629929c0 -10.289017 5.387085 -18.629913 12.032379 -18.629913z" fill-rule="nonzero"></path><path fill="#dd7e6b" d="m459.37897 443.42197l48.129486 0c6.645294 0 12.032379 8.340881 12.032379 18.629913c0 10.289032 -5.387085 18.629913 -12.032379 18.629913l-48.129486 0l0 0c-6.645294 0 -12.032379 -8.340881 -12.032379 -18.629913c0 -10.289032 5.387085 -18.629913 12.032379 -18.629913z" fill-rule="nonzero"></path><path fill="#000000" fill-opacity="0.0" d="m507.50845 480.6818c-6.645294 0 -12.032379 -8.340881 -12.032379 -18.629913c0 -10.289032 5.387085 -18.629913 12.032379 -18.629913" fill-rule="nonzero"></path><path fill="#000000" fill-opacity="0.0" d="m459.37897 443.42197l48.129486 0c6.645294 0 12.032379 8.340881 12.032379 18.629913c0 10.289032 -5.387085 18.629913 -12.032379 18.629913l-48.129486 0l0 0c-6.645294 0 -12.032379 -8.340881 -12.032379 -18.629913c0 -10.289032 5.387085 -18.629913 12.032379 -18.629913z" fill-rule="nonzero"></path><path stroke="#000000" stroke-width="2.0" stroke-linejoin="round" stroke-linecap="butt" d="m507.50845 480.6818c-6.645294 0 -12.032379 -8.340881 -12.032379 -18.629913c0 -10.289032 5.387085 -18.629913 12.032379 -18.629913" fill-rule="nonzero"></path><path stroke="#000000" stroke-width="2.0" stroke-linejoin="round" stroke-linecap="butt" d="m459.37897 443.42197l48.129486 0c6.645294 0 12.032379 8.340881 12.032379 18.629913c0 10.289032 -5.387085 18.629913 -12.032379 18.629913l-48.129486 0l0 0c-6.645294 0 -12.032379 -8.340881 -12.032379 -18.629913c0 -10.289032 5.387085 -18.629913 12.032379 -18.629913z" fill-rule="nonzero"></path><path fill="#dd7e6b" d="m230.18211 287.3065l48.1295 0c6.645294 0 12.032349 8.340881 12.032349 18.629913c0 10.289001 -5.3870544 18.629913 -12.032349 18.629913l-48.1295 0l0 0c-6.645294 0 -12.032364 -8.340912 -12.032364 -18.629913c0 -10.289032 5.3870697 -18.629913 12.032364 -18.629913z" fill-rule="nonzero"></path><path fill="#000000" fill-opacity="0.0" d="m278.3116 324.5663c-6.645294 0 -12.032379 -8.340912 -12.032379 -18.629913c0 -10.289032 5.387085 -18.629913 12.032379 -18.629913" fill-rule="nonzero"></path><path fill="#000000" fill-opacity="0.0" d="m230.18211 287.3065l48.1295 0c6.645294 0 12.032349 8.340881 12.032349 18.629913c0 10.289001 -5.3870544 18.629913 -12.032349 18.629913l-48.1295 0l0 0c-6.645294 0 -12.032364 -8.340912 -12.032364 -18.629913c0 -10.289032 5.3870697 -18.629913 12.032364 -18.629913z" fill-rule="nonzero"></path><path stroke="#000000" stroke-width="2.0" stroke-linejoin="round" stroke-linecap="butt" d="m278.3116 324.5663c-6.645294 0 -12.032379 -8.340912 -12.032379 -18.629913c0 -10.289032 5.387085 -18.629913 12.032379 -18.629913" fill-rule="nonzero"></path><path stroke="#000000" stroke-width="2.0" stroke-linejoin="round" stroke-linecap="butt" d="m230.18211 287.3065l48.1295 0c6.645294 0 12.032349 8.340881 12.032349 18.629913c0 10.289001 -5.3870544 18.629913 -12.032349 18.629913l-48.1295 0l0 0c-6.645294 0 -12.032364 -8.340912 -12.032364 -18.629913c0 -10.289032 5.3870697 -18.629913 12.032364 -18.629913z" fill-rule="nonzero"></path><path fill="#dd7e6b" d="m230.18211 443.42065l48.1295 0c6.645294 0 12.032349 8.340881 12.032349 18.629913c0 10.289032 -5.3870544 18.629913 -12.032349 18.629913l-48.1295 0l0 0c-6.645294 0 -12.032364 -8.340881 -12.032364 -18.629913c0 -10.289032 5.3870697 -18.629913 12.032364 -18.629913z" fill-rule="nonzero"></path><path fill="#000000" fill-opacity="0.0" d="m278.3116 480.68048c-6.645294 0 -12.032379 -8.340881 -12.032379 -18.629913c0 -10.289032 5.387085 -18.629913 12.032379 -18.629913" fill-rule="nonzero"></path><path fill="#000000" fill-opacity="0.0" d="m230.18211 443.42065l48.1295 0c6.645294 0 12.032349 8.340881 12.032349 18.629913c0 10.289032 -5.3870544 18.629913 -12.032349 18.629913l-48.1295 0l0 0c-6.645294 0 -12.032364 -8.340881 -12.032364 -18.629913c0 -10.289032 5.3870697 -18.629913 12.032364 -18.629913z" fill-rule="nonzero"></path><path stroke="#000000" stroke-width="2.0" stroke-linejoin="round" stroke-linecap="butt" d="m278.3116 480.68048c-6.645294 0 -12.032379 -8.340881 -12.032379 -18.629913c0 -10.289032 5.387085 -18.629913 12.032379 -18.629913" fill-rule="nonzero"></path><path stroke="#000000" stroke-width="2.0" stroke-linejoin="round" stroke-linecap="butt" d="m230.18211 443.42065l48.1295 0c6.645294 0 12.032349 8.340881 12.032349 18.629913c0 10.289032 -5.3870544 18.629913 -12.032349 18.629913l-48.1295 0l0 0c-6.645294 0 -12.032364 -8.340881 -12.032364 -18.629913c0 -10.289032 5.3870697 -18.629913 12.032364 -18.629913z" fill-rule="nonzero"></path><path fill="#dd7e6b" d="m230.18211 593.2802l48.1295 0c6.645294 0 12.032349 8.340942 12.032349 18.629944c0 10.289001 -5.3870544 18.629883 -12.032349 18.629883l-48.1295 0l0 0c-6.645294 0 -12.032364 -8.340881 -12.032364 -18.629883c0 -10.289001 5.3870697 -18.629944 12.032364 -18.629944z" fill-rule="nonzero"></path><path fill="#000000" fill-opacity="0.0" d="m278.3116 630.54004c-6.645294 0 -12.032379 -8.340881 -12.032379 -18.629883c0 -10.289001 5.387085 -18.629944 12.032379 -18.629944" fill-rule="nonzero"></path><path fill="#000000" fill-opacity="0.0" d="m230.18211 593.2802l48.1295 0c6.645294 0 12.032349 8.340942 12.032349 18.629944c0 10.289001 -5.3870544 18.629883 -12.032349 18.629883l-48.1295 0l0 0c-6.645294 0 -12.032364 -8.340881 -12.032364 -18.629883c0 -10.289001 5.3870697 -18.629944 12.032364 -18.629944z" fill-rule="nonzero"></path><path stroke="#000000" stroke-width="2.0" stroke-linejoin="round" stroke-linecap="butt" d="m278.3116 630.54004c-6.645294 0 -12.032379 -8.340881 -12.032379 -18.629883c0 -10.289001 5.387085 -18.629944 12.032379 -18.629944" fill-rule="nonzero"></path><path stroke="#000000" stroke-width="2.0" stroke-linejoin="round" stroke-linecap="butt" d="m230.18211 593.2802l48.1295 0c6.645294 0 12.032349 8.340942 12.032349 18.629944c0 10.289001 -5.3870544 18.629883 -12.032349 18.629883l-48.1295 0l0 0c-6.645294 0 -12.032364 -8.340881 -12.032364 -18.629883c0 -10.289001 5.3870697 -18.629944 12.032364 -18.629944z" fill-rule="nonzero"></path><path fill="#000000" fill-opacity="0.0" d="m290.34396 305.9364l157.00787 -157.57481" fill-rule="nonzero"></path><path stroke="#000000" stroke-width="2.0" stroke-linejoin="round" stroke-linecap="butt" d="m290.34396 305.9364l157.00787 -157.57481" fill-rule="nonzero"></path><path fill="#000000" fill-opacity="0.0" d="m603.464 109.38085l21.669312 17.952759" fill-rule="nonzero"></path><path stroke="#000000" stroke-width="2.0" stroke-linejoin="round" stroke-linecap="butt" d="m603.464 109.38085l21.669312 17.952759" fill-rule="nonzero"></path><path fill="#000000" fill-opacity="0.0" d="m684.3922 87.00016l7.4960938 31.685043" fill-rule="nonzero"></path><path stroke="#000000" stroke-width="2.0" stroke-linejoin="round" stroke-linecap="butt" d="m684.3922 87.00016l7.4960938 31.685043" fill-rule="nonzero"></path><path fill="#000000" fill-opacity="0.0" d="m768.7876 109.38085l-10.1102295 17.952759" fill-rule="nonzero"></path><path stroke="#000000" stroke-width="2.0" stroke-linejoin="round" stroke-linecap="butt" d="m768.7876 109.38085l-10.1102295 17.952759" fill-rule="nonzero"></path><path fill="#000000" fill-opacity="0.0" d="m783.575 194.82419l-24.881897 -25.826767" fill-rule="nonzero"></path><path stroke="#000000" stroke-width="2.0" stroke-linejoin="round" stroke-linecap="butt" d="m783.575 194.82419l-24.881897 -25.826767" fill-rule="nonzero"></path><path fill="#000000" fill-opacity="0.0" d="m691.8988 210.68257l0 -33.07086" fill-rule="nonzero"></path><path stroke="#000000" stroke-width="2.0" stroke-linejoin="round" stroke-linecap="butt" d="m691.8988 210.68257l0 -33.07086" fill-rule="nonzero"></path><path fill="#ffd966" d="m219.10704 305.93524l0 0c0 -5.9664 4.836731 -10.803131 10.803146 -10.803131l0 0c2.8651733 0 5.6130066 1.1381836 7.6389923 3.164154c2.0259705 2.026001 3.1641693 4.7738037 3.1641693 7.638977l0 0c0 5.9664307 -4.836746 10.803162 -10.803162 10.803162l0 0c-5.9664154 0 -10.803146 -4.836731 -10.803146 -10.803162z" fill-rule="nonzero"></path><path stroke="#000000" stroke-width="2.0" stroke-linejoin="round" stroke-linecap="butt" d="m219.10704 305.93524l0 0c0 -5.9664 4.836731 -10.803131 10.803146 -10.803131l0 0c2.8651733 0 5.6130066 1.1381836 7.6389923 3.164154c2.0259705 2.026001 3.1641693 4.7738037 3.1641693 7.638977l0 0c0 5.9664307 -4.836746 10.803162 -10.803162 10.803162l0 0c-5.9664154 0 -10.803146 -4.836731 -10.803146 -10.803162z" fill-rule="nonzero"></path><path fill="#ffd966" d="m218.29588 611.7886l0 0c0 -5.9664307 4.836731 -10.803162 10.803146 -10.803162l0 0c2.8651733 0 5.6129913 1.1381836 7.638977 3.1641846c2.0259857 2.02594 3.1641693 4.7738037 3.1641693 7.638977l0 0c0 5.9664307 -4.836731 10.803162 -10.803146 10.803162l0 0c-5.9664154 0 -10.803146 -4.836731 -10.803146 -10.803162z" fill-rule="nonzero"></path><path stroke="#000000" stroke-width="2.0" stroke-linejoin="round" stroke-linecap="butt" d="m218.29588 611.7886l0 0c0 -5.9664307 4.836731 -10.803162 10.803146 -10.803162l0 0c2.8651733 0 5.6129913 1.1381836 7.638977 3.1641846c2.0259857 2.02594 3.1641693 4.7738037 3.1641693 7.638977l0 0c0 5.9664307 -4.836731 10.803162 -10.803146 10.803162l0 0c-5.9664154 0 -10.803146 -4.836731 -10.803146 -10.803162z" fill-rule="nonzero"></path><path fill="#ffd966" d="m447.34573 462.05075l0 0c0 -5.9664307 4.8367615 -10.803162 10.803162 -10.803162l0 0c2.8651733 0 5.6130066 1.1381836 7.638977 3.1641846c2.026001 2.0259705 3.1641846 4.7738037 3.1641846 7.638977l0 0c0 5.9664 -4.8367615 10.803131 -10.803162 10.803131l0 0c-5.9664 0 -10.803162 -4.836731 -10.803162 -10.803131z" fill-rule="nonzero"></path><path stroke="#000000" stroke-width="2.0" stroke-linejoin="round" stroke-linecap="butt" d="m447.34573 462.05075l0 0c0 -5.9664307 4.8367615 -10.803162 10.803162 -10.803162l0 0c2.8651733 0 5.6130066 1.1381836 7.638977 3.1641846c2.026001 2.0259705 3.1641846 4.7738037 3.1641846 7.638977l0 0c0 5.9664 -4.8367615 10.803131 -10.803162 10.803131l0 0c-5.9664 0 -10.803162 -4.836731 -10.803162 -10.803131z" fill-rule="nonzero"></path><path fill="#000000" fill-opacity="0.0" d="m519.54083 148.35109l77.921265 -0.1889801" fill-rule="nonzero"></path><path stroke="#000000" stroke-width="2.0" stroke-linejoin="round" stroke-linecap="butt" d="m519.54083 148.35109l77.921265 -0.1889801" fill-rule="nonzero"></path><path fill="#000000" fill-opacity="0.0" d="m226.00787 218.68329l118.4252 0l0 54.519684l-118.4252 0z" fill-rule="nonzero"></path><path fill="#000000" d="m244.67975 233.21266l0 2.5625l-0.921875 0q-0.21875 -0.796875 -0.5625 -1.28125q-0.34375 -0.484375 -0.796875 -0.6875q-0.453125 -0.203125 -1.09375 -0.203125q-0.96875 0 -1.71875 0.640625q-0.734375 0.640625 -1.171875 1.921875q-0.421875 1.265625 -0.421875 3.078125q0 1.8125 0.34375 3.109375q0.359375 1.28125 1.046875 1.9375q0.6875 0.640625 1.6875 0.640625q0.765625 0 1.25 -0.21875q0.484375 -0.21875 0.8125 -0.6875q0.328125 -0.46875 0.625 -1.390625l0.921875 0l0 2.65625q-0.875 0.234375 -1.796875 0.34375q-0.90625 0.125 -2.0 0.125q-2.359375 0 -3.5625 -1.59375q-1.203125 -1.609375 -1.203125 -4.765625q0 -1.984375 0.625 -3.46875q0.625 -1.5 1.828125 -2.3125q1.21875 -0.828125 2.90625 -0.828125q0.84375 0 1.5625 0.09375q0.71875 0.078125 1.640625 0.328125zm4.1972656 10.078125q0 0.796875 0.078125 1.109375q0.078125 0.296875 0.28125 0.46875q0.203125 0.15625 0.6875 0.28125l0 0.453125l-3.6875 0l0 -0.453125q0.46875 -0.125 0.640625 -0.25q0.1875 -0.125 0.265625 -0.3125q0.078125 -0.1875 0.109375 -0.484375q0.03125 -0.3125 0.03125 -0.8125l0 -7.765625q0 -0.890625 -0.015625 -1.25q-0.015625 -0.359375 -0.078125 -0.59375q-0.046875 -0.25 -0.15625 -0.390625q-0.109375 -0.140625 -0.296875 -0.21875q-0.171875 -0.09375 -0.65625 -0.171875l0 -0.484375l2.25 -0.09375l0.546875 0l0 10.96875zm5.2367554 -10.1875l0 1.796875l-1.703125 0l0 -1.796875l1.703125 0zm-2.640625 12.046875q0.359375 -0.109375 0.5 -0.1875q0.15625 -0.09375 0.265625 -0.234375q0.109375 -0.15625 0.171875 -0.453125q0.0625 -0.3125 0.0625 -0.96875l0 -4.046875q0 -0.59375 -0.03125 -0.953125q-0.015625 -0.359375 -0.125 -0.578125q-0.109375 -0.21875 -0.34375 -0.3125q-0.21875 -0.109375 -0.640625 -0.1875l0 -0.5l2.171875 -0.078125l0.5625 0l0 6.640625q0 0.796875 0.0625 1.109375q0.078125 0.296875 0.28125 0.46875q0.21875 0.15625 0.6875 0.28125l0 0.453125l-3.625 0l0 -0.453125zm12.589569 -1.125q-0.59375 0.625 -1.09375 0.984375q-0.5 0.34375 -1.09375 0.546875q-0.59375 0.203125 -1.296875 0.203125q-1.921875 0 -2.890625 -1.140625q-0.96875 -1.15625 -0.96875 -3.390625q0 -1.390625 0.484375 -2.4375q0.5 -1.0625 1.421875 -1.640625q0.921875 -0.578125 2.109375 -0.578125q0.9375 0 1.59375 0.296875q0.671875 0.296875 1.0625 0.8125q0.390625 0.515625 0.609375 1.3125q0.21875 0.78125 0.25 2.03125l-5.84375 0l0 0.171875q0 1.09375 0.234375 1.84375q0.25 0.75 0.8125 1.171875q0.5625 0.421875 1.46875 0.421875q0.75 0 1.359375 -0.28125q0.609375 -0.296875 1.21875 -0.9375l0.5625 0.609375zm-1.5625 -3.765625q-0.046875 -1.0 -0.25 -1.625q-0.1875 -0.640625 -0.578125 -0.984375q-0.390625 -0.34375 -1.015625 -0.34375q-0.96875 0 -1.546875 0.765625q-0.5625 0.765625 -0.65625 2.1875l4.046875 0zm12.287872 5.34375l-3.65625 0l0 -0.453125q0.359375 -0.109375 0.515625 -0.1875q0.15625 -0.09375 0.265625 -0.234375q0.109375 -0.15625 0.171875 -0.46875q0.0625 -0.3125 0.0625 -0.9375l0 -2.4375q0 -0.640625 -0.046875 -1.171875q-0.03125 -0.53125 -0.125 -0.859375q-0.078125 -0.34375 -0.203125 -0.53125q-0.125 -0.203125 -0.296875 -0.328125q-0.171875 -0.140625 -0.40625 -0.21875q-0.21875 -0.078125 -0.578125 -0.078125q-0.359375 0 -0.6875 0.15625q-0.328125 0.140625 -0.71875 0.5q-0.390625 0.34375 -0.5625 0.6875q-0.171875 0.34375 -0.171875 0.78125l0 3.46875q0 0.796875 0.0625 1.109375q0.078125 0.296875 0.28125 0.46875q0.21875 0.15625 0.6875 0.28125l0 0.453125l-3.625 0l0 -0.453125q0.359375 -0.109375 0.5 -0.1875q0.15625 -0.09375 0.265625 -0.234375q0.109375 -0.15625 0.171875 -0.453125q0.0625 -0.3125 0.0625 -0.96875l0 -4.046875q0 -0.59375 -0.03125 -0.953125q-0.015625 -0.359375 -0.125 -0.578125q-0.109375 -0.21875 -0.34375 -0.3125q-0.21875 -0.109375 -0.640625 -0.1875l0 -0.5l2.171875 -0.078125l0.5625 0l-0.09375 1.515625l0.125 0.03125q0.6875 -0.6875 1.109375 -0.984375q0.421875 -0.296875 0.84375 -0.453125q0.4375 -0.171875 0.921875 -0.171875q0.5 0 0.890625 0.125q0.40625 0.109375 0.703125 0.359375q0.296875 0.234375 0.484375 0.59375q0.203125 0.34375 0.296875 0.84375q0.109375 0.5 0.109375 1.28125l0 3.5q0 0.640625 0.03125 0.921875q0.046875 0.28125 0.125 0.453125q0.09375 0.15625 0.265625 0.265625q0.1875 0.09375 0.625 0.21875l0 0.453125zm0.8184204 -8.40625q0.46875 -0.078125 0.75 -0.25q0.28125 -0.1875 0.4375 -0.484375q0.171875 -0.296875 0.265625 -0.734375q0.09375 -0.4375 0.203125 -1.28125l1.3125 0l0 2.28125l3.0 0l0 0.9375l-3.0 0l0 4.140625q0 0.890625 0.0625 1.421875q0.078125 0.53125 0.28125 0.84375q0.21875 0.296875 0.46875 0.4375q0.265625 0.125 0.671875 0.125q0.375 0 0.6875 -0.15625q0.328125 -0.15625 0.640625 -0.4375l0.421875 0.5q-0.65625 0.640625 -1.25 0.9375q-0.578125 0.28125 -1.21875 0.28125q-1.1875 0 -1.78125 -0.703125q-0.578125 -0.71875 -0.578125 -2.234375l0 -5.15625l-1.375 0l0 -0.46875z" fill-rule="nonzero"></path><path fill="#000000" d="m244.67975 255.21266l0 2.5624847l-0.921875 0q-0.21875 -0.796875 -0.5625 -1.28125q-0.34375 -0.484375 -0.796875 -0.68748474q-0.453125 -0.203125 -1.09375 -0.203125q-0.96875 0 -1.71875 0.64060974q-0.734375 0.640625 -1.171875 1.921875q-0.421875 1.265625 -0.421875 3.078125q0 1.8125 0.34375 3.109375q0.359375 1.28125 1.046875 1.9375q0.6875 0.640625 1.6875 0.640625q0.765625 0 1.25 -0.21875q0.484375 -0.21875 0.8125 -0.6875q0.328125 -0.46875 0.625 -1.390625l0.921875 0l0 2.65625q-0.875 0.234375 -1.796875 0.34375q-0.90625 0.125 -2.0 0.125q-2.359375 0 -3.5625 -1.59375q-1.203125 -1.609375 -1.203125 -4.765625q0 -1.984375 0.625 -3.46875q0.625 -1.5 1.828125 -2.3124847q1.21875 -0.828125 2.90625 -0.828125q0.84375 0 1.5625 0.09375q0.71875 0.078125 1.640625 0.328125zm5.7597656 12.54686q-1.9375 0 -2.953125 -1.140625q-1.015625 -1.140625 -1.015625 -3.359375q0 -1.53125 0.53125 -2.59375q0.546875 -1.0625 1.46875 -1.578125q0.921875 -0.515625 2.109375 -0.515625q1.984375 0 3.0 1.15625q1.03125 1.15625 1.03125 3.3125q0 1.546875 -0.515625 2.609375q-0.5 1.046875 -1.4375 1.578125q-0.9375 0.53125 -2.21875 0.53125zm-2.203125 -4.703125q0 1.90625 0.59375 2.9375q0.609375 1.03125 1.75 1.03125q0.625 0 1.046875 -0.296875q0.4375 -0.3125 0.703125 -0.8125q0.28125 -0.515625 0.40625 -1.1875q0.125 -0.671875 0.125 -1.40625q0 -1.375 -0.3125 -2.265625q-0.296875 -0.90625 -0.8125 -1.328125q-0.515625 -0.421875 -1.1875 -0.421875q-1.125 0 -1.71875 0.984375q-0.59375 0.96875 -0.59375 2.765625zm17.105164 4.546875l-3.65625 0l0 -0.453125q0.359375 -0.109375 0.515625 -0.1875q0.15625 -0.09375 0.265625 -0.234375q0.109375 -0.15625 0.171875 -0.46875q0.0625 -0.3125 0.0625 -0.9375l0 -2.4375q0 -0.640625 -0.046875 -1.171875q-0.03125 -0.53125 -0.125 -0.859375q-0.078125 -0.34375 -0.203125 -0.53125q-0.125 -0.203125 -0.296875 -0.328125q-0.171875 -0.140625 -0.40625 -0.21875q-0.21875 -0.078125 -0.578125 -0.078125q-0.359375 0 -0.6875 0.15625q-0.328125 0.140625 -0.71875 0.5q-0.390625 0.34375 -0.5625 0.6875q-0.171875 0.34375 -0.171875 0.78125l0 3.46875q0 0.796875 0.0625 1.109375q0.078125 0.296875 0.28125 0.46875q0.21875 0.15625 0.6875 0.28125l0 0.453125l-3.625 0l0 -0.453125q0.359375 -0.109375 0.5 -0.1875q0.15625 -0.09375 0.265625 -0.234375q0.109375 -0.15625 0.171875 -0.453125q0.0625 -0.3125 0.0625 -0.96875l0 -4.046875q0 -0.59375 -0.03125 -0.953125q-0.015625 -0.359375 -0.125 -0.578125q-0.109375 -0.21875 -0.34375 -0.3125q-0.21875 -0.109375 -0.640625 -0.1875l0 -0.5l2.171875 -0.078125l0.5625 0l-0.09375 1.515625l0.125 0.03125q0.6875 -0.6875 1.109375 -0.984375q0.421875 -0.296875 0.84375 -0.453125q0.4375 -0.171875 0.921875 -0.171875q0.5 0 0.890625 0.125q0.40625 0.109375 0.703125 0.359375q0.296875 0.234375 0.484375 0.59375q0.203125 0.34375 0.296875 0.84375q0.109375 0.5 0.109375 1.28125l0 3.5q0 0.640625 0.03125 0.921875q0.046875 0.28125 0.125 0.453125q0.09375 0.15625 0.265625 0.265625q0.1875 0.09375 0.625 0.21875l0 0.453125zm10.41214 0l-3.65625 0l0 -0.453125q0.359375 -0.109375 0.515625 -0.1875q0.15625 -0.09375 0.265625 -0.234375q0.109375 -0.15625 0.171875 -0.46875q0.0625 -0.3125 0.0625 -0.9375l0 -2.4375q0 -0.640625 -0.046875 -1.171875q-0.03125 -0.53125 -0.125 -0.859375q-0.078125 -0.34375 -0.203125 -0.53125q-0.125 -0.203125 -0.296875 -0.328125q-0.171875 -0.140625 -0.40625 -0.21875q-0.21875 -0.078125 -0.578125 -0.078125q-0.359375 0 -0.6875 0.15625q-0.328125 0.140625 -0.71875 0.5q-0.390625 0.34375 -0.5625 0.6875q-0.171875 0.34375 -0.171875 0.78125l0 3.46875q0 0.796875 0.0625 1.109375q0.078125 0.296875 0.28125 0.46875q0.21875 0.15625 0.6875 0.28125l0 0.453125l-3.625 0l0 -0.453125q0.359375 -0.109375 0.5 -0.1875q0.15625 -0.09375 0.265625 -0.234375q0.109375 -0.15625 0.171875 -0.453125q0.0625 -0.3125 0.0625 -0.96875l0 -4.046875q0 -0.59375 -0.03125 -0.953125q-0.015625 -0.359375 -0.125 -0.578125q-0.109375 -0.21875 -0.34375 -0.3125q-0.21875 -0.109375 -0.640625 -0.1875l0 -0.5l2.171875 -0.078125l0.5625 0l-0.09375 1.515625l0.125 0.03125q0.6875 -0.6875 1.109375 -0.984375q0.421875 -0.296875 0.84375 -0.453125q0.4375 -0.171875 0.921875 -0.171875q0.5 0 0.890625 0.125q0.40625 0.109375 0.703125 0.359375q0.296875 0.234375 0.484375 0.59375q0.203125 0.34375 0.296875 0.84375q0.109375 0.5 0.109375 1.28125l0 3.5q0 0.640625 0.03125 0.921875q0.046875 0.28125 0.125 0.453125q0.09375 0.15625 0.265625 0.265625q0.1875 0.09375 0.625 0.21875l0 0.453125zm8.78717 -1.578125q-0.59375 0.625 -1.09375 0.984375q-0.5 0.34375 -1.09375 0.546875q-0.59375 0.203125 -1.296875 0.203125q-1.921875 0 -2.890625 -1.140625q-0.96875 -1.15625 -0.96875 -3.390625q0 -1.390625 0.484375 -2.4375q0.5 -1.0625 1.421875 -1.640625q0.921875 -0.578125 2.109375 -0.578125q0.9375 0 1.59375 0.296875q0.671875 0.296875 1.0625 0.8125q0.390625 0.515625 0.609375 1.3125q0.21875 0.78125 0.25 2.03125l-5.84375 0l0 0.171875q0 1.09375 0.234375 1.84375q0.25 0.75 0.8125 1.171875q0.5625 0.421875 1.46875 0.421875q0.75 0 1.359375 -0.28125q0.609375 -0.296875 1.21875 -0.9375l0.5625 0.609375zm-1.5625 -3.765625q-0.046875 -1.0 -0.25 -1.625q-0.1875 -0.640625 -0.578125 -0.984375q-0.390625 -0.34375 -1.015625 -0.34375q-0.96875 0 -1.546875 0.765625q-0.5625 0.765625 -0.65625 2.1875l4.046875 0zm10.162872 -3.3125l0 1.9375l-1.171875 0q-0.171875 -0.59375 -0.40625 -0.9375q-0.21875 -0.359375 -0.53125 -0.5q-0.296875 -0.140625 -0.765625 -0.140625q-0.640625 0 -1.140625 0.421875q-0.5 0.421875 -0.796875 1.28125q-0.296875 0.84375 -0.296875 2.078125q0 0.78125 0.109375 1.4375q0.125 0.65625 0.390625 1.125q0.265625 0.453125 0.703125 0.71875q0.453125 0.265625 1.109375 0.265625q0.640625 0 1.1875 -0.25q0.5625 -0.25 1.15625 -0.890625l0.53125 0.609375q-0.484375 0.53125 -0.84375 0.8125q-0.359375 0.28125 -0.78125 0.46875q-0.40625 0.1875 -0.8125 0.28125q-0.390625 0.09375 -0.875 0.09375q-1.75 0 -2.6875 -1.171875q-0.921875 -1.171875 -0.921875 -3.359375q0 -1.375 0.515625 -2.4375q0.53125 -1.0625 1.46875 -1.640625q0.9375 -0.578125 2.15625 -0.578125q0.765625 0 1.40625 0.09375q0.640625 0.09375 1.296875 0.28125zm0.7571411 0.25q0.46875 -0.078125 0.75 -0.25q0.28125 -0.1875 0.4375 -0.484375q0.171875 -0.296875 0.265625 -0.734375q0.09375 -0.4375 0.203125 -1.28125l1.3125 0l0 2.28125l3.0 0l0 0.9375l-3.0 0l0 4.140625q0 0.890625 0.0625 1.421875q0.078125 0.53125 0.28125 0.84375q0.21875 0.296875 0.46875 0.4375q0.265625 0.125 0.671875 0.125q0.375 0 0.6875 -0.15625q0.328125 -0.15625 0.640625 -0.4375l0.421875 0.5q-0.65625 0.640625 -1.25 0.9375q-0.578125 0.28125 -1.21875 0.28125q-1.1875 0 -1.78125 -0.703125q-0.578125 -0.71875 -0.578125 -2.234375l0 -5.15625l-1.375 0l0 -0.46875zm10.906616 8.5625q-1.9375 0 -2.953125 -1.140625q-1.015625 -1.140625 -1.015625 -3.359375q0 -1.53125 0.53125 -2.59375q0.546875 -1.0625 1.46875 -1.578125q0.921875 -0.515625 2.109375 -0.515625q1.984375 0 3.0 1.15625q1.03125 1.15625 1.03125 3.3125q0 1.546875 -0.515625 2.609375q-0.5 1.046875 -1.4375 1.578125q-0.9375 0.53125 -2.21875 0.53125zm-2.203125 -4.703125q0 1.90625 0.59375 2.9375q0.609375 1.03125 1.75 1.03125q0.625 0 1.046875 -0.296875q0.4375 -0.3125 0.703125 -0.8125q0.28125 -0.515625 0.40625 -1.1875q0.125 -0.671875 0.125 -1.40625q0 -1.375 -0.3125 -2.265625q-0.296875 -0.90625 -0.8125 -1.328125q-0.515625 -0.421875 -1.1875 -0.421875q-1.125 0 -1.71875 0.984375q-0.59375 0.96875 -0.59375 2.765625zm10.573914 -2.78125l0.125 0.03125q0.515625 -0.625 0.953125 -0.984375q0.4375 -0.359375 0.9375 -0.546875q0.5 -0.203125 1.140625 -0.203125q0.546875 0 0.984375 0.0625l0 2.125l-1.046875 0q-0.234375 -0.5 -0.484375 -0.71875q-0.25 -0.234375 -0.6875 -0.234375q-0.328125 0 -0.65625 0.203125q-0.328125 0.1875 -0.640625 0.5625q-0.296875 0.375 -0.421875 0.703125q-0.109375 0.3125 -0.109375 0.765625l0 3.25q0 0.84375 0.09375 1.171875q0.109375 0.3125 0.34375 0.46875q0.234375 0.140625 0.703125 0.21875l0 0.453125l-3.734375 0l0 -0.453125q0.359375 -0.109375 0.5 -0.1875q0.15625 -0.09375 0.265625 -0.234375q0.125 -0.15625 0.171875 -0.453125q0.0625 -0.3125 0.0625 -0.96875l0 -4.046875q0 -0.59375 -0.03125 -0.953125q-0.015625 -0.359375 -0.125 -0.578125q-0.109375 -0.21875 -0.34375 -0.3125q-0.21875 -0.109375 -0.640625 -0.1875l0 -0.484375l2.171875 -0.09375l0.5625 0l-0.09375 1.625z" fill-rule="nonzero"></path><path fill="#000000" fill-opacity="0.0" d="m384.77194 71.38188l118.4252 0l0 54.519684l-118.4252 0z" fill-rule="nonzero"></path><path fill="#000000" d="m395.7407 95.411255q0.1875 0.828125 0.5 1.296875q0.3125 0.46875 0.8125 0.703125q0.5 0.21875 1.296875 0.21875q1.078125 0 1.65625 -0.5625q0.578125 -0.5625 0.578125 -1.65625q0 -0.6875 -0.234375 -1.15625q-0.234375 -0.484375 -0.796875 -0.890625q-0.546875 -0.421875 -1.65625 -0.984375q-1.09375 -0.53125 -1.734375 -1.046875q-0.625 -0.515625 -0.9375 -1.109375q-0.296875 -0.609375 -0.296875 -1.328125q0 -1.046875 0.484375 -1.8125q0.484375 -0.765625 1.421875 -1.171875q0.953125 -0.421875 2.15625 -0.421875q0.703125 0 1.375 0.078125q0.6875 0.078125 1.6875 0.328125l0 2.5l-0.921875 0q-0.203125 -0.8125 -0.53125 -1.265625q-0.328125 -0.453125 -0.765625 -0.625q-0.4375 -0.1875 -1.125 -0.1875q-0.609375 0 -1.09375 0.21875q-0.46875 0.21875 -0.75 0.671875q-0.265625 0.453125 -0.265625 1.078125q0 0.65625 0.234375 1.109375q0.234375 0.453125 0.734375 0.84375q0.5 0.390625 1.484375 0.875q1.1875 0.59375 1.84375 1.109375q0.65625 0.5 1.015625 1.15625q0.359375 0.65625 0.359375 1.53125q0 0.96875 -0.3125 1.640625q-0.296875 0.671875 -0.84375 1.09375q-0.53125 0.421875 -1.296875 0.625q-0.75 0.1875 -1.65625 0.1875q-1.453125 0 -3.34375 -0.5l0 -2.546875l0.921875 0zm15.598999 1.3125q-0.59375 0.625 -1.09375 0.984375q-0.5 0.34375 -1.09375 0.546875q-0.59375 0.203125 -1.296875 0.203125q-1.921875 0 -2.890625 -1.140625q-0.96875 -1.15625 -0.96875 -3.390625q0 -1.390625 0.484375 -2.4375q0.5 -1.0625 1.421875 -1.640625q0.921875 -0.578125 2.109375 -0.578125q0.9375 0 1.59375 0.296875q0.671875 0.296875 1.0625 0.8125q0.390625 0.515625 0.609375 1.3125q0.21875 0.78125 0.25 2.03125l-5.84375 0l0 0.171875q0 1.09375 0.234375 1.84375q0.25 0.75 0.8125 1.171875q0.5625 0.421875 1.46875 0.421875q0.75 0 1.359375 -0.28125q0.609375 -0.296875 1.21875 -0.9375l0.5625 0.609375zm-1.5625 -3.765625q-0.046875 -1.0 -0.25 -1.625q-0.1875 -0.640625 -0.578125 -0.984375q-0.390625 -0.34375 -1.015625 -0.34375q-0.96875 0 -1.546875 0.765625q-0.5625 0.765625 -0.65625 2.1875l4.046875 0zm5.7566223 -1.984375l0.125 0.03125q0.515625 -0.625 0.953125 -0.984375q0.4375 -0.359375 0.9375 -0.546875q0.5 -0.203125 1.140625 -0.203125q0.546875 0 0.984375 0.0625l0 2.125l-1.046875 0q-0.234375 -0.5 -0.484375 -0.71875q-0.25 -0.234375 -0.6875 -0.234375q-0.328125 0 -0.65625 0.203125q-0.328125 0.1875 -0.640625 0.5625q-0.296875 0.375 -0.421875 0.703125q-0.109375 0.3125 -0.109375 0.765625l0 3.25q0 0.84375 0.09375 1.171875q0.109375 0.3125 0.34375 0.46875q0.234375 0.140625 0.703125 0.21875l0 0.453125l-3.734375 0l0 -0.453125q0.359375 -0.109375 0.5 -0.1875q0.15625 -0.09375 0.265625 -0.234375q0.125 -0.15625 0.171875 -0.453125q0.0625 -0.3125 0.0625 -0.96875l0 -4.046875q0 -0.59375 -0.03125 -0.953125q-0.015625 -0.359375 -0.125 -0.578125q-0.109375 -0.21875 -0.34375 -0.3125q-0.21875 -0.109375 -0.640625 -0.1875l0 -0.484375l2.171875 -0.09375l0.5625 0l-0.09375 1.625zm8.278259 -1.546875l0 0.453125q-0.4375 0.109375 -0.609375 0.203125q-0.171875 0.09375 -0.265625 0.25q-0.09375 0.140625 -0.09375 0.390625q0 0.25 0.0625 0.53125q0.0625 0.265625 0.1875 0.625l1.625 4.703125l1.890625 -4.5q0.1875 -0.453125 0.25 -0.734375q0.078125 -0.296875 0.078125 -0.546875q0 -0.390625 -0.203125 -0.59375q-0.203125 -0.203125 -0.765625 -0.328125l0 -0.453125l3.46875 0l0 0.453125q-0.359375 0.078125 -0.5625 0.234375q-0.1875 0.15625 -0.390625 0.484375q-0.1875 0.328125 -0.453125 0.921875l-3.125 6.875l-1.09375 0l-2.515625 -6.9375q-0.265625 -0.703125 -0.421875 -0.96875q-0.15625 -0.265625 -0.34375 -0.390625q-0.171875 -0.140625 -0.515625 -0.21875l0 -0.453125l3.796875 0zm13.744751 7.296875q-0.59375 0.625 -1.09375 0.984375q-0.5 0.34375 -1.09375 0.546875q-0.59375 0.203125 -1.296875 0.203125q-1.921875 0 -2.890625 -1.140625q-0.96875 -1.15625 -0.96875 -3.390625q0 -1.390625 0.484375 -2.4375q0.5 -1.0625 1.421875 -1.640625q0.921875 -0.578125 2.109375 -0.578125q0.9375 0 1.59375 0.296875q0.671875 0.296875 1.0625 0.8125q0.390625 0.515625 0.609375 1.3125q0.21875 0.78125 0.25 2.03125l-5.84375 0l0 0.171875q0 1.09375 0.234375 1.84375q0.25 0.75 0.8125 1.171875q0.5625 0.421875 1.46875 0.421875q0.75 0 1.359375 -0.28125q0.609375 -0.296875 1.21875 -0.9375l0.5625 0.609375zm-1.5625 -3.765625q-0.046875 -1.0 -0.25 -1.625q-0.1875 -0.640625 -0.578125 -0.984375q-0.390625 -0.34375 -1.015625 -0.34375q-0.96875 0 -1.546875 0.765625q-0.5625 0.765625 -0.65625 2.1875l4.046875 0zm5.7566223 -1.984375l0.125 0.03125q0.515625 -0.625 0.953125 -0.984375q0.4375 -0.359375 0.9375 -0.546875q0.5 -0.203125 1.140625 -0.203125q0.546875 0 0.984375 0.0625l0 2.125l-1.046875 0q-0.234375 -0.5 -0.484375 -0.71875q-0.25 -0.234375 -0.6875 -0.234375q-0.328125 0 -0.65625 0.203125q-0.328125 0.1875 -0.640625 0.5625q-0.296875 0.375 -0.421875 0.703125q-0.109375 0.3125 -0.109375 0.765625l0 3.25q0 0.84375 0.09375 1.171875q0.109375 0.3125 0.34375 0.46875q0.234375 0.140625 0.703125 0.21875l0 0.453125l-3.734375 0l0 -0.453125q0.359375 -0.109375 0.5 -0.1875q0.15625 -0.09375 0.265625 -0.234375q0.125 -0.15625 0.171875 -0.453125q0.0625 -0.3125 0.0625 -0.96875l0 -4.046875q0 -0.59375 -0.03125 -0.953125q-0.015625 -0.359375 -0.125 -0.578125q-0.109375 -0.21875 -0.34375 -0.3125q-0.21875 -0.109375 -0.640625 -0.1875l0 -0.484375l2.171875 -0.09375l0.5625 0l-0.09375 1.625z" fill-rule="nonzero"></path><path fill="#000000" d="m403.44382 107.911255l0 2.5625l-0.921875 0q-0.21875 -0.796875 -0.5625 -1.28125q-0.34375 -0.484375 -0.796875 -0.6875q-0.453125 -0.203125 -1.09375 -0.203125q-0.96875 0 -1.71875 0.640625q-0.734375 0.640625 -1.171875 1.921875q-0.421875 1.265625 -0.421875 3.078125q0 1.8125 0.34375 3.109375q0.359375 1.28125 1.046875 1.9375q0.6875 0.640625 1.6875 0.640625q0.765625 0 1.25 -0.21875q0.484375 -0.21875 0.8125 -0.6875q0.328125 -0.46875 0.625 -1.390625l0.921875 0l0 2.65625q-0.875 0.234375 -1.796875 0.34375q-0.90625 0.125 -2.0 0.125q-2.359375 0 -3.5625 -1.59375q-1.203125 -1.609375 -1.203125 -4.765625q0 -1.984375 0.625 -3.46875q0.625 -1.5 1.828125 -2.3125q1.21875 -0.828125 2.90625 -0.828125q0.84375 0 1.5625 0.09375q0.71875 0.078125 1.640625 0.328125zm5.7597656 12.546875q-1.9375 0 -2.953125 -1.140625q-1.015625 -1.140625 -1.015625 -3.359375q0 -1.53125 0.53125 -2.59375q0.546875 -1.0625 1.46875 -1.578125q0.921875 -0.515625 2.109375 -0.515625q1.984375 0 3.0 1.15625q1.03125 1.15625 1.03125 3.3125q0 1.546875 -0.515625 2.609375q-0.5 1.046875 -1.4375 1.578125q-0.9375 0.53125 -2.21875 0.53125zm-2.203125 -4.703125q0 1.90625 0.59375 2.9375q0.609375 1.03125 1.75 1.03125q0.625 0 1.046875 -0.296875q0.4375 -0.3125 0.703125 -0.8125q0.28125 -0.515625 0.40625 -1.1875q0.125 -0.671875 0.125 -1.40625q0 -1.375 -0.3125 -2.265625q-0.296875 -0.90625 -0.8125 -1.328125q-0.515625 -0.421875 -1.1875 -0.421875q-1.125 0 -1.71875 0.984375q-0.59375 0.96875 -0.59375 2.765625zm17.105133 4.546875l-3.65625 0l0 -0.453125q0.359375 -0.109375 0.515625 -0.1875q0.15625 -0.09375 0.265625 -0.234375q0.109375 -0.15625 0.171875 -0.46875q0.0625 -0.3125 0.0625 -0.9375l0 -2.4375q0 -0.640625 -0.046875 -1.171875q-0.03125 -0.53125 -0.125 -0.859375q-0.078125 -0.34375 -0.203125 -0.53125q-0.125 -0.203125 -0.296875 -0.328125q-0.171875 -0.140625 -0.40625 -0.21875q-0.21875 -0.078125 -0.578125 -0.078125q-0.359375 0 -0.6875 0.15625q-0.328125 0.140625 -0.71875 0.5q-0.390625 0.34375 -0.5625 0.6875q-0.171875 0.34375 -0.171875 0.78125l0 3.46875q0 0.796875 0.0625 1.109375q0.078125 0.296875 0.28125 0.46875q0.21875 0.15625 0.6875 0.28125l0 0.453125l-3.625 0l0 -0.453125q0.359375 -0.109375 0.5 -0.1875q0.15625 -0.09375 0.265625 -0.234375q0.109375 -0.15625 0.171875 -0.453125q0.0625 -0.3125 0.0625 -0.96875l0 -4.046875q0 -0.59375 -0.03125 -0.953125q-0.015625 -0.359375 -0.125 -0.578125q-0.109375 -0.21875 -0.34375 -0.3125q-0.21875 -0.109375 -0.640625 -0.1875l0 -0.5l2.171875 -0.078125l0.5625 0l-0.09375 1.515625l0.125 0.03125q0.6875 -0.6875 1.109375 -0.984375q0.421875 -0.296875 0.84375 -0.453125q0.4375 -0.171875 0.921875 -0.171875q0.5 0 0.890625 0.125q0.40625 0.109375 0.703125 0.359375q0.296875 0.234375 0.484375 0.59375q0.203125 0.34375 0.296875 0.84375q0.109375 0.5 0.109375 1.28125l0 3.5q0 0.640625 0.03125 0.921875q0.046875 0.28125 0.125 0.453125q0.09375 0.15625 0.265625 0.265625q0.1875 0.09375 0.625 0.21875l0 0.453125zm10.41217 0l-3.65625 0l0 -0.453125q0.359375 -0.109375 0.515625 -0.1875q0.15625 -0.09375 0.265625 -0.234375q0.109375 -0.15625 0.171875 -0.46875q0.0625 -0.3125 0.0625 -0.9375l0 -2.4375q0 -0.640625 -0.046875 -1.171875q-0.03125 -0.53125 -0.125 -0.859375q-0.078125 -0.34375 -0.203125 -0.53125q-0.125 -0.203125 -0.296875 -0.328125q-0.171875 -0.140625 -0.40625 -0.21875q-0.21875 -0.078125 -0.578125 -0.078125q-0.359375 0 -0.6875 0.15625q-0.328125 0.140625 -0.71875 0.5q-0.390625 0.34375 -0.5625 0.6875q-0.171875 0.34375 -0.171875 0.78125l0 3.46875q0 0.796875 0.0625 1.109375q0.078125 0.296875 0.28125 0.46875q0.21875 0.15625 0.6875 0.28125l0 0.453125l-3.625 0l0 -0.453125q0.359375 -0.109375 0.5 -0.1875q0.15625 -0.09375 0.265625 -0.234375q0.109375 -0.15625 0.171875 -0.453125q0.0625 -0.3125 0.0625 -0.96875l0 -4.046875q0 -0.59375 -0.03125 -0.953125q-0.015625 -0.359375 -0.125 -0.578125q-0.109375 -0.21875 -0.34375 -0.3125q-0.21875 -0.109375 -0.640625 -0.1875l0 -0.5l2.171875 -0.078125l0.5625 0l-0.09375 1.515625l0.125 0.03125q0.6875 -0.6875 1.109375 -0.984375q0.421875 -0.296875 0.84375 -0.453125q0.4375 -0.171875 0.921875 -0.171875q0.5 0 0.890625 0.125q0.40625 0.109375 0.703125 0.359375q0.296875 0.234375 0.484375 0.59375q0.203125 0.34375 0.296875 0.84375q0.109375 0.5 0.109375 1.28125l0 3.5q0 0.640625 0.03125 0.921875q0.046875 0.28125 0.125 0.453125q0.09375 0.15625 0.265625 0.265625q0.1875 0.09375 0.625 0.21875l0 0.453125zm8.78714 -1.578125q-0.59375 0.625 -1.09375 0.984375q-0.5 0.34375 -1.09375 0.546875q-0.59375 0.203125 -1.296875 0.203125q-1.921875 0 -2.890625 -1.140625q-0.96875 -1.15625 -0.96875 -3.390625q0 -1.390625 0.484375 -2.4375q0.5 -1.0625 1.421875 -1.640625q0.921875 -0.578125 2.109375 -0.578125q0.9375 0 1.59375 0.296875q0.671875 0.296875 1.0625 0.8125q0.390625 0.515625 0.609375 1.3125q0.21875 0.78125 0.25 2.03125l-5.84375 0l0 0.171875q0 1.09375 0.234375 1.84375q0.25 0.75 0.8125 1.171875q0.5625 0.421875 1.46875 0.421875q0.75 0 1.359375 -0.28125q0.609375 -0.296875 1.21875 -0.9375l0.5625 0.609375zm-1.5625 -3.765625q-0.046875 -1.0 -0.25 -1.625q-0.1875 -0.640625 -0.578125 -0.984375q-0.390625 -0.34375 -1.015625 -0.34375q-0.96875 0 -1.546875 0.765625q-0.5625 0.765625 -0.65625 2.1875l4.046875 0zm10.162903 -3.3125l0 1.9375l-1.171875 0q-0.171875 -0.59375 -0.40625 -0.9375q-0.21875 -0.359375 -0.53125 -0.5q-0.296875 -0.140625 -0.765625 -0.140625q-0.640625 0 -1.140625 0.421875q-0.5 0.421875 -0.796875 1.28125q-0.296875 0.84375 -0.296875 2.078125q0 0.78125 0.109375 1.4375q0.125 0.65625 0.390625 1.125q0.265625 0.453125 0.703125 0.71875q0.453125 0.265625 1.109375 0.265625q0.640625 0 1.1875 -0.25q0.5625 -0.25 1.15625 -0.890625l0.53125 0.609375q-0.484375 0.53125 -0.84375 0.8125q-0.359375 0.28125 -0.78125 0.46875q-0.40625 0.1875 -0.8125 0.28125q-0.390625 0.09375 -0.875 0.09375q-1.75 0 -2.6875 -1.171875q-0.921875 -1.171875 -0.921875 -3.359375q0 -1.375 0.515625 -2.4375q0.53125 -1.0625 1.46875 -1.640625q0.9375 -0.578125 2.15625 -0.578125q0.765625 0 1.40625 0.09375q0.640625 0.09375 1.296875 0.28125zm0.7571106 0.25q0.46875 -0.078125 0.75 -0.25q0.28125 -0.1875 0.4375 -0.484375q0.171875 -0.296875 0.265625 -0.734375q0.09375 -0.4375 0.203125 -1.28125l1.3125 0l0 2.28125l3.0 0l0 0.9375l-3.0 0l0 4.140625q0 0.890625 0.0625 1.421875q0.078125 0.53125 0.28125 0.84375q0.21875 0.296875 0.46875 0.4375q0.265625 0.125 0.671875 0.125q0.375 0 0.6875 -0.15625q0.328125 -0.15625 0.640625 -0.4375l0.421875 0.5q-0.65625 0.640625 -1.25 0.9375q-0.578125 0.28125 -1.21875 0.28125q-1.1875 0 -1.78125 -0.703125q-0.578125 -0.71875 -0.578125 -2.234375l0 -5.15625l-1.375 0l0 -0.46875zm10.906647 8.5625q-1.9375 0 -2.953125 -1.140625q-1.015625 -1.140625 -1.015625 -3.359375q0 -1.53125 0.53125 -2.59375q0.546875 -1.0625 1.46875 -1.578125q0.921875 -0.515625 2.109375 -0.515625q1.984375 0 3.0 1.15625q1.03125 1.15625 1.03125 3.3125q0 1.546875 -0.515625 2.609375q-0.5 1.046875 -1.4375 1.578125q-0.9375 0.53125 -2.21875 0.53125zm-2.203125 -4.703125q0 1.90625 0.59375 2.9375q0.609375 1.03125 1.75 1.03125q0.625 0 1.046875 -0.296875q0.4375 -0.3125 0.703125 -0.8125q0.28125 -0.515625 0.40625 -1.1875q0.125 -0.671875 0.125 -1.40625q0 -1.375 -0.3125 -2.265625q-0.296875 -0.90625 -0.8125 -1.328125q-0.515625 -0.421875 -1.1875 -0.421875q-1.125 0 -1.71875 0.984375q-0.59375 0.96875 -0.59375 2.765625zm10.573883 -2.78125l0.125 0.03125q0.515625 -0.625 0.953125 -0.984375q0.4375 -0.359375 0.9375 -0.546875q0.5 -0.203125 1.140625 -0.203125q0.546875 0 0.984375 0.0625l0 2.125l-1.046875 0q-0.234375 -0.5 -0.484375 -0.71875q-0.25 -0.234375 -0.6875 -0.234375q-0.328125 0 -0.65625 0.203125q-0.328125 0.1875 -0.640625 0.5625q-0.296875 0.375 -0.421875 0.703125q-0.109375 0.3125 -0.109375 0.765625l0 3.25q0 0.84375 0.09375 1.171875q0.109375 0.3125 0.34375 0.46875q0.234375 0.140625 0.703125 0.21875l0 0.453125l-3.734375 0l0 -0.453125q0.359375 -0.109375 0.5 -0.1875q0.15625 -0.09375 0.265625 -0.234375q0.125 -0.15625 0.171875 -0.453125q0.0625 -0.3125 0.0625 -0.96875l0 -4.046875q0 -0.59375 -0.03125 -0.953125q-0.015625 -0.359375 -0.125 -0.578125q-0.109375 -0.21875 -0.34375 -0.3125q-0.21875 -0.109375 -0.640625 -0.1875l0 -0.484375l2.171875 -0.09375l0.5625 0l-0.09375 1.625z" fill-rule="nonzero"></path><path fill="#000000" fill-opacity="0.0" d="m738.55414 318.021l114.96063 0l0 54.519684l-114.96063 0z" fill-rule="nonzero"></path><path fill="#000000" d="m749.5229 342.05038q0.1875 0.828125 0.5 1.296875q0.3125 0.46875 0.8125 0.703125q0.5 0.21875 1.296875 0.21875q1.078125 0 1.65625 -0.5625q0.578125 -0.5625 0.578125 -1.65625q0 -0.6875 -0.234375 -1.15625q-0.234375 -0.484375 -0.796875 -0.890625q-0.546875 -0.421875 -1.65625 -0.984375q-1.09375 -0.53125 -1.734375 -1.046875q-0.625 -0.515625 -0.9375 -1.109375q-0.296875 -0.609375 -0.296875 -1.328125q0 -1.046875 0.484375 -1.8125q0.484375 -0.765625 1.421875 -1.171875q0.953125 -0.421875 2.15625 -0.421875q0.703125 0 1.375 0.078125q0.6875 0.078125 1.6875 0.328125l0 2.5l-0.921875 0q-0.203125 -0.8125 -0.53125 -1.265625q-0.328125 -0.453125 -0.765625 -0.625q-0.4375 -0.1875 -1.125 -0.1875q-0.609375 0 -1.09375 0.21875q-0.46875 0.21875 -0.75 0.671875q-0.265625 0.453125 -0.265625 1.078125q0 0.65625 0.234375 1.109375q0.234375 0.453125 0.734375 0.84375q0.5 0.390625 1.484375 0.875q1.1875 0.59375 1.84375 1.109375q0.65625 0.5 1.015625 1.15625q0.359375 0.65625 0.359375 1.53125q0 0.96875 -0.3125 1.640625q-0.296875 0.671875 -0.84375 1.09375q-0.53125 0.421875 -1.296875 0.625q-0.75 0.1875 -1.65625 0.1875q-1.453125 0 -3.34375 -0.5l0 -2.546875l0.921875 0zm15.598999 1.3125q-0.59375 0.625 -1.09375 0.984375q-0.5 0.34375 -1.09375 0.546875q-0.59375 0.203125 -1.296875 0.203125q-1.921875 0 -2.890625 -1.140625q-0.96875 -1.15625 -0.96875 -3.390625q0 -1.390625 0.484375 -2.4375q0.5 -1.0625 1.421875 -1.640625q0.921875 -0.578125 2.109375 -0.578125q0.9375 0 1.59375 0.296875q0.671875 0.296875 1.0625 0.8125q0.390625 0.515625 0.609375 1.3125q0.21875 0.78125 0.25 2.03125l-5.84375 0l0 0.171875q0 1.09375 0.234375 1.84375q0.25 0.75 0.8125 1.171875q0.5625 0.421875 1.46875 0.421875q0.75 0 1.359375 -0.28125q0.609375 -0.296875 1.21875 -0.9375l0.5625 0.609375zm-1.5625 -3.765625q-0.046875 -1.0 -0.25 -1.625q-0.1875 -0.640625 -0.578125 -0.984375q-0.390625 -0.34375 -1.015625 -0.34375q-0.96875 0 -1.546875 0.765625q-0.5625 0.765625 -0.65625 2.1875l4.046875 0zm5.756653 -1.984375l0.125 0.03125q0.515625 -0.625 0.953125 -0.984375q0.4375 -0.359375 0.9375 -0.546875q0.5 -0.203125 1.140625 -0.203125q0.546875 0 0.984375 0.0625l0 2.125l-1.046875 0q-0.234375 -0.5 -0.484375 -0.71875q-0.25 -0.234375 -0.6875 -0.234375q-0.328125 0 -0.65625 0.203125q-0.328125 0.1875 -0.640625 0.5625q-0.296875 0.375 -0.421875 0.703125q-0.109375 0.3125 -0.109375 0.765625l0 3.25q0 0.84375 0.09375 1.171875q0.109375 0.3125 0.34375 0.46875q0.234375 0.140625 0.703125 0.21875l0 0.453125l-3.734375 0l0 -0.453125q0.359375 -0.109375 0.5 -0.1875q0.15625 -0.09375 0.265625 -0.234375q0.125 -0.15625 0.171875 -0.453125q0.0625 -0.3125 0.0625 -0.96875l0 -4.046875q0 -0.59375 -0.03125 -0.953125q-0.015625 -0.359375 -0.125 -0.578125q-0.109375 -0.21875 -0.34375 -0.3125q-0.21875 -0.109375 -0.640625 -0.1875l0 -0.484375l2.171875 -0.09375l0.5625 0l-0.09375 1.625zm8.278198 -1.546875l0 0.453125q-0.4375 0.109375 -0.609375 0.203125q-0.171875 0.09375 -0.265625 0.25q-0.09375 0.140625 -0.09375 0.390625q0 0.25 0.0625 0.53125q0.0625 0.265625 0.1875 0.625l1.625 4.703125l1.890625 -4.5q0.1875 -0.453125 0.25 -0.734375q0.078125 -0.296875 0.078125 -0.546875q0 -0.390625 -0.203125 -0.59375q-0.203125 -0.203125 -0.765625 -0.328125l0 -0.453125l3.46875 0l0 0.453125q-0.359375 0.078125 -0.5625 0.234375q-0.1875 0.15625 -0.390625 0.484375q-0.1875 0.328125 -0.453125 0.921875l-3.125 6.875l-1.09375 0l-2.515625 -6.9375q-0.265625 -0.703125 -0.421875 -0.96875q-0.15625 -0.265625 -0.34375 -0.390625q-0.171875 -0.140625 -0.515625 -0.21875l0 -0.453125l3.796875 0zm13.744751 7.296875q-0.59375 0.625 -1.09375 0.984375q-0.5 0.34375 -1.09375 0.546875q-0.59375 0.203125 -1.296875 0.203125q-1.921875 0 -2.890625 -1.140625q-0.96875 -1.15625 -0.96875 -3.390625q0 -1.390625 0.484375 -2.4375q0.5 -1.0625 1.421875 -1.640625q0.921875 -0.578125 2.109375 -0.578125q0.9375 0 1.59375 0.296875q0.671875 0.296875 1.0625 0.8125q0.390625 0.515625 0.609375 1.3125q0.21875 0.78125 0.25 2.03125l-5.84375 0l0 0.171875q0 1.09375 0.234375 1.84375q0.25 0.75 0.8125 1.171875q0.5625 0.421875 1.46875 0.421875q0.75 0 1.359375 -0.28125q0.609375 -0.296875 1.21875 -0.9375l0.5625 0.609375zm-1.5625 -3.765625q-0.046875 -1.0 -0.25 -1.625q-0.1875 -0.640625 -0.578125 -0.984375q-0.390625 -0.34375 -1.015625 -0.34375q-0.96875 0 -1.546875 0.765625q-0.5625 0.765625 -0.65625 2.1875l4.046875 0zm5.756653 -1.984375l0.125 0.03125q0.515625 -0.625 0.953125 -0.984375q0.4375 -0.359375 0.9375 -0.546875q0.5 -0.203125 1.140625 -0.203125q0.546875 0 0.984375 0.0625l0 2.125l-1.046875 0q-0.234375 -0.5 -0.484375 -0.71875q-0.25 -0.234375 -0.6875 -0.234375q-0.328125 0 -0.65625 0.203125q-0.328125 0.1875 -0.640625 0.5625q-0.296875 0.375 -0.421875 0.703125q-0.109375 0.3125 -0.109375 0.765625l0 3.25q0 0.84375 0.09375 1.171875q0.109375 0.3125 0.34375 0.46875q0.234375 0.140625 0.703125 0.21875l0 0.453125l-3.734375 0l0 -0.453125q0.359375 -0.109375 0.5 -0.1875q0.15625 -0.09375 0.265625 -0.234375q0.125 -0.15625 0.171875 -0.453125q0.0625 -0.3125 0.0625 -0.96875l0 -4.046875q0 -0.59375 -0.03125 -0.953125q-0.015625 -0.359375 -0.125 -0.578125q-0.109375 -0.21875 -0.34375 -0.3125q-0.21875 -0.109375 -0.640625 -0.1875l0 -0.484375l2.171875 -0.09375l0.5625 0l-0.09375 1.625z" fill-rule="nonzero"></path><path fill="#000000" d="m769.9252 362.15976l0 3.515625l-1.359375 0l0 -3.515625l-3.421875 0l0 -1.296875l3.421875 0l0 -3.5l1.359375 0l0 3.5l3.4375 0l0 1.296875l-3.4375 0z" fill-rule="nonzero"></path><path fill="#000000" d="m757.226 376.55038l0 2.5625l-0.921875 0q-0.21875 -0.796875 -0.5625 -1.28125q-0.34375 -0.484375 -0.796875 -0.6875q-0.453125 -0.203125 -1.09375 -0.203125q-0.96875 0 -1.71875 0.640625q-0.734375 0.640625 -1.171875 1.921875q-0.421875 1.265625 -0.421875 3.078125q0 1.8125 0.34375 3.109375q0.359375 1.28125 1.046875 1.9375q0.6875 0.640625 1.6875 0.640625q0.765625 0 1.25 -0.21875q0.484375 -0.21875 0.8125 -0.6875q0.328125 -0.46875 0.625 -1.390625l0.921875 0l0 2.65625q-0.875 0.234375 -1.796875 0.34375q-0.90625 0.125 -2.0 0.125q-2.359375 0 -3.5625 -1.59375q-1.203125 -1.609375 -1.203125 -4.765625q0 -1.984375 0.625 -3.46875q0.625 -1.5 1.828125 -2.3125q1.21875 -0.828125 2.90625 -0.828125q0.84375 0 1.5625 0.09375q0.71875 0.078125 1.640625 0.328125zm7.0878906 11.0625l-0.140625 -0.03125q-0.8125 0.828125 -1.53125 1.171875q-0.703125 0.34375 -1.5 0.34375q-0.703125 0 -1.25 -0.28125q-0.53125 -0.28125 -0.8125 -0.765625q-0.28125 -0.5 -0.28125 -1.15625q0 -1.34375 1.328125 -2.078125q1.34375 -0.75 4.03125 -0.859375l0 -0.609375q0 -0.96875 -0.1875 -1.515625q-0.1875 -0.5625 -0.59375 -0.8125q-0.390625 -0.265625 -1.0625 -0.265625q-0.71875 0 -1.171875 0.375q-0.4375 0.375 -0.65625 1.140625l-1.21875 0l0 -1.203125q0.890625 -0.46875 1.484375 -0.6875q0.59375 -0.21875 1.1875 -0.34375q0.59375 -0.125 1.21875 -0.125q0.90625 0 1.46875 0.296875q0.5625 0.296875 0.828125 0.90625q0.28125 0.59375 0.28125 1.8125l0 3.21875q0 0.6875 0 0.96875q0.015625 0.28125 0.0625 0.53125q0.046875 0.234375 0.140625 0.390625q0.09375 0.140625 0.265625 0.25q0.1875 0.09375 0.609375 0.203125l0 0.453125l-2.546875 0l0.046875 -1.328125zm-0.15625 -2.90625q-1.890625 0.015625 -2.828125 0.5q-0.9375 0.484375 -0.9375 1.46875q0 0.515625 0.21875 0.828125q0.21875 0.3125 0.53125 0.421875q0.328125 0.109375 0.78125 0.109375q0.625 0 1.140625 -0.296875q0.515625 -0.3125 0.796875 -0.78125q0.296875 -0.46875 0.296875 -0.9375l0 -1.3125zm10.812622 -4.421875l0 1.9375l-1.171875 0q-0.171875 -0.59375 -0.40625 -0.9375q-0.21875 -0.359375 -0.53125 -0.5q-0.296875 -0.140625 -0.765625 -0.140625q-0.640625 0 -1.140625 0.421875q-0.5 0.421875 -0.796875 1.28125q-0.296875 0.84375 -0.296875 2.078125q0 0.78125 0.109375 1.4375q0.125 0.65625 0.390625 1.125q0.265625 0.453125 0.703125 0.71875q0.453125 0.265625 1.109375 0.265625q0.640625 0 1.1875 -0.25q0.5625 -0.25 1.15625 -0.890625l0.53125 0.609375q-0.484375 0.53125 -0.84375 0.8125q-0.359375 0.28125 -0.78125 0.46875q-0.40625 0.1875 -0.8125 0.28125q-0.390625 0.09375 -0.875 0.09375q-1.75 0 -2.6875 -1.171875q-0.921875 -1.171875 -0.921875 -3.359375q0 -1.375 0.515625 -2.4375q0.53125 -1.0625 1.46875 -1.640625q0.9375 -0.578125 2.15625 -0.578125q0.765625 0 1.40625 0.09375q0.640625 0.09375 1.296875 0.28125zm3.804016 1.25l0.03125 0q0.71875 -0.734375 1.140625 -1.015625q0.421875 -0.296875 0.828125 -0.4375q0.421875 -0.15625 0.90625 -0.15625q0.5 0 0.890625 0.125q0.40625 0.109375 0.703125 0.359375q0.3125 0.25 0.5 0.609375q0.1875 0.34375 0.28125 0.84375q0.09375 0.5 0.09375 1.265625l0 3.5q0 0.796875 0.0625 1.09375q0.078125 0.296875 0.25 0.453125q0.1875 0.15625 0.734375 0.3125l0 0.453125l-3.65625 0l0 -0.453125q0.359375 -0.109375 0.515625 -0.1875q0.171875 -0.09375 0.265625 -0.234375q0.109375 -0.15625 0.171875 -0.46875q0.0625 -0.3125 0.0625 -0.9375l0 -2.4375q0 -1.234375 -0.125 -1.875q-0.125 -0.65625 -0.5 -0.984375q-0.359375 -0.328125 -1.015625 -0.328125q-0.375 0 -0.671875 0.140625q-0.296875 0.125 -0.6875 0.453125q-0.390625 0.328125 -0.59375 0.6875q-0.1875 0.359375 -0.1875 0.75l0 3.5625q0 0.625 0.03125 0.890625q0.03125 0.265625 0.125 0.453125q0.09375 0.1875 0.28125 0.296875q0.1875 0.109375 0.59375 0.21875l0 0.453125l-3.671875 0l0 -0.453125q0.40625 -0.109375 0.578125 -0.203125q0.171875 -0.109375 0.265625 -0.265625q0.109375 -0.15625 0.15625 -0.453125q0.046875 -0.296875 0.046875 -0.9375l0 -7.765625q0 -0.890625 -0.015625 -1.25q-0.015625 -0.359375 -0.078125 -0.59375q-0.0625 -0.25 -0.171875 -0.390625q-0.109375 -0.140625 -0.296875 -0.21875q-0.171875 -0.09375 -0.640625 -0.171875l0 -0.484375l2.234375 -0.09375l0.5625 0l0 5.875zm15.215576 5.828125q-0.59375 0.625 -1.09375 0.984375q-0.5 0.34375 -1.09375 0.546875q-0.59375 0.203125 -1.296875 0.203125q-1.921875 0 -2.890625 -1.140625q-0.96875 -1.15625 -0.96875 -3.390625q0 -1.390625 0.484375 -2.4375q0.5 -1.0625 1.421875 -1.640625q0.921875 -0.578125 2.109375 -0.578125q0.9375 0 1.59375 0.296875q0.671875 0.296875 1.0625 0.8125q0.390625 0.515625 0.609375 1.3125q0.21875 0.78125 0.25 2.03125l-5.84375 0l0 0.171875q0 1.09375 0.234375 1.84375q0.25 0.75 0.8125 1.171875q0.5625 0.421875 1.46875 0.421875q0.75 0 1.359375 -0.28125q0.609375 -0.296875 1.21875 -0.9375l0.5625 0.609375zm-1.5625 -3.765625q-0.046875 -1.0 -0.25 -1.625q-0.1875 -0.640625 -0.578125 -0.984375q-0.390625 -0.34375 -1.015625 -0.34375q-0.96875 0 -1.546875 0.765625q-0.5625 0.765625 -0.65625 2.1875l4.046875 0z" fill-rule="nonzero"></path></g></svg>

